{
.appVersion = "122";
copyright = "Copyright © 2025 by Thomas Nicholson";
customParameters = (
{
name = vendorID;
value = "TN  ";
},
{
name = panose;
value = (
0,
0,
0,
0,
0,
0,
0,
0,
0,
0
);
},
{
name = fsType;
value = (
2
);
},
{
name = blueShift;
value = 0;
},
{
name = familyName;
value = "Plainsound Text";
},
{
name = postscriptFontName;
value = "PlainsoundText-Regular";
},
{
name = postscriptFullName;
value = "Plainsound Text Regular";
},
{
name = license;
value = "SIL Open Font License Version 1.1 with reserved font name";
}
);
date = "2002-01-15 12:20:35 +0000";
designer = "Thomas Nicholson";
designerURL = www.superparticular.com;
familyName = "Plainsound Text";
featurePrefixes = (
{
automatic = 1;
code = "languagesystem DFLT dflt;\012languagesystem latn dflt;\012languagesystem latn ROM;\012languagesystem latn MOL;\012languagesystem latn KAZ;\012languagesystem latn TAT;\012languagesystem latn TRK;\012languagesystem latn CRT;\012languagesystem latn AZE;\012";
name = Languagesystems;
}
);
features = (
{
automatic = 1;
code = "feature locl;\012feature frac;\012feature ordn;\012";
name = aalt;
},
{
automatic = 1;
code = "script latn;\012language ROM;\012sub Scedilla by Scommaaccent;\012sub scedilla by scommaaccent;\012sub Tcedilla by Tcommaaccent;\012sub tcedilla by tcommaaccent;\012language MOL;\012sub Scedilla by Scommaaccent;\012sub scedilla by scommaaccent;\012sub Tcedilla by Tcommaaccent;\012sub tcedilla by tcommaaccent;\012language KAZ;\012sub i by idotaccent;\012language TAT;\012sub i by idotaccent;\012language TRK;\012sub i by idotaccent;\012language CRT;\012sub i by idotaccent;\012language AZE;\012sub i by idotaccent;\012";
name = locl;
},
{
automatic = 1;

glyphs = (
{
color = 10;
glyphname = A;
lastChange = "2025-02-18 10:33:15 +0000";
layers = (
{
anchors = (
{
name = bottom;
position = "{298, 0}";
},
{
name = ogonek;
position = "{546, 0}";
},
{
name = top;
position = "{298, 727}";
}
);
background = {
paths = (
{
closed = 1;
nodes = (
"586 0 LINE",
"378 727 LINE",
"218 727 LINE",
"10 0 LINE",
"132 0 LINE",
"181 174 LINE",
"415 174 LINE",
"464 0 LINE"
);
},
{
closed = 1;
nodes = (
"298 619 LINE",
"389 268 LINE",
"207 268 LINE"
);
}
);
};
layerId = m01;
paths = (
{
closed = 1;
nodes = (
"10 0 LINE",
"135 0 LINE",
"333 727 LINE",
"218 727 LINE"
);
},
{
closed = 1;
nodes = (
"263 727 LINE",
"461 0 LINE",
"586 0 LINE",
"378 727 LINE"
);
},
{
closed = 1;
nodes = (
"181 174 LINE",
"426 174 LINE",
"426 274 LINE",
"181 274 LINE"
);
}
);
vertWidth = 1200;
width = 596;
}
);
leftKerningGroup = A;
note = A;
rightKerningGroup = A;
unicode = 0041;
},
{
color = 10;
glyphname = AE;
lastChange = "2025-02-18 11:08:47 +0000";
layers = (
{
components = (
{
name = E;
transform = "{1, 0, 0, 1, 349, 0}";
}
);
layerId = m01;
paths = (
{
closed = 1;
nodes = (
"515 162 LINE",
"515 256 LINE",
"126 256 LINE",
"126 162 LINE"
);
},
{
closed = 1;
nodes = (
"137 0 LINE",
"401 727 LINE",
"270 727 LINE",
"10 0 LINE"
);
},
{
closed = 1;
nodes = (
"300 627 LINE",
"556 627 LINE",
"556 727 LINE",
"300 727 LINE"
);
}
);
width = 839;
}
);
leftKerningGroup = A;
leftMetricsKey = A;
rightMetricsKey = E;
unicode = 00C6;
},
{
color = 10;
glyphname = B;
lastChange = "2025-02-18 10:33:15 +0000";
layers = (
{
anchors = (
{
name = bottom;
position = "{285, 0}";
},
{
name = top;
position = "{285, 727}";
}
);
background = {
paths = (
{
closed = 1;
nodes = (
"271 0 LINE SMOOTH",
"414 0 OFFCURVE",
"510 42 OFFCURVE",
"510 189 CURVE SMOOTH",
"510 310 OFFCURVE",
"444 357 OFFCURVE",
"332 382 CURVE",
"424 406 OFFCURVE",
"475 447 OFFCURVE",
"475 546 CURVE SMOOTH",
"475 677 OFFCURVE",
"407 727 OFFCURVE",
"276 727 CURVE SMOOTH",
"80 727 LINE",
"80 0 LINE"
);
},
{
closed = 1;
nodes = (
"156 344 LINE",
"250 344 LINE SMOOTH",
"367 344 OFFCURVE",
"434 301 OFFCURVE",
"434 192 CURVE SMOOTH",
"434 95 OFFCURVE",
"358 70 OFFCURVE",
"270 70 CURVE SMOOTH",
"156 70 LINE"
);
},
{
closed = 1;
nodes = (
"156 656 LINE",
"276 656 LINE SMOOTH",
"350 656 OFFCURVE",
"399 624 OFFCURVE",
"399 545 CURVE SMOOTH",
"399 460 OFFCURVE",
"344 414 OFFCURVE",
"256 414 CURVE SMOOTH",
"156 414 LINE"
);
},
{
closed = 1;
nodes = (
"329 366 LINE",
"345 366 LINE",
"345 397 LINE",
"329 397 LINE"
);
}
);
};
layerId = m01;
paths = (
{
closed = 1;
nodes = (
"271 0 LINE SMOOTH",
"449 0 OFFCURVE",
"535 70 OFFCURVE",
"535 206 CURVE SMOOTH",
"535 307 OFFCURVE",
"487 362 OFFCURVE",
"380 386 CURVE",
"361 374 LINE",
"459 397 OFFCURVE",
"500 445 OFFCURVE",
"500 540 CURVE SMOOTH",
"500 667 OFFCURVE",
"428 727 OFFCURVE",
"276 727 CURVE SMOOTH",
"55 727 LINE",
"55 0 LINE"
);
},
{
closed = 1;
nodes = (
"181 332 LINE",
"250 332 LINE SMOOTH",
"361 332 OFFCURVE",
"409 295 OFFCURVE",
"409 209 CURVE SMOOTH",
"409 133 OFFCURVE",
"368 94 OFFCURVE",
"270 94 CURVE SMOOTH",
"181 94 LINE"
);
},
{
closed = 1;
nodes = (
"181 632 LINE",
"276 632 LINE SMOOTH",
"343 632 OFFCURVE",
"374 603 OFFCURVE",
"374 539 CURVE SMOOTH",
"374 460 OFFCURVE",
"337 426 OFFCURVE",
"256 426 CURVE SMOOTH",
"181 426 LINE"
);
}
);
vertWidth = 1200;
width = 580;
}
);
leftMetricsKey = H;
note = B;
rightKerningGroup = O;
rightMetricsKey = O;
unicode = 0042;
},
{
color = 10;
glyphname = C;
lastChange = "2025-02-18 10:33:15 +0000";
layers = (
{
anchors = (
{
name = bottom;
position = "{275, 0}";
},
{
name = top;
position = "{275, 727}";
}
);
background = {
paths = (
{
closed = 1;
nodes = (
"403 214 LINE SMOOTH",
"403 110 OFFCURVE",
"361 57 OFFCURVE",
"265 57 CURVE SMOOTH",
"167 57 OFFCURVE",
"136 110 OFFCURVE",
"136 214 CURVE SMOOTH",
"136 512 LINE SMOOTH",
"136 615 OFFCURVE",
"168 670 OFFCURVE",
"265 670 CURVE SMOOTH",
"363 670 OFFCURVE",
"401 622 OFFCURVE",
"403 518 CURVE",
"479 518 LINE",
"476 662 OFFCURVE",
"409 737 OFFCURVE",
"265 737 CURVE SMOOTH",
"119 737 OFFCURVE",
"60 657 OFFCURVE",
"60 510 CURVE SMOOTH",
"60 216 LINE SMOOTH",
"60 75 OFFCURVE",
"125 -10 OFFCURVE",
"265 -10 CURVE SMOOTH",
"405 -10 OFFCURVE",
"479 74 OFFCURVE",
"479 216 CURVE SMOOTH",
"479 230 LINE",
"403 230 LINE"
);
},
{
closed = 1;
nodes = (
"479 518 LINE",
"403 518 LINE"
);
}
);
};
layerId = m01;
paths = (
{
closed = 1;
nodes = (
"388 127 OFFCURVE",
"352 81 OFFCURVE",
"275 81 CURVE SMOOTH",
"200 81 OFFCURVE",
"171 140 OFFCURVE",
"171 246 CURVE SMOOTH",
"171 480 LINE SMOOTH",
"171 585 OFFCURVE",
"202 646 OFFCURVE",
"275 646 CURVE SMOOTH",
"355 646 OFFCURVE",
"388 604 OFFCURVE",
"388 498 CURVE",
"514 498 LINE",
"514 657 OFFCURVE",
"433 737 OFFCURVE",
"275 737 CURVE SMOOTH",
"119 737 OFFCURVE",
"45 658 OFFCURVE",
"45 498 CURVE SMOOTH",
"45 228 LINE SMOOTH",
"45 73 OFFCURVE",
"126 -10 OFFCURVE",
"275 -10 CURVE SMOOTH",
"427 -10 OFFCURVE",
"514 77 OFFCURVE",
"514 228 CURVE",
"388 228 LINE"
);
}
);
vertWidth = 1200;
width = 539;
}
);
leftKerningGroup = O;
leftMetricsKey = O;
note = C;
rightKerningGroup = O;
rightMetricsKey = E;
unicode = 0043;
},
{
color = 10;
glyphname = D;
lastChange = "2025-02-18 10:33:15 +0000";
layers = (
{
anchors = (
{
name = bottom;
position = "{284, 0}";
},
{
name = center;
position = "{284, 364}";
},
{
name = top;
position = "{274, 727}";
}
);
layerId = m01;
paths = (
{
closed = 1;
nodes = (
"462 0 OFFCURVE",
"529 101 OFFCURVE",
"529 364 CURVE SMOOTH",
"529 633 OFFCURVE",
"467 727 OFFCURVE",
"275 727 CURVE SMOOTH",
"55 727 LINE",
"55 0 LINE",
"275 0 LINE SMOOTH"
);
},
{
closed = 1;
nodes = (
"181 91 LINE",
"181 636 LINE",
"265 636 LINE SMOOTH",
"355 636 OFFCURVE",
"398 574 OFFCURVE",
"398 441 CURVE SMOOTH",
"398 286 LINE SMOOTH",
"398 159 OFFCURVE",
"352 91 OFFCURVE",
"265 91 CURVE SMOOTH"
);
}
);
vertWidth = 1200;
width = 574;
}
);
leftMetricsKey = H;
note = D;
rightKerningGroup = O;
rightMetricsKey = O;
unicode = 0044;
},
{
color = 10;
glyphname = Eth;
lastChange = "2025-02-18 11:07:44 +0000";
layers = (
{
components = (
{
name = D;
}
);
layerId = m01;
paths = (
{
closed = 1;
nodes = (
"0 356 LINE",
"304 356 LINE",
"304 432 LINE",
"0 432 LINE"
);
}
);
width = 574;
}
);
rightKerningGroup = O;
unicode = 00D0;
},
{
color = 10;
glyphname = E;
lastChange = "2025-02-18 10:33:15 +0000";
layers = (
{
anchors = (
{
name = bottom;
position = "{260, 0}";
},
{
name = ogonek;
position = "{425, 0}";
},
{
name = top;
position = "{259, 727}";
},
{
name = topleft;
position = "{23, 727}";
}
);
layerId = m01;
paths = (
{
closed = 1;
nodes = (
"465 0 LINE",
"465 100 LINE",
"181 100 LINE",
"181 321 LINE",
"438 321 LINE",
"438 421 LINE",
"181 421 LINE",
"181 627 LINE",
"462 627 LINE",
"462 727 LINE",
"55 727 LINE",
"55 0 LINE"
);
}
);
vertWidth = 1200;
width = 490;
}
);
leftMetricsKey = H;
note = E;
rightKerningGroup = E;
unicode = 0045;
},
{
color = 10;
glyphname = F;
lastChange = "2025-02-18 10:33:15 +0000";
layers = (
{
anchors = (
{
name = bottom;
position = "{231, 0}";
},
{
name = top;
position = "{253, 727}";
}
);
layerId = m01;
paths = (
{
closed = 1;
nodes = (
"181 0 LINE",
"181 309 LINE",
"429 309 LINE",
"429 409 LINE",
"181 409 LINE",
"181 627 LINE",
"450 627 LINE",
"450 727 LINE",
"55 727 LINE",
"55 0 LINE"
);
}
);
vertWidth = 1200;
width = 475;
}
);
leftMetricsKey = H;
note = F;
rightKerningGroup = F;
rightMetricsKey = E;
unicode = 0046;
},
{
color = 10;
glyphname = G;
lastChange = "2025-02-19 08:55:02 +0000";
layers = (
{
anchors = (
{
name = bottom;
position = "{265, 0}";
},
{
name = top;
position = "{275, 727}";
}
);
background = {
components = (
{
name = _part.bowl;
transform = "{-1, 0, 0, 1, 526, 0}";
}
);
};
layerId = m01;
paths = (
{
closed = 1;
nodes = (
"252 378 LINE",
"252 288 LINE",
"388 288 LINE",
"388 226 LINE SMOOTH",
"388 127 OFFCURVE",
"352 81 OFFCURVE",
"275 81 CURVE SMOOTH",
"200 81 OFFCURVE",
"171 140 OFFCURVE",
"171 246 CURVE SMOOTH",
"171 480 LINE SMOOTH",
"171 585 OFFCURVE",
"202 646 OFFCURVE",
"275 646 CURVE SMOOTH",
"355 646 OFFCURVE",
"387 608 OFFCURVE",
"388 503 CURVE",
"514 503 LINE",
"513 658 OFFCURVE",
"432 737 OFFCURVE",
"275 737 CURVE SMOOTH",
"119 737 OFFCURVE",
"45 658 OFFCURVE",
"45 498 CURVE SMOOTH",
"45 228 LINE SMOOTH",
"45 75 OFFCURVE",
"124 -10 OFFCURVE",
"255 -10 CURVE SMOOTH",
"305 -10 OFFCURVE",
"367 16 OFFCURVE",
"388 60 CURVE",
"398 0 LINE",
"514 0 LINE",
"514 378 LINE"
);
}
);
vertWidth = 1200;
width = 559;
}
);
leftKerningGroup = O;
leftMetricsKey = O;
note = G;
rightMetricsKey = O;
unicode = 0047;
},
{
color = 10;
glyphname = H;
lastChange = "2025-02-18 10:33:15 +0000";
layers = (
{
anchors = (
{
name = bottom;
position = "{282, 0}";
},
{
name = center;
position = "{282, 364}";
},
{
name = top;
position = "{282, 727}";
},
{
name = topleft;
position = "{23, 727}";
}
);
layerId = m01;
paths = (
{
closed = 1;
nodes = (
"181 0 LINE",
"181 321 LINE",
"381 321 LINE",
"381 0 LINE",
"507 0 LINE",
"507 727 LINE",
"381 727 LINE",
"381 421 LINE",
"181 421 LINE",
"181 727 LINE",
"55 727 LINE",
"55 0 LINE"
);
}
);
vertWidth = 1200;
width = 562;
}
);
note = H;
unicode = 0048;
},
{
color = 10;
glyphname = Hbar;
lastChange = "2025-02-18 11:10:17 +0000";
layers = (
{
components = (
{
name = H;
}
);
layerId = m01;
paths = (
{
closed = 1;
nodes = (
"0 536 LINE",
"562 536 LINE",
"562 612 LINE",
"0 612 LINE"
);
}
);
width = 562;
}
);
unicode = 0126;
},
{
color = 10;
glyphname = I;
lastChange = "2025-02-18 10:33:15 +0000";
layers = (
{
anchors = (
{
name = bottom;
position = "{118, 0}";
},
{
name = ogonek;
position = "{141, 0}";
},
{
name = top;
position = "{118, 727}";
},
{
name = topleft;
position = "{19, 727}";
}
);
layerId = m01;
paths = (
{
closed = 1;
nodes = (
"181 0 LINE",
"181 727 LINE",
"55 727 LINE",
"55 0 LINE"
);
}
);
vertWidth = 1200;
width = 236;
}
);
leftMetricsKey = H;
note = I;
rightMetricsKey = H;
unicode = 0049;
},
{
color = 10;
glyphname = J;
lastChange = "2025-02-18 10:33:15 +0000";
layers = (
{
anchors = (
{
name = bottom;
position = "{251, 0}";
},
{
name = top;
position = "{251, 727}";
}
);
layerId = m01;
paths = (
{
closed = 1;
nodes = (
"308 727 LINE",
"308 226 LINE SMOOTH",
"308 109 OFFCURVE",
"291 81 OFFCURVE",
"225 81 CURVE SMOOTH",
"174 81 OFFCURVE",
"155 116 OFFCURVE",
"155 226 CURVE SMOOTH",
"155 247 LINE",
"25 247 LINE",
"25 228 LINE SMOOTH",
"25 61 OFFCURVE",
"83 -10 OFFCURVE",
"225 -10 CURVE SMOOTH",
"377 -10 OFFCURVE",
"434 54 OFFCURVE",
"434 218 CURVE SMOOTH",
"434 727 LINE"
);
}
);
vertWidth = 1200;
width = 489;
}
);
leftKerningGroup = J;
note = J;
rightKerningGroup = J;
rightMetricsKey = H;
unicode = 004A;
},
{
color = 10;
glyphname = K;
lastChange = "2025-02-18 11:10:29 +0000";
layers = (
{
anchors = (
{
name = bottom;
position = "{297, 0}";
},
{
name = top;
position = "{262, 727}";
}
);
layerId = m01;
paths = (
{
closed = 1;
nodes = (
"551 0 LINE",
"313 399 LINE",
"537 727 LINE",
"398 727 LINE",
"170 399 LINE",
"402 0 LINE"
);
},
{
closed = 1;
nodes = (
"181 0 LINE",
"181 727 LINE",
"55 727 LINE",
"55 0 LINE"
);
}
);
vertWidth = 1200;
width = 551;
}
);
leftMetricsKey = H;
note = K;
rightKerningGroup = X;
unicode = 004B;
},
{
color = 10;
glyphname = L;
lastChange = "2025-02-18 10:33:15 +0000";
layers = (
{
anchors = (
{
name = bottom;
position = "{249, 0}";
},
{
name = center;
position = "{226, 364}";
},
{
name = top;
position = "{118, 727}";
},
{
name = topright;
position = "{298, 505}";
}
);
layerId = m01;
paths = (
{
closed = 1;
nodes = (
"443 0 LINE",
"443 100 LINE",
"181 100 LINE",
"181 727 LINE",
"55 727 LINE",
"55 0 LINE"
);
}
);
vertWidth = 1200;
width = 468;
}
);
leftMetricsKey = H;
note = L;
rightKerningGroup = L;
unicode = 004C;
},
{
color = 10;
glyphname = Lslash;
lastChange = "2025-02-18 11:11:08 +0000";
layers = (
{
components = (
{
name = L;
}
);
layerId = m01;
paths = (
{
closed = 1;
nodes = (
"0 266 LINE",
"304 416 LINE",
"304 502 LINE",
"0 352 LINE"
);
}
);
width = 468;
}
);
rightKerningGroup = L;
unicode = 0141;
},
{
color = 10;
glyphname = M;
lastChange = "2025-02-18 10:33:15 +0000";
layers = (
{
anchors = (
{
name = bottom;
position = "{393, 0}";
},
{
name = top;
position = "{393, 727}";
}
);
layerId = m01;
paths = (
{
closed = 1;
nodes = (
"179 0 LINE",
"179 594 LINE",
"318 0 LINE",
"468 0 LINE",
"607 594 LINE",
"607 0 LINE",
"731 0 LINE",
"731 727 LINE",
"530 727 LINE",
"393 129 LINE",
"257 727 LINE",
"55 727 LINE",
"55 0 LINE"
);
}
);
vertWidth = 1200;
width = 786;
}
);
leftMetricsKey = H;
note = M;
rightMetricsKey = H;
unicode = 004D;
},
{
color = 10;
glyphname = N;
lastChange = "2025-02-18 10:33:15 +0000";
layers = (
{
anchors = (
{
name = bottom;
position = "{303, 0}";
},
{
name = top;
position = "{331, 727}";
}
);
layerId = m01;
paths = (
{
closed = 1;
nodes = (
"181 0 LINE",
"181 591 LINE",
"391 0 LINE",
"585 0 LINE",
"585 727 LINE",
"459 727 LINE",
"459 136 LINE",
"249 727 LINE",
"55 727 LINE",
"55 0 LINE"
);
}
);
vertWidth = 1200;
width = 640;
}
);
leftMetricsKey = H;
note = N;
rightMetricsKey = H;
unicode = 004E;
},
{
color = 10;
glyphname = Eng;
lastChange = "2025-02-18 11:12:15 +0000";
layers = (
{
components = (
{
name = N;
}
);
layerId = m01;
paths = (
{
closed = 1;
nodes = (
"448 -190 LINE SMOOTH",
"556 -190 OFFCURVE",
"585 -157 OFFCURVE",
"585 -42 CURVE SMOOTH",
"585 505 LINE",
"459 505 LINE",
"459 -17 LINE SMOOTH",
"459 -78 OFFCURVE",
"458 -101 OFFCURVE",
"394 -102 CURVE",
"394 -190 LINE"
);
}
);
width = 640;
}
);
leftMetricsKey = H;
rightMetricsKey = H;
unicode = 014A;
},
{
color = 10;
glyphname = O;
lastChange = "2025-02-18 10:33:15 +0000";
layers = (
{
anchors = (
{
name = bottom;
position = "{275, 0}";
},
{
name = center;
position = "{280, 364}";
},
{
name = ogonek;
position = "{497, 10}";
},
{
name = top;
position = "{275, 727}";
},
{
name = topleft;
position = "{28, 727}";
},
{
name = topright;
position = "{531, 727}";
}
);
layerId = m01;
paths = (
{
closed = 1;
nodes = (
"427 -10 OFFCURVE",
"514 77 OFFCURVE",
"514 228 CURVE SMOOTH",
"514 498 LINE SMOOTH",
"514 657 OFFCURVE",
"433 737 OFFCURVE",
"275 737 CURVE SMOOTH",
"119 737 OFFCURVE",
"45 658 OFFCURVE",
"45 498 CURVE SMOOTH",
"45 228 LINE SMOOTH",
"45 73 OFFCURVE",
"126 -10 OFFCURVE",
"275 -10 CURVE SMOOTH"
);
},
{
closed = 1;
nodes = (
"200 81 OFFCURVE",
"171 140 OFFCURVE",
"171 246 CURVE SMOOTH",
"171 480 LINE SMOOTH",
"171 585 OFFCURVE",
"202 646 OFFCURVE",
"275 646 CURVE SMOOTH",
"355 646 OFFCURVE",
"388 586 OFFCURVE",
"388 480 CURVE SMOOTH",
"388 246 LINE SMOOTH",
"388 145 OFFCURVE",
"352 81 OFFCURVE",
"275 81 CURVE SMOOTH"
);
}
);
vertWidth = 1200;
width = 559;
}
);
leftKerningGroup = O;
note = O;
rightKerningGroup = O;
unicode = 004F;
},
{
color = 10;
glyphname = Oslash;
lastChange = "2025-02-18 11:15:28 +0000";
layers = (
{
components = (
{
name = O;
}
);
layerId = m01;
paths = (
{
closed = 1;
nodes = (
"114 -50 LINE",
"183 -50 LINE",
"449 777 LINE",
"380 777 LINE"
);
}
);
width = 559;
}
);
leftKerningGroup = O;
leftMetricsKey = O;
rightKerningGroup = O;
rightMetricsKey = O;
unicode = 00D8;
},
{
glyphname = OE;
lastChange = "2025-02-18 11:18:34 +0000";
layers = (
{
background = {
paths = (
{
closed = 1;
nodes = (
"315 -10 OFFCURVE",
"361 12 OFFCURVE",
"388 54 CURVE",
"388 54 LINE",
"388 0 LINE",
"748 0 LINE",
"748 70 LINE",
"464 70 LINE",
"464 336 LINE",
"721 336 LINE",
"721 406 LINE",
"464 406 LINE",
"464 657 LINE",
"745 657 LINE",
"745 727 LINE",
"388 727 LINE",
"388 680 LINE",
"388 680 LINE",
"362 717 OFFCURVE",
"317 737 OFFCURVE",
"240 737 CURVE SMOOTH",
"104 737 OFFCURVE",
"45 657 OFFCURVE",
"45 510 CURVE SMOOTH",
"45 216 LINE SMOOTH",
"45 75 OFFCURVE",
"110 -10 OFFCURVE",
"240 -10 CURVE SMOOTH"
);
},
{
closed = 1;
nodes = (
"121 512 LINE SMOOTH",
"121 615 OFFCURVE",
"153 670 OFFCURVE",
"250 670 CURVE SMOOTH",
"350 670 OFFCURVE",
"388 620 OFFCURVE",
"388 512 CURVE SMOOTH",
"388 214 LINE SMOOTH",
"388 110 OFFCURVE",
"346 57 OFFCURVE",
"250 57 CURVE SMOOTH",
"152 57 OFFCURVE",
"121 110 OFFCURVE",
"121 214 CURVE SMOOTH"
);
}
);
};
components = (
{
alignment = -1;
name = E;
transform = "{1, 0, 0, 1, 333, 0}";
}
);
layerId = m01;
paths = (
{
closed = 1;
nodes = (
"376 -10 OFFCURVE",
"434 77 OFFCURVE",
"434 228 CURVE SMOOTH",
"434 498 LINE SMOOTH",
"434 657 OFFCURVE",
"380 737 OFFCURVE",
"245 737 CURVE SMOOTH",
"119 737 OFFCURVE",
"45 658 OFFCURVE",
"45 498 CURVE SMOOTH",
"45 228 LINE SMOOTH",
"45 73 OFFCURVE",
"126 -10 OFFCURVE",
"245 -10 CURVE SMOOTH"
);
},
{
closed = 1;
nodes = (
"200 81 OFFCURVE",
"171 140 OFFCURVE",
"171 246 CURVE SMOOTH",
"171 480 LINE SMOOTH",
"171 585 OFFCURVE",
"202 646 OFFCURVE",
"275 646 CURVE SMOOTH",
"355 646 OFFCURVE",
"388 586 OFFCURVE",
"388 480 CURVE SMOOTH",
"388 246 LINE SMOOTH",
"388 145 OFFCURVE",
"352 81 OFFCURVE",
"275 81 CURVE SMOOTH"
);
}
);
width = 823;
}
);
leftKerningGroup = O;
leftMetricsKey = O;
rightMetricsKey = E;
unicode = 0152;
},
{
color = 10;
glyphname = P;
lastChange = "2025-02-18 10:33:15 +0000";
layers = (
{
anchors = (
{
name = bottom;
position = "{247, 0}";
},
{
name = top;
position = "{247, 727}";
}
);
layerId = m01;
paths = (
{
closed = 1;
nodes = (
"181 0 LINE",
"181 323 LINE",
"271 323 LINE SMOOTH",
"414 323 OFFCURVE",
"488 390 OFFCURVE",
"488 523 CURVE SMOOTH",
"488 657 OFFCURVE",
"413 727 OFFCURVE",
"272 727 CURVE SMOOTH",
"55 727 LINE",
"55 0 LINE"
);
},
{
closed = 1;
nodes = (
"181 632 LINE",
"249 632 LINE SMOOTH",
"330 632 OFFCURVE",
"362 602 OFFCURVE",
"362 522 CURVE SMOOTH",
"362 444 OFFCURVE",
"332 418 OFFCURVE",
"249 418 CURVE SMOOTH",
"181 418 LINE"
);
}
);
vertWidth = 1200;
width = 513;
}
);
leftMetricsKey = H;
note = P;
rightKerningGroup = P;
rightMetricsKey = L;
unicode = 0050;
},
{
color = 10;
glyphname = Thorn;
lastChange = "2025-02-18 11:13:39 +0000";
layers = (
{
layerId = m01;
paths = (
{
closed = 1;
nodes = (
"181 0 LINE",
"181 183 LINE",
"271 183 LINE SMOOTH",
"414 183 OFFCURVE",
"488 250 OFFCURVE",
"488 383 CURVE SMOOTH",
"488 517 OFFCURVE",
"413 587 OFFCURVE",
"272 587 CURVE SMOOTH",
"55 587 LINE",
"55 0 LINE"
);
},
{
closed = 1;
nodes = (
"181 492 LINE",
"249 492 LINE SMOOTH",
"330 492 OFFCURVE",
"362 462 OFFCURVE",
"362 382 CURVE SMOOTH",
"362 304 OFFCURVE",
"332 278 OFFCURVE",
"249 278 CURVE SMOOTH",
"181 278 LINE"
);
},
{
closed = 1;
nodes = (
"55 456 LINE",
"181 456 LINE",
"181 727 LINE",
"55 727 LINE"
);
}
);
width = 513;
}
);
leftMetricsKey = H;
rightKerningGroup = P;
rightMetricsKey = L;
unicode = 00DE;
},
{
color = 10;
glyphname = Q;
lastChange = "2025-02-18 10:33:15 +0000";
layers = (
{
anchors = (
{
name = bottom;
position = "{275, 0}";
},
{
name = top;
position = "{275, 727}";
}
);
background = {
paths = (
{
closed = 1;
nodes = (
"395 0 OFFCURVE",
"489 94 OFFCURVE",
"489 236 CURVE SMOOTH",
"489 510 LINE SMOOTH",
"489 659 OFFCURVE",
"422 737 OFFCURVE",
"275 737 CURVE SMOOTH",
"129 737 OFFCURVE",
"70 657 OFFCURVE",
"70 510 CURVE SMOOTH",
"70 226 LINE SMOOTH",
"70 85 OFFCURVE",
"135 0 OFFCURVE",
"275 0 CURVE SMOOTH"
);
},
{
closed = 1;
nodes = (
"177 67 OFFCURVE",
"146 120 OFFCURVE",
"146 224 CURVE SMOOTH",
"146 512 LINE SMOOTH",
"146 615 OFFCURVE",
"178 670 OFFCURVE",
"275 670 CURVE SMOOTH",
"375 670 OFFCURVE",
"413 620 OFFCURVE",
"413 512 CURVE SMOOTH",
"413 224 LINE SMOOTH",
"413 120 OFFCURVE",
"371 67 OFFCURVE",
"275 67 CURVE SMOOTH"
);
},
{
closed = 1;
nodes = (
"310 0 OFFCURVE",
"359 0 OFFCURVE",
"538 0 CURVE",
"538 65 LINE",
"504 65 OFFCURVE",
"452 58 OFFCURVE",
"405 46 CURVE",
"275 0 LINE"
);
},
{
closed = 1;
nodes = (
"404 30 LINE",
"417 30 LINE",
"417 65 LINE",
"404 65 LINE"
);
}
);
};
layerId = m01;
paths = (
{
closed = 1;
nodes = (
"563 0 LINE",
"563 87 LINE",
"533 92 OFFCURVE",
"457 85 OFFCURVE",
"401 63 CURVE",
"402 61 LINE",
"402 76 LINE",
"451 105 OFFCURVE",
"514 164 OFFCURVE",
"514 268 CURVE SMOOTH",
"514 498 LINE SMOOTH",
"514 657 OFFCURVE",
"433 737 OFFCURVE",
"275 737 CURVE SMOOTH",
"119 737 OFFCURVE",
"45 658 OFFCURVE",
"45 498 CURVE SMOOTH",
"45 238 LINE SMOOTH",
"45 83 OFFCURVE",
"126 0 OFFCURVE",
"275 0 CURVE SMOOTH"
);
},
{
closed = 1;
nodes = (
"171 480 LINE SMOOTH",
"171 585 OFFCURVE",
"202 646 OFFCURVE",
"275 646 CURVE SMOOTH",
"355 646 OFFCURVE",
"388 586 OFFCURVE",
"388 480 CURVE SMOOTH",
"388 256 LINE SMOOTH",
"388 155 OFFCURVE",
"352 91 OFFCURVE",
"275 91 CURVE SMOOTH",
"200 91 OFFCURVE",
"171 150 OFFCURVE",
"171 256 CURVE SMOOTH"
);
}
);
vertWidth = 1200;
width = 588;
}
);
leftKerningGroup = O;
leftMetricsKey = O;
note = Q;
rightMetricsKey = L;
unicode = 0051;
},
{
color = 10;
glyphname = R;
lastChange = "2025-02-18 10:33:15 +0000";
layers = (
{
anchors = (
{
name = bottom;
position = "{278, 0}";
},
{
name = top;
position = "{251, 727}";
}
);
background = {
paths = (
{
closed = 1;
nodes = (
"223 333 LINE",
"307 333 OFFCURVE",
"345 319 OFFCURVE",
"358 281 CURVE SMOOTH",
"365 255 OFFCURVE",
"369 225 OFFCURVE",
"374 149 CURVE SMOOTH",
"379 59 OFFCURVE",
"383 27 OFFCURVE",
"394 0 CURVE",
"481 0 LINE",
"463 42 OFFCURVE",
"457 71 OFFCURVE",
"455 129 CURVE SMOOTH",
"449 323 OFFCURVE",
"435 355 OFFCURVE",
"343 375 CURVE"
);
},
{
closed = 1;
nodes = (
"156 0 LINE",
"156 371 LINE",
"271 371 LINE SMOOTH",
"380 371 OFFCURVE",
"463 389 OFFCURVE",
"463 523 CURVE SMOOTH",
"463 659 OFFCURVE",
"398 727 OFFCURVE",
"272 727 CURVE SMOOTH",
"80 727 LINE",
"80 0 LINE"
);
},
{
closed = 1;
nodes = (
"156 656 LINE",
"249 656 LINE SMOOTH",
"345 656 OFFCURVE",
"387 616 OFFCURVE",
"387 522 CURVE SMOOTH",
"387 430 OFFCURVE",
"346 394 OFFCURVE",
"249 394 CURVE SMOOTH",
"156 394 LINE"
);
},
{
closed = 1;
nodes = (
"149 333 LINE",
"353 333 LINE",
"353 382 LINE",
"149 382 LINE"
);
}
);
};
layerId = m01;
paths = (
{
closed = 1;
nodes = (
"181 0 LINE",
"181 321 LINE",
"223 321 LINE SMOOTH",
"299 321 OFFCURVE",
"321 313 OFFCURVE",
"333 280 CURVE",
"340 258 OFFCURVE",
"345 227 OFFCURVE",
"349 158 CURVE SMOOTH",
"354 64 OFFCURVE",
"361 34 OFFCURVE",
"379 0 CURVE",
"512 0 LINE",
"490 45 OFFCURVE",
"482 80 OFFCURVE",
"480 139 CURVE SMOOTH",
"474 301 OFFCURVE",
"443 349 OFFCURVE",
"374 374 CURVE",
"439 395 OFFCURVE",
"488 440 OFFCURVE",
"488 517 CURVE SMOOTH",
"488 651 OFFCURVE",
"413 727 OFFCURVE",
"272 727 CURVE SMOOTH",
"55 727 LINE",
"55 0 LINE"
);
},
{
closed = 1;
nodes = (
"181 632 LINE",
"249 632 LINE SMOOTH",
"330 632 OFFCURVE",
"362 597 OFFCURVE",
"362 516 CURVE SMOOTH",
"362 434 OFFCURVE",
"332 406 OFFCURVE",
"249 406 CURVE SMOOTH",
"181 406 LINE"
);
}
);
vertWidth = 1200;
width = 557;
}
);
leftMetricsKey = H;
note = R;
rightKerningGroup = R;
rightMetricsKey = O;
unicode = 0052;
},
{
color = 10;
glyphname = S;
lastChange = "2025-02-18 12:26:03 +0000";
layers = (
{
anchors = (
{
name = bottom;
position = "{271, 0}";
},
{
name = top;
position = "{271, 727}";
}
);
background = {
paths = (
{
closed = 1;
nodes = (
"402 -10 OFFCURVE",
"480 60 OFFCURVE",
"480 186 CURVE SMOOTH",
"480 424 OFFCURVE",
"150 387 OFFCURVE",
"150 559 CURVE SMOOTH",
"150 628 OFFCURVE",
"198 670 OFFCURVE",
"272 670 CURVE SMOOTH",
"354 670 OFFCURVE",
"394 626 OFFCURVE",
"394 539 CURVE SMOOTH",
"394 519 LINE",
"475 519 LINE",
"476 540 LINE SMOOTH",
"482 672 OFFCURVE",
"404 737 OFFCURVE",
"272 737 CURVE SMOOTH",
"149 737 OFFCURVE",
"74 669 OFFCURVE",
"74 551 CURVE SMOOTH",
"74 322 OFFCURVE",
"404 354 OFFCURVE",
"404 179 CURVE SMOOTH",
"404 103 OFFCURVE",
"351 57 OFFCURVE",
"267 57 CURVE SMOOTH",
"174 57 OFFCURVE",
"136 103 OFFCURVE",
"136 209 CURVE SMOOTH",
"136 239 LINE",
"55 239 LINE",
"53 198 LINE",
"54 57 OFFCURVE",
"127 -10 OFFCURVE",
"269 -10 CURVE SMOOTH"
);
}
);
};
layerId = m01;
paths = (
{
closed = 1;
nodes = (
"417 -10 OFFCURVE",
"508 67 OFFCURVE",
"505 198 CURVE SMOOTH",
"500 444 OFFCURVE",
"175 407 OFFCURVE",
"175 547 CURVE SMOOTH",
"175 610 OFFCURVE",
"211 646 OFFCURVE",
"272 646 CURVE SMOOTH",
"338 646 OFFCURVE",
"369 613 OFFCURVE",
"369 537 CURVE SMOOTH",
"369 515 LINE",
"494 515 LINE",
"495 525 OFFCURVE",
"495 525 OFFCURVE",
"495 535 CURVE SMOOTH",
"495 670 OFFCURVE",
"431 737 OFFCURVE",
"272 737 CURVE SMOOTH",
"134 737 OFFCURVE",
"49 662 OFFCURVE",
"49 539 CURVE SMOOTH",
"49 298 OFFCURVE",
"379 335 OFFCURVE",
"379 191 CURVE SMOOTH",
"379 121 OFFCURVE",
"338 81 OFFCURVE",
"267 81 CURVE SMOOTH",
"192 81 OFFCURVE",
"161 116 OFFCURVE",
"161 211 CURVE SMOOTH",
"161 243 LINE",
"35 243 LINE",
"32 63 OFFCURVE",
"95 -10 OFFCURVE",
"279 -10 CURVE SMOOTH"
);
}
);
vertWidth = 1200;
width = 540;
}
);
leftKerningGroup = S;
note = S;
rightKerningGroup = S;
unicode = 0053;
},
{
color = 10;
glyphname = T;
lastChange = "2025-02-18 10:33:15 +0000";
layers = (
{
anchors = (
{
name = bottom;
position = "{277, 0}";
},
{
name = center;
position = "{272, 364}";
},
{
name = top;
position = "{277, 727}";
}
);
layerId = m01;
paths = (
{
closed = 1;
nodes = (
"340 0 LINE",
"340 633 LINE",
"529 633 LINE",
"529 727 LINE",
"25 727 LINE",
"25 633 LINE",
"214 633 LINE",
"214 0 LINE"
);
}
);
vertWidth = 1200;
width = 554;
}
);
leftKerningGroup = T;
leftMetricsKey = J;
note = T;
rightKerningGroup = T;
rightMetricsKey = L;
unicode = 0054;
},
{
color = 10;
glyphname = Tbar;
lastChange = "2025-02-18 11:14:30 +0000";
layers = (
{
components = (
{
name = T;
}
);
layerId = m01;
paths = (
{
closed = 1;
nodes = (
"114 366 LINE",
"440 366 LINE",
"440 442 LINE",
"114 442 LINE"
);
}
);
width = 554;
}
);
leftKerningGroup = T;
leftMetricsKey = T;
rightKerningGroup = T;
rightMetricsKey = T;
unicode = 0166;
},
{
color = 10;
glyphname = U;
lastChange = "2025-02-18 10:33:15 +0000";
layers = (
{
anchors = (
{
name = bottom;
position = "{275, 0}";
},
{
name = ogonek;
position = "{312, 0}";
},
{
name = top;
position = "{275, 727}";
},
{
name = topright;
position = "{529, 727}";
}
);
layerId = m01;
paths = (
{
closed = 1;
nodes = (
"388 246 LINE SMOOTH",
"388 145 OFFCURVE",
"352 81 OFFCURVE",
"275 81 CURVE SMOOTH",
"200 81 OFFCURVE",
"171 140 OFFCURVE",
"171 246 CURVE SMOOTH",
"171 727 LINE",
"45 727 LINE",
"45 228 LINE SMOOTH",
"45 73 OFFCURVE",
"126 -10 OFFCURVE",
"275 -10 CURVE SMOOTH",
"427 -10 OFFCURVE",
"514 77 OFFCURVE",
"514 228 CURVE SMOOTH",
"514 727 LINE",
"388 727 LINE"
);
}
);
vertWidth = 1200;
width = 559;
}
);
leftKerningGroup = U;
leftMetricsKey = O;
note = U;
rightKerningGroup = J;
rightMetricsKey = O;
unicode = 0055;
},
{
color = 10;
glyphname = V;
lastChange = "2025-02-18 10:33:15 +0000";
layers = (
{
anchors = (
{
name = bottom;
position = "{277, 0}";
},
{
name = top;
position = "{277, 727}";
}
);
layerId = m01;
paths = (
{
closed = 1;
nodes = (
"357 0 LINE",
"545 727 LINE",
"415 727 LINE",
"279 130 LINE",
"140 727 LINE",
"10 727 LINE",
"198 0 LINE"
);
}
);
vertWidth = 1200;
width = 555;
}
);
leftKerningGroup = V;
note = V;
rightKerningGroup = V;
unicode = 0056;
},
{
color = 10;
glyphname = W;
lastChange = "2025-02-18 10:33:15 +0000";
layers = (
{
anchors = (
{
name = bottom;
position = "{432, 0}";
},
{
name = top;
position = "{440, 727}";
}
);
layerId = m01;
paths = (
{
closed = 1;
nodes = (
"322 0 LINE",
"437 611 LINE",
"542 0 LINE",
"699 0 LINE",
"853 727 LINE",
"730 727 LINE",
"624 166 LINE",
"526 727 LINE",
"354 727 LINE",
"247 162 LINE",
"140 727 LINE",
"10 727 LINE",
"164 0 LINE"
);
}
);
vertWidth = 1200;
width = 863;
}
);
leftKerningGroup = V;
leftMetricsKey = V;
note = W;
rightKerningGroup = V;
rightMetricsKey = V;
unicode = 0057;
},
{
color = 10;
glyphname = X;
lastChange = "2025-02-18 10:33:15 +0000";
layers = (
{
anchors = (
{
name = bottom;
position = "{269, 0}";
},
{
name = top;
position = "{269, 727}";
}
);
layerId = m01;
paths = (
{
closed = 1;
nodes = (
"143 0 LINE",
"270 245 LINE",
"396 0 LINE",
"530 0 LINE",
"337 364 LINE",
"530 727 LINE",
"396 727 LINE",
"270 482 LINE",
"143 727 LINE",
"10 727 LINE",
"203 364 LINE",
"10 0 LINE"
);
}
);
vertWidth = 1200;
width = 540;
}
);
leftKerningGroup = X;
leftMetricsKey = V;
note = X;
rightKerningGroup = X;
rightMetricsKey = V;
unicode = 0058;
},
{
color = 10;
glyphname = Y;
lastChange = "2025-02-18 10:33:15 +0000";
layers = (
{
anchors = (
{
name = bottom;
position = "{249, 0}";
},
{
name = top;
position = "{249, 727}";
},
{
name = topleft;
position = "{40, 727}";
}
);
layerId = m01;
paths = (
{
closed = 1;
nodes = (
"312 0 LINE",
"312 301 LINE",
"493 727 LINE",
"361 727 LINE",
"249 427 LINE",
"136 727 LINE",
"5 727 LINE",
"186 301 LINE",
"186 0 LINE"
);
}
);
vertWidth = 1200;
width = 498;
}
);
leftKerningGroup = V;
leftMetricsKey = "=V/2";
note = Y;
rightKerningGroup = V;
rightMetricsKey = "=V/2";
unicode = 0059;
},
{
color = 10;
glyphname = Z;
lastChange = "2025-02-18 10:33:15 +0000";
layers = (
{
anchors = (
{
name = bottom;
position = "{273, 0}";
},
{
name = center;
position = "{271, 364}";
},
{
name = top;
position = "{278, 727}";
}
);
layerId = m01;
paths = (
{
closed = 1;
nodes = (
"510 0 LINE",
"510 94 LINE",
"188 94 LINE",
"188 89 LINE",
"510 643 LINE",
"510 727 LINE",
"46 727 LINE",
"46 633 LINE",
"357 633 LINE",
"357 638 LINE",
"35 91 LINE",
"35 0 LINE"
);
}
);
vertWidth = 1200;
width = 545;
}
);
leftKerningGroup = Z;
leftMetricsKey = S;
note = Z;
rightKerningGroup = Z;
rightMetricsKey = S;
unicode = 005A;
},
{
color = 10;
glyphname = a;
lastChange = "2025-02-19 08:54:50 +0000";
layers = (
{
anchors = (
{
name = ogonek;
position = "{391, 0}";
},
{
name = top;
position = "{240, 505}";
}
);
background = {
components = (
{
name = _part.bowl;
transform = "{-1, 0, 0, 1, 443, 0}";
}
);
};
layerId = m01;
paths = (
{
closed = 1;
nodes = (
"252 -10 OFFCURVE",
"286 26 OFFCURVE",
"305 60 CURVE",
"315 0 LINE",
"431 0 LINE",
"431 325 LINE SMOOTH",
"431 463 OFFCURVE",
"383 515 OFFCURVE",
"240 515 CURVE SMOOTH",
"115 515 OFFCURVE",
"43 451 OFFCURVE",
"46 337 CURVE",
"172 337 LINE",
"172 411 OFFCURVE",
"190 436 OFFCURVE",
"238 436 CURVE SMOOTH",
"285 436 OFFCURVE",
"305 412 OFFCURVE",
"305 349 CURVE SMOOTH",
"305 316 LINE",
"258 316 LINE SMOOTH",
"124 316 OFFCURVE",
"35 256 OFFCURVE",
"35 151 CURVE SMOOTH",
"35 50 OFFCURVE",
"86 -10 OFFCURVE",
"179 -10 CURVE SMOOTH"
);
},
{
closed = 1;
nodes = (
"182 79 OFFCURVE",
"161 120 OFFCURVE",
"161 152 CURVE SMOOTH",
"161 218 OFFCURVE",
"197 246 OFFCURVE",
"262 246 CURVE SMOOTH",
"305 246 LINE",
"303 127 OFFCURVE",
"294 79 OFFCURVE",
"233 79 CURVE SMOOTH"
);
}
);
vertWidth = 1200;
width = 481;
}
);
leftKerningGroup = o;
leftMetricsKey = o;
note = a;
rightKerningGroup = n;
rightMetricsKey = n;
unicode = 0061;
},
{
color = 10;
glyphname = ae;
lastChange = "2025-02-18 12:14:28 +0000";
layers = (
{
layerId = m01;
paths = (
{
closed = 1;
nodes = (
"716 298 LINE SMOOTH",
"716 437 OFFCURVE",
"641 515 OFFCURVE",
"508 515 CURVE SMOOTH",
"456 515 OFFCURVE",
"408 493 OFFCURVE",
"380 450 CURVE",
"355 495 OFFCURVE",
"305 515 OFFCURVE",
"240 515 CURVE SMOOTH",
"115 515 OFFCURVE",
"43 451 OFFCURVE",
"46 337 CURVE",
"172 337 LINE",
"172 411 OFFCURVE",
"190 436 OFFCURVE",
"238 436 CURVE SMOOTH",
"285 436 OFFCURVE",
"305 412 OFFCURVE",
"305 349 CURVE SMOOTH",
"305 299 LINE",
"258 299 LINE SMOOTH",
"124 299 OFFCURVE",
"35 245 OFFCURVE",
"35 151 CURVE SMOOTH",
"35 50 OFFCURVE",
"86 -10 OFFCURVE",
"179 -10 CURVE SMOOTH",
"271 -10 OFFCURVE",
"316 27 OFFCURVE",
"342 63 CURVE",
"375 15 OFFCURVE",
"431 -10 OFFCURVE",
"508 -10 CURVE SMOOTH",
"627 -10 OFFCURVE",
"698 50 OFFCURVE",
"713 159 CURVE",
"587 159 LINE",
"578 81 OFFCURVE",
"549 69 OFFCURVE",
"508 69 CURVE SMOOTH",
"459 69 OFFCURVE",
"431 116 OFFCURVE",
"431 203 CURVE SMOOTH",
"431 229 LINE",
"716 229 LINE"
);
},
{
closed = 1;
nodes = (
"161 206 OFFCURVE",
"197 229 OFFCURVE",
"262 229 CURVE SMOOTH",
"305 229 LINE",
"303 122 OFFCURVE",
"294 79 OFFCURVE",
"233 79 CURVE SMOOTH",
"182 79 OFFCURVE",
"161 120 OFFCURVE",
"161 152 CURVE SMOOTH"
);
},
{
closed = 1;
nodes = (
"431 386 OFFCURVE",
"460 436 OFFCURVE",
"508 436 CURVE SMOOTH",
"558 436 OFFCURVE",
"590 384 OFFCURVE",
"590 299 CURVE",
"431 299 LINE"
);
}
);
width = 751;
}
);
leftKerningGroup = o;
leftMetricsKey = a;
rightKerningGroup = o;
rightMetricsKey = e;
unicode = 00E6;
},
{
color = 10;
glyphname = b;
lastChange = "2025-02-19 08:55:37 +0000";
layers = (
{
anchors = (
{
name = bottom;
position = "{240, 0}";
},
{
name = top;
position = "{240, 505}";
}
);
layerId = m01;
paths = (
{
closed = 1;
nodes = (
"50 0 LINE",
"166 0 LINE",
"176 58 LINE",
"205 15 OFFCURVE",
"247 -10 OFFCURVE",
"308 -10 CURVE SMOOTH",
"411 -10 OFFCURVE",
"451 63 OFFCURVE",
"451 204 CURVE SMOOTH",
"451 298 LINE SMOOTH",
"451 440 OFFCURVE",
"411 515 OFFCURVE",
"308 515 CURVE SMOOTH",
"247 515 OFFCURVE",
"205 489 OFFCURVE",
"176 445 CURVE",
"176 727 LINE",
"50 727 LINE"
);
},
{
closed = 1;
nodes = (
"176 278 LINE",
"176 371 OFFCURVE",
"194 436 OFFCURVE",
"248 436 CURVE SMOOTH",
"299 436 OFFCURVE",
"325 388 OFFCURVE",
"325 288 CURVE SMOOTH",
"325 213 LINE SMOOTH",
"325 114 OFFCURVE",
"300 69 OFFCURVE",
"248 69 CURVE SMOOTH",
"193 69 OFFCURVE",
"176 129 OFFCURVE",
"176 223 CURVE SMOOTH"
);
}
);
vertWidth = 1200;
width = 486;
}
);
leftMetricsKey = n;
note = b;
rightKerningGroup = o;
rightMetricsKey = o;
unicode = 0062;
},
{
color = 10;
glyphname = c;
lastChange = "2025-02-18 10:33:15 +0000";
layers = (
{
anchors = (
{
name = bottom;
position = "{238, 0}";
},
{
name = top;
position = "{238, 505}";
}
);
background = {
paths = (
{
closed = 1;
nodes = (
"346 86 OFFCURVE",
"315 45 OFFCURVE",
"255 45 CURVE SMOOTH",
"185 45 OFFCURVE",
"156 101 OFFCURVE",
"156 191 CURVE SMOOTH",
"156 310 LINE SMOOTH",
"156 400 OFFCURVE",
"188 460 OFFCURVE",
"258 460 CURVE SMOOTH",
"317 460 OFFCURVE",
"335 418 OFFCURVE",
"343 350 CURVE",
"419 350 LINE",
"409 455 OFFCURVE",
"365 515 OFFCURVE",
"258 515 CURVE SMOOTH",
"138 515 OFFCURVE",
"80 440 OFFCURVE",
"80 310 CURVE SMOOTH",
"80 192 LINE SMOOTH",
"80 62 OFFCURVE",
"135 -10 OFFCURVE",
"255 -10 CURVE SMOOTH",
"363 -10 OFFCURVE",
"419 48 OFFCURVE",
"429 154 CURVE",
"353 154 LINE"
);
}
);
};
layerId = m01;
paths = (
{
closed = 1;
nodes = (
"313 88 OFFCURVE",
"283 69 OFFCURVE",
"238 69 CURVE SMOOTH",
"189 69 OFFCURVE",
"161 116 OFFCURVE",
"161 203 CURVE SMOOTH",
"161 298 LINE SMOOTH",
"161 386 OFFCURVE",
"185 436 OFFCURVE",
"233 436 CURVE SMOOTH",
"276 436 OFFCURVE",
"303 416 OFFCURVE",
"309 328 CURVE",
"435 328 LINE",
"445 448 OFFCURVE",
"365 515 OFFCURVE",
"238 515 CURVE SMOOTH",
"106 515 OFFCURVE",
"35 439 OFFCURVE",
"35 298 CURVE SMOOTH",
"35 204 LINE SMOOTH",
"35 64 OFFCURVE",
"103 -10 OFFCURVE",
"238 -10 CURVE SMOOTH",
"373 -10 OFFCURVE",
"445 56 OFFCURVE",
"445 176 CURVE",
"319 176 LINE"
);
}
);
vertWidth = 1200;
width = 480;
}
);
leftKerningGroup = o;
leftMetricsKey = o;
note = c;
rightKerningGroup = o;
rightMetricsKey = o;
unicode = 0063;
},
{
color = 10;
glyphname = d;
lastChange = "2025-02-19 08:55:52 +0000";
layers = (
{
anchors = (
{
name = bottom;
position = "{247, 0}";
},
{
name = center;
position = "{247, 253}";
},
{
name = top;
position = "{247, 505}";
},
{
name = topright;
position = "{479, 505}";
}
);
layerId = m01;
paths = (
{
closed = 1;
nodes = (
"310 445 LINE",
"281 489 OFFCURVE",
"239 515 OFFCURVE",
"178 515 CURVE SMOOTH",
"75 515 OFFCURVE",
"35 440 OFFCURVE",
"35 298 CURVE SMOOTH",
"35 204 LINE SMOOTH",
"35 63 OFFCURVE",
"75 -10 OFFCURVE",
"178 -10 CURVE SMOOTH",
"239 -10 OFFCURVE",
"281 15 OFFCURVE",
"310 58 CURVE",
"320 0 LINE",
"436 0 LINE",
"436 727 LINE",
"310 727 LINE"
);
},
{
closed = 1;
nodes = (
"161 288 LINE SMOOTH",
"161 388 OFFCURVE",
"187 436 OFFCURVE",
"238 436 CURVE SMOOTH",
"292 436 OFFCURVE",
"310 371 OFFCURVE",
"310 278 CURVE SMOOTH",
"310 223 LINE SMOOTH",
"310 129 OFFCURVE",
"293 69 OFFCURVE",
"238 69 CURVE SMOOTH",
"186 69 OFFCURVE",
"161 114 OFFCURVE",
"161 213 CURVE SMOOTH"
);
}
);
vertWidth = 1200;
width = 486;
}
);
leftKerningGroup = o;
leftMetricsKey = o;
note = d;
unicode = 0064;
},
{
glyphname = eth;
lastChange = "2025-02-18 15:54:35 +0000";
layers = (
{
background = {
paths = (
{
closed = 1;
nodes = (
"136 576 LINE",
"427 726 LINE",
"427 792 LINE",
"136 642 LINE"
);
},
{
closed = 1;
nodes = (
"372 -10 OFFCURVE",
"446 66 OFFCURVE",
"446 204 CURVE SMOOTH",
"446 298 LINE SMOOTH",
"446 437 OFFCURVE",
"371 515 OFFCURVE",
"238 515 CURVE SMOOTH",
"106 515 OFFCURVE",
"35 439 OFFCURVE",
"35 298 CURVE SMOOTH",
"35 204 LINE SMOOTH",
"35 64 OFFCURVE",
"106 -10 OFFCURVE",
"238 -10 CURVE SMOOTH"
);
},
{
closed = 1;
nodes = (
"189 69 OFFCURVE",
"161 116 OFFCURVE",
"161 203 CURVE SMOOTH",
"161 298 LINE SMOOTH",
"161 386 OFFCURVE",
"190 436 OFFCURVE",
"238 436 CURVE SMOOTH",
"288 436 OFFCURVE",
"320 384 OFFCURVE",
"320 298 CURVE SMOOTH",
"320 203 LINE SMOOTH",
"320 118 OFFCURVE",
"289 69 OFFCURVE",
"238 69 CURVE SMOOTH"
);
}
);
};
layerId = m01;
paths = (
{
closed = 1;
nodes = (
"210 704 OFFCURVE",
"319 608 OFFCURVE",
"308 466 CURVE",
"282 503 OFFCURVE",
"250 515 OFFCURVE",
"213 515 CURVE SMOOTH",
"105 515 OFFCURVE",
"35 433 OFFCURVE",
"35 298 CURVE SMOOTH",
"35 204 LINE SMOOTH",
"35 62 OFFCURVE",
"102 -10 OFFCURVE",
"233 -10 CURVE SMOOTH",
"365 -10 OFFCURVE",
"436 64 OFFCURVE",
"436 204 CURVE SMOOTH",
"436 297 LINE SMOOTH",
"436 581 OFFCURVE",
"396 739 OFFCURVE",
"121 771 CURVE",
"81 707 LINE"
);
},
{
closed = 1;
nodes = (
"161 288 LINE SMOOTH",
"161 378 OFFCURVE",
"182 436 OFFCURVE",
"238 436 CURVE SMOOTH",
"292 436 OFFCURVE",
"317 381 OFFCURVE",
"317 288 CURVE SMOOTH",
"317 203 LINE SMOOTH",
"317 116 OFFCURVE",
"282 69 OFFCURVE",
"233 69 CURVE SMOOTH",
"186 69 OFFCURVE",
"161 114 OFFCURVE",
"161 203 CURVE SMOOTH"
);
},
{
closed = 1;
nodes = (
"126 556 LINE",
"417 706 LINE",
"417 782 LINE",
"126 632 LINE"
);
}
);
width = 471;
}
);
leftKerningGroup = o;
leftMetricsKey = o;
rightMetricsKey = o;
unicode = 00F0;
},
{
glyphname = dcroat;
lastChange = "2025-02-19 08:56:47 +0000";
layers = (
{
components = (
{
name = d;
}
);
layerId = m01;
paths = (
{
closed = 1;
nodes = (
"194 576 LINE",
"486 576 LINE",
"486 652 LINE",
"194 652 LINE"
);
}
);
width = 486;
}
);
leftKerningGroup = o;
leftMetricsKey = d;
unicode = 0111;
},
{
color = 10;
glyphname = e;
lastChange = "2025-02-18 10:33:15 +0000";
layers = (
{
anchors = (
{
name = bottom;
position = "{238, 0}";
},
{
name = ogonek;
position = "{274, 0}";
},
{
name = top;
position = "{238, 505}";
}
);
background = {
paths = (
{
closed = 1;
nodes = (
"396 310 LINE SMOOTH",
"396 440 OFFCURVE",
"333 515 OFFCURVE",
"213 515 CURVE SMOOTH",
"93 515 OFFCURVE",
"35 440 OFFCURVE",
"35 310 CURVE SMOOTH",
"35 192 LINE SMOOTH",
"35 62 OFFCURVE",
"93 -10 OFFCURVE",
"213 -10 CURVE SMOOTH",
"321 -10 OFFCURVE",
"383 49 OFFCURVE",
"394 155 CURVE",
"318 155 LINE",
"309 86 OFFCURVE",
"273 45 OFFCURVE",
"213 45 CURVE SMOOTH",
"143 45 OFFCURVE",
"111 101 OFFCURVE",
"111 191 CURVE SMOOTH",
"111 310 LINE SMOOTH",
"111 400 OFFCURVE",
"143 460 OFFCURVE",
"213 460 CURVE SMOOTH",
"283 460 OFFCURVE",
"320 400 OFFCURVE",
"320 310 CURVE SMOOTH",
"320 229 LINE",
"396 229 LINE"
);
},
{
closed = 1;
nodes = (
"90 229 LINE",
"396 229 LINE",
"396 284 LINE",
"90 284 LINE"
);
}
);
};
layerId = m01;
paths = (
{
closed = 1;
nodes = (
"446 298 LINE SMOOTH",
"446 437 OFFCURVE",
"371 515 OFFCURVE",
"238 515 CURVE SMOOTH",
"106 515 OFFCURVE",
"35 439 OFFCURVE",
"35 298 CURVE SMOOTH",
"35 204 LINE SMOOTH",
"35 64 OFFCURVE",
"106 -10 OFFCURVE",
"238 -10 CURVE SMOOTH",
"357 -10 OFFCURVE",
"428 50 OFFCURVE",
"443 159 CURVE",
"317 159 LINE",
"308 81 OFFCURVE",
"279 69 OFFCURVE",
"238 69 CURVE SMOOTH",
"189 69 OFFCURVE",
"161 116 OFFCURVE",
"161 203 CURVE SMOOTH",
"161 298 LINE SMOOTH",
"161 386 OFFCURVE",
"190 436 OFFCURVE",
"238 436 CURVE SMOOTH",
"288 436 OFFCURVE",
"320 384 OFFCURVE",
"320 298 CURVE SMOOTH",
"320 229 LINE",
"446 229 LINE"
);
},
{
closed = 1;
nodes = (
"90 229 LINE",
"417 229 LINE",
"417 299 LINE",
"90 299 LINE"
);
}
);
vertWidth = 1200;
width = 481;
}
);
leftKerningGroup = o;
leftMetricsKey = o;
note = e;
rightKerningGroup = o;
rightMetricsKey = o;
unicode = 0065;
},
{
color = 10;
glyphname = f;
lastChange = "2025-02-18 10:33:15 +0000";
layers = (
{
layerId = m01;
paths = (
{
closed = 1;
nodes = (
"222 0 LINE",
"222 426 LINE",
"318 426 LINE",
"318 505 LINE",
"222 505 LINE",
"222 582 LINE SMOOTH",
"222 649 OFFCURVE",
"253 644 OFFCURVE",
"324 644 CURVE",
"324 727 LINE",
"262 727 LINE SMOOTH",
"144 727 OFFCURVE",
"96 686 OFFCURVE",
"96 582 CURVE SMOOTH",
"96 505 LINE",
"15 505 LINE",
"15 426 LINE",
"96 426 LINE",
"96 0 LINE"
);
}
);
vertWidth = 1200;
width = 339;
}
);
note = f;
rightKerningGroup = f;
unicode = 0066;
},
{
color = 10;
glyphname = g;
lastChange = "2025-02-18 10:33:15 +0000";
layers = (
{
anchors = (
{
name = bottom;
position = "{243, 0}";
},
{
name = top;
position = "{243, 505}";
}
);
components = (
{
name = _part.bowl;
transform = "{-1, 0, 0, 1, 448, 0}";
}
);
layerId = m01;
paths = (
{
closed = 1;
nodes = (
"48 -149 OFFCURVE",
"113 -200 OFFCURVE",
"245 -200 CURVE SMOOTH",
"388 -200 OFFCURVE",
"436 -148 OFFCURVE",
"436 2 CURVE SMOOTH",
"436 517 LINE",
"310 517 LINE",
"310 -34 LINE SMOOTH",
"310 -97 OFFCURVE",
"290 -121 OFFCURVE",
"243 -121 CURVE SMOOTH",
"199 -121 OFFCURVE",
"174 -104 OFFCURVE",
"177 -46 CURVE",
"53 -46 LINE"
);
}
);
vertWidth = 1200;
width = 486;
}
);
leftKerningGroup = o;
leftMetricsKey = o;
note = g;
rightMetricsKey = d;
unicode = 0067;
},
{
color = 10;
glyphname = h;
lastChange = "2025-02-18 10:33:15 +0000";
layers = (
{
anchors = (
{
name = bottom;
position = "{272, 0}";
},
{
name = center;
position = "{272, 253}";
},
{
name = top;
position = "{272, 505}";
}
);
background = {
paths = (
{
closed = 1;
nodes = (
"176 0 LINE",
"176 312 LINE SMOOTH",
"176 419 OFFCURVE",
"200 456 OFFCURVE",
"269 456 CURVE SMOOTH",
"329 456 OFFCURVE",
"345 426 OFFCURVE",
"345 312 CURVE SMOOTH",
"345 0 LINE",
"421 0 LINE",
"421 310 LINE SMOOTH",
"421 460 OFFCURVE",
"389 511 OFFCURVE",
"293 511 CURVE SMOOTH",
"245 511 OFFCURVE",
"208 497 OFFCURVE",
"176 468 CURVE",
"176 727 LINE",
"100 727 LINE",
"100 0 LINE"
);
}
);
};
components = (
{
name = _part.shoulder;
transform = "{1, 0, 0, 1, 63, 0}";
}
);
layerId = m01;
paths = (
{
closed = 1;
nodes = (
"50 0 LINE",
"176 0 LINE",
"176 727 LINE",
"50 727 LINE"
);
}
);
vertWidth = 1200;
width = 496;
}
);
leftMetricsKey = n;
note = h;
rightKerningGroup = n;
rightMetricsKey = n;
unicode = 0068;
},
{
color = 10;
glyphname = hbar;
lastChange = "2025-02-18 12:15:41 +0000";
layers = (
{
components = (
{
name = h;
}
);
layerId = m01;
paths = (
{
closed = 1;
nodes = (
"0 576 LINE",
"292 576 LINE",
"292 652 LINE",
"0 652 LINE"
);
}
);
width = 496;
}
);
rightKerningGroup = n;
unicode = 0127;
},
{
color = 10;
glyphname = i;
lastChange = "2025-02-18 10:33:15 +0000";
layers = (
{
anchors = (
{
name = bottom;
position = "{113, 0}";
}
);
layerId = m01;
paths = (
{
closed = 1;
nodes = (
"176 0 LINE",
"176 505 LINE",
"50 505 LINE",
"50 0 LINE"
);
},
{
closed = 1;
nodes = (
"176 599 LINE",
"176 727 LINE",
"50 727 LINE",
"50 599 LINE"
);
}
);
vertWidth = 1200;
width = 226;
}
);
leftMetricsKey = n;
note = i;
rightMetricsKey = d;
unicode = 0069;
},
{
color = 10;
glyphname = idotless;
lastChange = "2025-02-18 12:16:51 +0000";
layers = (
{
anchors = (
{
name = bottom;
position = "{113, 0}";
},
{
name = ogonek;
position = "{136, 0}";
},
{
name = top;
position = "{113, 505}";
}
);
layerId = m01;
paths = (
{
closed = 1;
nodes = (
"176 0 LINE",
"176 505 LINE",
"50 505 LINE",
"50 0 LINE"
);
}
);
width = 226;
}
);
leftMetricsKey = i;
rightMetricsKey = i;
unicode = 0131;
},
{
color = 10;
glyphname = j;
lastChange = "2025-02-18 10:33:15 +0000";
layers = (
{
layerId = m01;
paths = (
{
closed = 1;
nodes = (
"39 -190 LINE SMOOTH",
"147 -190 OFFCURVE",
"176 -157 OFFCURVE",
"176 -42 CURVE SMOOTH",
"176 505 LINE",
"50 505 LINE",
"50 -17 LINE SMOOTH",
"50 -78 OFFCURVE",
"49 -101 OFFCURVE",
"-15 -102 CURVE",
"-15 -190 LINE"
);
},
{
closed = 1;
nodes = (
"176 601 LINE",
"176 727 LINE",
"50 727 LINE",
"50 601 LINE"
);
}
);
vertWidth = 1200;
width = 226;
}
);
note = j;
rightMetricsKey = d;
unicode = 006A;
},
{
color = 10;
glyphname = k;
lastChange = "2025-02-18 10:33:15 +0000";
layers = (
{
anchors = (
{
name = bottom;
position = "{223, 0}";
},
{
name = top;
position = "{200, 505}";
}
);
background = {
paths = (
{
closed = 1;
nodes = (
"433 0 LINE",
"303 295 LINE",
"414 505 LINE",
"276 505 LINE",
"181 289 LINE",
"284 0 LINE"
);
},
{
closed = 1;
nodes = (
"176 0 LINE",
"176 727 LINE",
"50 727 LINE",
"50 0 LINE"
);
}
);
};
layerId = m01;
paths = (
{
closed = 1;
nodes = (
"453 0 LINE",
"303 295 LINE",
"434 505 LINE",
"296 505 LINE",
"171 289 LINE",
"304 0 LINE"
);
},
{
closed = 1;
nodes = (
"176 0 LINE",
"176 727 LINE",
"50 727 LINE",
"50 0 LINE"
);
}
);
vertWidth = 1200;
width = 463;
}
);
leftMetricsKey = n;
note = k;
rightKerningGroup = x;
unicode = 006B;
},
{
color = 10;
glyphname = l;
lastChange = "2025-02-18 10:33:15 +0000";
layers = (
{
anchors = (
{
name = bottom;
position = "{113, 0}";
},
{
name = center;
position = "{113, 253}";
},
{
name = top;
position = "{113, 727}";
},
{
name = topright;
position = "{227, 505}";
}
);
layerId = m01;
paths = (
{
closed = 1;
nodes = (
"176 0 LINE",
"176 727 LINE",
"50 727 LINE",
"50 0 LINE"
);
}
);
vertWidth = 1200;
width = 226;
}
);
leftMetricsKey = n;
note = l;
rightMetricsKey = d;
unicode = 006C;
},
{
color = 10;
glyphname = lslash;
lastChange = "2025-02-18 12:17:39 +0000";
layers = (
{
components = (
{
name = l;
}
);
layerId = m01;
paths = (
{
closed = 1;
nodes = (
"0 337 LINE",
"0 251 LINE",
"226 380 LINE",
"226 466 LINE"
);
}
);
width = 226;
}
);
unicode = 0142;
},
{
color = 10;
glyphname = m;
lastChange = "2025-02-18 10:33:15 +0000";
layers = (
{
background = {
paths = (
{
closed = 1;
nodes = (
"378 430 LINE",
"417 430 LINE",
"417 455 LINE",
"378 455 LINE"
);
},
{
closed = 1;
nodes = (
"378 262 LINE",
"401 262 LINE",
"401 435 LINE",
"378 435 LINE"
);
},
{
closed = 1;
nodes = (
"671 310 LINE SMOOTH",
"671 460 OFFCURVE",
"628 515 OFFCURVE",
"533 515 CURVE SMOOTH",
"428 515 OFFCURVE",
"380 439 OFFCURVE",
"380 310 CURVE SMOOTH",
"380 262 LINE",
"401 262 LINE",
"401 300 LINE SMOOTH",
"401 390 OFFCURVE",
"428 460 OFFCURVE",
"498 460 CURVE SMOOTH",
"588 460 OFFCURVE",
"595 400 OFFCURVE",
"595 300 CURVE SMOOTH",
"595 0 LINE",
"671 0 LINE"
);
}
);
};
components = (
{
name = n;
}
);
layerId = m01;
paths = (
{
closed = 1;
nodes = (
"393 392 LINE",
"419 262 LINE",
"446 262 LINE",
"446 288 LINE SMOOTH",
"446 381 OFFCURVE",
"463 436 OFFCURVE",
"518 436 CURVE SMOOTH",
"575 436 OFFCURVE",
"590 397 OFFCURVE",
"590 288 CURVE SMOOTH",
"590 0 LINE",
"716 0 LINE",
"716 298 LINE SMOOTH",
"716 450 OFFCURVE",
"673 515 OFFCURVE",
"565 515 CURVE",
"489 515 OFFCURVE",
"447 476 OFFCURVE",
"426 425 CURVE",
"407 415 LINE"
);
}
);
width = 766;
}
);
leftKerningGroup = r;
leftMetricsKey = n;
note = m;
rightKerningGroup = n;
rightMetricsKey = n;
unicode = 006D;
},
{
color = 10;
glyphname = n;
lastChange = "2025-02-19 08:57:37 +0000";
layers = (
{
anchors = (
{
name = bottom;
position = "{248, 0}";
},
{
name = top;
position = "{248, 505}";
}
);
background = {
paths = (
{
closed = 1;
nodes = (
"50 0 LINE",
"176 0 LINE",
"176 288 LINE SMOOTH",
"176 381 OFFCURVE",
"194 436 OFFCURVE",
"248 436 CURVE SMOOTH",
"305 436 OFFCURVE",
"320 397 OFFCURVE",
"320 288 CURVE SMOOTH",
"320 0 LINE",
"446 0 LINE",
"446 298 LINE SMOOTH",
"446 450 OFFCURVE",
"403 515 OFFCURVE",
"305 515 CURVE SMOOTH",
"248 515 OFFCURVE",
"209 493 OFFCURVE",
"186 455 CURVE",
"176 455 LINE",
"176 505 LINE",
"50 505 LINE"
);
}
);
};
layerId = m01;
paths = (
{
closed = 1;
nodes = (
"50 0 LINE",
"176 0 LINE",
"176 278 LINE SMOOTH",
"176 371 OFFCURVE",
"194 436 OFFCURVE",
"248 436 CURVE SMOOTH",
"305 436 OFFCURVE",
"320 397 OFFCURVE",
"320 288 CURVE SMOOTH",
"320 0 LINE",
"446 0 LINE",
"446 298 LINE SMOOTH",
"446 450 OFFCURVE",
"403 515 OFFCURVE",
"305 515 CURVE SMOOTH",
"243 515 OFFCURVE",
"201 489 OFFCURVE",
"176 445 CURVE",
"166 505 LINE",
"50 505 LINE"
);
}
);
vertWidth = 1200;
width = 496;
}
);
leftKerningGroup = r;
note = n;
rightKerningGroup = n;
unicode = 006E;
},
{
color = 10;
glyphname = eng;
lastChange = "2025-02-18 12:18:28 +0000";
layers = (
{
components = (
{
name = n;
}
);
layerId = m01;
paths = (
{
closed = 1;
nodes = (
"309 -190 LINE SMOOTH",
"417 -190 OFFCURVE",
"446 -157 OFFCURVE",
"446 -42 CURVE SMOOTH",
"446 175 LINE",
"320 175 LINE",
"320 -17 LINE SMOOTH",
"320 -78 OFFCURVE",
"319 -101 OFFCURVE",
"255 -102 CURVE",
"255 -190 LINE"
);
}
);
width = 496;
}
);
leftKerningGroup = r;
rightKerningGroup = n;
unicode = 014B;
},
{
color = 10;
glyphname = o;
lastChange = "2025-02-18 10:33:15 +0000";
layers = (
{
anchors = (
{
name = bottom;
position = "{238, 0}";
},
{
name = center;
position = "{240, 253}";
},
{
name = ogonek;
position = "{274, 0}";
},
{
name = top;
position = "{238, 505}";
},
{
name = topright;
position = "{446, 505}";
}
);
layerId = m01;
paths = (
{
closed = 1;
nodes = (
"372 -10 OFFCURVE",
"446 66 OFFCURVE",
"446 204 CURVE SMOOTH",
"446 298 LINE SMOOTH",
"446 437 OFFCURVE",
"371 515 OFFCURVE",
"238 515 CURVE SMOOTH",
"106 515 OFFCURVE",
"35 439 OFFCURVE",
"35 298 CURVE SMOOTH",
"35 204 LINE SMOOTH",
"35 64 OFFCURVE",
"106 -10 OFFCURVE",
"238 -10 CURVE SMOOTH"
);
},
{
closed = 1;
nodes = (
"189 69 OFFCURVE",
"161 116 OFFCURVE",
"161 203 CURVE SMOOTH",
"161 298 LINE SMOOTH",
"161 386 OFFCURVE",
"190 436 OFFCURVE",
"238 436 CURVE SMOOTH",
"288 436 OFFCURVE",
"320 384 OFFCURVE",
"320 298 CURVE SMOOTH",
"320 203 LINE SMOOTH",
"320 118 OFFCURVE",
"289 69 OFFCURVE",
"238 69 CURVE SMOOTH"
);
}
);
vertWidth = 1200;
width = 481;
}
);
leftKerningGroup = o;
note = o;
rightKerningGroup = o;
unicode = 006F;
},
{
glyphname = oslash;
lastChange = "2025-02-18 12:18:49 +0000";
layers = (
{
components = (
{
name = o;
}
);
layerId = m01;
paths = (
{
closed = 1;
nodes = (
"114 -50 LINE",
"173 -50 LINE",
"362 555 LINE",
"303 555 LINE"
);
}
);
width = 481;
}
);
leftKerningGroup = o;
leftMetricsKey = o;
rightKerningGroup = o;
rightMetricsKey = o;
unicode = 00F8;
},
{
color = 10;
glyphname = oe;
lastChange = "2025-02-18 12:22:17 +0000";
layers = (
{
layerId = m01;
paths = (
{
closed = 1;
nodes = (
"642 -10 OFFCURVE",
"713 50 OFFCURVE",
"728 159 CURVE",
"602 159 LINE",
"593 81 OFFCURVE",
"564 69 OFFCURVE",
"523 69 CURVE SMOOTH",
"474 69 OFFCURVE",
"446 116 OFFCURVE",
"446 203 CURVE SMOOTH",
"446 298 LINE SMOOTH",
"446 386 OFFCURVE",
"475 436 OFFCURVE",
"523 436 CURVE SMOOTH",
"573 436 OFFCURVE",
"605 384 OFFCURVE",
"605 298 CURVE SMOOTH",
"605 229 LINE",
"731 229 LINE",
"731 298 LINE SMOOTH",
"731 437 OFFCURVE",
"656 515 OFFCURVE",
"523 515 CURVE SMOOTH",
"404 515 OFFCURVE",
"350 439 OFFCURVE",
"350 298 CURVE SMOOTH",
"350 204 LINE SMOOTH",
"350 64 OFFCURVE",
"404 -10 OFFCURVE",
"523 -10 CURVE SMOOTH"
);
},
{
closed = 1;
nodes = (
"353 -10 OFFCURVE",
"416 66 OFFCURVE",
"416 204 CURVE SMOOTH",
"416 298 LINE SMOOTH",
"416 437 OFFCURVE",
"353 515 OFFCURVE",
"238 515 CURVE SMOOTH",
"106 515 OFFCURVE",
"35 439 OFFCURVE",
"35 298 CURVE SMOOTH",
"35 204 LINE SMOOTH",
"35 64 OFFCURVE",
"106 -10 OFFCURVE",
"238 -10 CURVE SMOOTH"
);
},
{
closed = 1;
nodes = (
"189 69 OFFCURVE",
"161 116 OFFCURVE",
"161 203 CURVE SMOOTH",
"161 298 LINE SMOOTH",
"161 386 OFFCURVE",
"190 436 OFFCURVE",
"238 436 CURVE SMOOTH",
"288 436 OFFCURVE",
"320 384 OFFCURVE",
"320 298 CURVE SMOOTH",
"320 203 LINE SMOOTH",
"320 118 OFFCURVE",
"289 69 OFFCURVE",
"238 69 CURVE SMOOTH"
);
},
{
closed = 1;
nodes = (
"702 229 LINE",
"702 299 LINE",
"375 299 LINE",
"375 229 LINE"
);
}
);
width = 766;
}
);
leftKerningGroup = o;
leftMetricsKey = o;
rightKerningGroup = o;
rightMetricsKey = e;
unicode = 0153;
},
{
color = 10;
glyphname = p;
lastChange = "2025-02-19 08:57:47 +0000";
layers = (
{
anchors = (
{
name = bottom;
position = "{243, 0}";
},
{
name = top;
position = "{243, 505}";
}
);
layerId = m01;
paths = (
{
closed = 1;
nodes = (
"50 -190 LINE",
"176 -190 LINE",
"176 58 LINE",
"205 15 OFFCURVE",
"247 -10 OFFCURVE",
"308 -10 CURVE SMOOTH",
"411 -10 OFFCURVE",
"451 63 OFFCURVE",
"451 204 CURVE SMOOTH",
"451 298 LINE SMOOTH",
"451 440 OFFCURVE",
"411 515 OFFCURVE",
"308 515 CURVE SMOOTH",
"247 515 OFFCURVE",
"205 489 OFFCURVE",
"176 445 CURVE",
"166 505 LINE",
"50 505 LINE"
);
},
{
closed = 1;
nodes = (
"176 278 LINE",
"176 371 OFFCURVE",
"194 436 OFFCURVE",
"248 436 CURVE SMOOTH",
"299 436 OFFCURVE",
"325 388 OFFCURVE",
"325 288 CURVE SMOOTH",
"325 213 LINE SMOOTH",
"325 114 OFFCURVE",
"300 69 OFFCURVE",
"248 69 CURVE SMOOTH",
"193 69 OFFCURVE",
"176 129 OFFCURVE",
"176 223 CURVE SMOOTH"
);
}
);
vertWidth = 1200;
width = 486;
}
);
leftKerningGroup = r;
leftMetricsKey = n;
note = p;
rightKerningGroup = o;
rightMetricsKey = o;
unicode = 0070;
},
{
color = 10;
glyphname = thorn;
lastChange = "2025-02-18 12:19:29 +0000";
layers = (
{
components = (
{
name = p;
}
);
layerId = m01;
paths = (
{
closed = 1;
nodes = (
"50 497 LINE",
"176 497 LINE",
"176 727 LINE",
"50 727 LINE"
);
}
);
width = 486;
}
);
leftMetricsKey = p;
rightKerningGroup = o;
rightMetricsKey = p;
unicode = 00FE;
},
{
color = 10;
glyphname = q;
lastChange = "2025-02-19 08:57:55 +0000";
layers = (
{
layerId = m01;
paths = (
{
closed = 1;
nodes = (
"310 445 LINE",
"281 489 OFFCURVE",
"239 515 OFFCURVE",
"178 515 CURVE SMOOTH",
"75 515 OFFCURVE",
"35 440 OFFCURVE",
"35 298 CURVE SMOOTH",
"35 204 LINE SMOOTH",
"35 63 OFFCURVE",
"75 -10 OFFCURVE",
"178 -10 CURVE SMOOTH",
"239 -10 OFFCURVE",
"281 15 OFFCURVE",
"310 58 CURVE",
"310 -190 LINE",
"436 -190 LINE",
"436 505 LINE",
"320 505 LINE"
);
},
{
closed = 1;
nodes = (
"161 288 LINE SMOOTH",
"161 388 OFFCURVE",
"187 436 OFFCURVE",
"238 436 CURVE SMOOTH",
"292 436 OFFCURVE",
"310 371 OFFCURVE",
"310 278 CURVE SMOOTH",
"310 223 LINE SMOOTH",
"310 129 OFFCURVE",
"293 69 OFFCURVE",
"238 69 CURVE SMOOTH",
"186 69 OFFCURVE",
"161 114 OFFCURVE",
"161 213 CURVE SMOOTH"
);
}
);
vertWidth = 1200;
width = 486;
}
);
leftKerningGroup = o;
leftMetricsKey = o;
note = q;
rightMetricsKey = d;
unicode = 0071;
},
{
color = 10;
glyphname = r;
lastChange = "2025-02-18 10:33:15 +0000";
layers = (
{
anchors = (
{
name = bottom;
position = "{113, 0}";
},
{
name = top;
position = "{193, 505}";
}
);
background = {
paths = (
{
closed = 1;
nodes = (
"176 0 LINE",
"176 309 LINE SMOOTH",
"176 407 OFFCURVE",
"236 448 OFFCURVE",
"331 434 CURVE",
"331 512 LINE",
"306 512 LINE SMOOTH",
"237 512 OFFCURVE",
"202 488 OFFCURVE",
"181 429 CURVE",
"176 429 LINE",
"176 505 LINE",
"100 505 LINE",
"100 0 LINE"
);
}
);
};
layerId = m01;
paths = (
{
closed = 1;
nodes = (
"50 0 LINE",
"176 0 LINE",
"176 268 LINE SMOOTH",
"176 411 OFFCURVE",
"231 406 OFFCURVE",
"335 396 CURVE",
"335 515 LINE",
"243 515 OFFCURVE",
"200 493 OFFCURVE",
"176 429 CURVE",
"176 505 LINE",
"50 505 LINE"
);
}
);
vertWidth = 1200;
width = 355;
}
);
leftKerningGroup = r;
leftMetricsKey = n;
note = r;
rightKerningGroup = r;
unicode = 0072;
},
{
color = 10;
glyphname = s;
lastChange = "2025-02-18 12:25:30 +0000";
layers = (
{
anchors = (
{
name = bottom;
position = "{231, 0}";
},
{
name = top;
position = "{231, 505}";
}
);
layerId = m01;
paths = (
{
closed = 1;
nodes = (
"341 -10 OFFCURVE",
"421 52 OFFCURVE",
"421 138 CURVE SMOOTH",
"421 333 OFFCURVE",
"173 272 OFFCURVE",
"173 385 CURVE SMOOTH",
"173 415 OFFCURVE",
"198 436 OFFCURVE",
"231 436 CURVE SMOOTH",
"274 436 OFFCURVE",
"295 415 OFFCURVE",
"295 366 CURVE SMOOTH",
"295 358 OFFCURVE",
"295 350 OFFCURVE",
"294 342 CURVE",
"417 342 LINE",
"417 350 OFFCURVE",
"418 357 OFFCURVE",
"418 364 CURVE SMOOTH",
"418 467 OFFCURVE",
"360 515 OFFCURVE",
"231 515 CURVE SMOOTH",
"123 515 OFFCURVE",
"47 456 OFFCURVE",
"47 372 CURVE SMOOTH",
"47 183 OFFCURVE",
"295 256 OFFCURVE",
"295 125 CURVE SMOOTH",
"295 90 OFFCURVE",
"271 69 OFFCURVE",
"232 69 CURVE SMOOTH",
"186 69 OFFCURVE",
"164 91 OFFCURVE",
"164 148 CURVE SMOOTH",
"164 165 OFFCURVE",
"165 172 OFFCURVE",
"165 170 CURVE",
"35 170 LINE",
"35 49 OFFCURVE",
"90 -10 OFFCURVE",
"231 -10 CURVE SMOOTH"
);
}
);
vertWidth = 1200;
width = 456;
}
);
leftKerningGroup = s;
leftMetricsKey = o;
note = s;
rightKerningGroup = s;
rightMetricsKey = o;
unicode = 0073;
},
{
color = 10;
glyphname = germandbls;
lastChange = "2025-02-18 12:33:52 +0000";
layers = (
{
background = {
paths = (
{
closed = 1;
nodes = (
"486 -10 OFFCURVE",
"566 52 OFFCURVE",
"566 138 CURVE SMOOTH",
"566 333 OFFCURVE",
"318 272 OFFCURVE",
"318 385 CURVE SMOOTH",
"318 415 OFFCURVE",
"343 436 OFFCURVE",
"376 436 CURVE SMOOTH",
"419 436 OFFCURVE",
"440 415 OFFCURVE",
"440 366 CURVE SMOOTH",
"440 358 OFFCURVE",
"440 350 OFFCURVE",
"439 342 CURVE",
"562 342 LINE",
"562 350 OFFCURVE",
"563 357 OFFCURVE",
"563 364 CURVE SMOOTH",
"563 467 OFFCURVE",
"505 515 OFFCURVE",
"376 515 CURVE SMOOTH",
"268 515 OFFCURVE",
"192 456 OFFCURVE",
"192 372 CURVE SMOOTH",
"192 183 OFFCURVE",
"440 256 OFFCURVE",
"440 125 CURVE SMOOTH",
"440 90 OFFCURVE",
"416 69 OFFCURVE",
"377 69 CURVE SMOOTH",
"331 69 OFFCURVE",
"309 91 OFFCURVE",
"309 148 CURVE SMOOTH",
"309 165 OFFCURVE",
"310 172 OFFCURVE",
"310 170 CURVE",
"180 170 LINE",
"180 49 OFFCURVE",
"235 -10 OFFCURVE",
"376 -10 CURVE SMOOTH"
);
}
);
};
layerId = m01;
paths = (
{
closed = 1;
nodes = (
"497 -10 OFFCURVE",
"565 57 OFFCURVE",
"565 139 CURVE SMOOTH",
"565 303 OFFCURVE",
"366 308 OFFCURVE",
"366 402 CURVE SMOOTH",
"366 464 OFFCURVE",
"494 469 OFFCURVE",
"494 585 CURVE SMOOTH",
"494 684 OFFCURVE",
"400 734 OFFCURVE",
"269 734 CURVE SMOOTH",
"125 734 OFFCURVE",
"50 681 OFFCURVE",
"50 523 CURVE SMOOTH",
"50 0 LINE",
"176 0 LINE",
"176 506 LINE SMOOTH",
"176 617 OFFCURVE",
"215 655 OFFCURVE",
"272 655 CURVE SMOOTH",
"319 655 OFFCURVE",
"368 628 OFFCURVE",
"368 584 CURVE SMOOTH",
"368 510 OFFCURVE",
"240 492 OFFCURVE",
"240 400 CURVE SMOOTH",
"240 232 OFFCURVE",
"440 259 OFFCURVE",
"440 135 CURVE SMOOTH",
"440 97 OFFCURVE",
"420 69 OFFCURVE",
"379 69 CURVE SMOOTH",
"357 69 OFFCURVE",
"316 86 OFFCURVE",
"315 137 CURVE",
"209 137 LINE",
"193 49 OFFCURVE",
"255 -10 OFFCURVE",
"371 -10 CURVE SMOOTH"
);
}
);
width = 600;
}
);
leftMetricsKey = n;
rightKerningGroup = s;
rightMetricsKey = s;
unicode = 00DF;
},
{
color = 10;
glyphname = t;
lastChange = "2025-02-18 12:23:56 +0000";
layers = (
{
anchors = (
{
name = bottom;
position = "{203, 0}";
},
{
name = center;
position = "{183, 253}";
},
{
name = top;
position = "{183, 505}";
},
{
name = topright;
position = "{296, 505}";
}
);
background = {
paths = (
{
closed = 1;
nodes = (
"121 505 LINE",
"40 505 LINE",
"40 450 LINE",
"121 450 LINE",
"121 133 LINE SMOOTH",
"121 22 OFFCURVE",
"174 0 OFFCURVE",
"262 0 CURVE SMOOTH",
"299 0 LINE",
"299 59 LINE",
"243 59 OFFCURVE",
"197 66 OFFCURVE",
"197 133 CURVE SMOOTH",
"197 450 LINE",
"293 450 LINE",
"293 505 LINE",
"197 505 LINE",
"197 638 LINE",
"121 601 LINE"
);
},
{
closed = 1;
nodes = (
"121 601 LINE",
"197 638 LINE"
);
}
);
};
layerId = m01;
paths = (
{
closed = 1;
nodes = (
"96 505 LINE",
"15 505 LINE",
"15 426 LINE",
"96 426 LINE",
"96 145 LINE SMOOTH",
"96 41 OFFCURVE",
"144 0 OFFCURVE",
"262 0 CURVE SMOOTH",
"324 0 LINE",
"324 83 LINE",
"253 83 OFFCURVE",
"222 78 OFFCURVE",
"222 145 CURVE SMOOTH",
"222 426 LINE",
"318 426 LINE",
"318 505 LINE",
"222 505 LINE",
"222 650 LINE",
"96 589 LINE"
);
}
);
vertWidth = 1200;
width = 339;
}
);
leftMetricsKey = f;
note = t;
rightKerningGroup = t;
rightMetricsKey = f;
unicode = 0074;
},
{
color = 10;
glyphname = tbar;
lastChange = "2025-02-18 12:24:11 +0000";
layers = (
{
components = (
{
name = t;
}
);
layerId = m01;
paths = (
{
closed = 1;
nodes = (
"26 256 LINE",
"292 256 LINE",
"292 332 LINE",
"26 332 LINE"
);
}
);
width = 339;
}
);
leftMetricsKey = t;
rightKerningGroup = t;
rightMetricsKey = t;
unicode = 0167;
},
{
color = 10;
glyphname = v;
lastChange = "2025-02-18 10:33:15 +0000";
layers = (
{
anchors = (
{
name = bottom;
position = "{251, 0}";
},
{
name = top;
position = "{251, 505}";
}
);
background = {
paths = (
{
closed = 1;
nodes = (
"335 0 LINE",
"456 505 LINE",
"320 505 LINE",
"248 125 LINE",
"175 505 LINE",
"39 505 LINE",
"160 0 LINE"
);
}
);
};
layerId = m01;
paths = (
{
closed = 1;
nodes = (
"325 0 LINE",
"474 505 LINE",
"352 505 LINE",
"252 126 LINE",
"151 505 LINE",
"25 505 LINE",
"173 0 LINE"
);
}
);
vertWidth = 1200;
width = 499;
}
);
leftKerningGroup = v;
note = v;
rightKerningGroup = v;
unicode = 0076;
},
{
color = 10;
glyphname = w;
lastChange = "2025-02-18 10:33:15 +0000";
layers = (
{
anchors = (
{
name = bottom;
position = "{369, 0}";
},
{
name = top;
position = "{377, 505}";
}
);
background = {
paths = (
{
closed = 1;
nodes = (
"325 0 LINE",
"474 505 LINE",
"352 505 LINE",
"228 35 LINE",
"276 35 LINE",
"151 505 LINE",
"25 505 LINE",
"173 0 LINE"
);
}
);
};
layerId = m01;
paths = (
{
closed = 1;
nodes = (
"292 0 LINE",
"373 424 LINE",
"446 0 LINE",
"600 0 LINE",
"712 505 LINE",
"592 505 LINE",
"518 113 LINE",
"450 505 LINE",
"303 505 LINE",
"226 105 LINE",
"150 505 LINE",
"25 505 LINE",
"136 0 LINE"
);
}
);
vertWidth = 1200;
width = 737;
}
);
leftKerningGroup = v;
leftMetricsKey = v;
note = w;
rightKerningGroup = v;
rightMetricsKey = v;
unicode = 0077;
},
{
color = 10;
glyphname = x;
lastChange = "2025-02-18 10:33:15 +0000";
layers = (
{
anchors = (
{
name = bottom;
position = "{267, 0}";
},
{
name = top;
position = "{251, 505}";
}
);
layerId = m01;
paths = (
{
closed = 1;
nodes = (
"180 0 LINE",
"262 158 LINE",
"363 0 LINE",
"508 0 LINE",
"329 264 LINE",
"471 505 LINE",
"337 505 LINE",
"264 355 LINE",
"171 505 LINE",
"25 505 LINE",
"197 261 LINE",
"43 0 LINE"
);
}
);
vertWidth = 1200;
width = 533;
}
);
leftKerningGroup = x;
leftMetricsKey = v;
note = x;
rightKerningGroup = x;
rightMetricsKey = v;
unicode = 0078;
},
{
color = 10;
glyphname = y;
lastChange = "2025-02-18 10:33:15 +0000";
layers = (
{
anchors = (
{
name = bottom;
position = "{258, 0}";
},
{
name = top;
position = "{257, 505}";
}
);
background = {
paths = (
{
closed = 1;
nodes = (
"283 -190 LINE",
"331 25 LINE",
"470 505 LINE",
"331 505 LINE",
"261 172 LINE",
"186 505 LINE",
"48 505 LINE",
"191 -1 LINE",
"137 -190 LINE"
);
}
);
};
layerId = m01;
paths = (
{
closed = 1;
nodes = (
"254 -190 LINE",
"488 505 LINE",
"362 505 LINE",
"234 73 LINE",
"282 73 LINE",
"151 505 LINE",
"25 505 LINE",
"194 0 LINE",
"126 -190 LINE"
);
}
);
vertWidth = 1200;
width = 513;
}
);
leftKerningGroup = v;
leftMetricsKey = v;
note = y;
rightKerningGroup = v;
rightMetricsKey = v;
unicode = 0079;
},
{
color = 10;
glyphname = z;
lastChange = "2025-02-18 10:33:15 +0000";
layers = (
{
anchors = (
{
name = bottom;
position = "{215, 0}";
},
{
name = center;
position = "{215, 253}";
},
{
name = top;
position = "{223, 505}";
}
);
layerId = m01;
paths = (
{
closed = 1;
nodes = (
"401 0 LINE",
"401 79 LINE",
"186 79 LINE",
"399 436 LINE",
"399 505 LINE",
"46 505 LINE",
"46 426 LINE",
"250 426 LINE",
"35 69 LINE",
"35 0 LINE"
);
}
);
vertWidth = 1200;
width = 436;
}
);
leftKerningGroup = z;
leftMetricsKey = o;
note = z;
rightKerningGroup = z;
rightMetricsKey = o;
unicode = 007A;
},
{
glyphname = ordfeminine;
lastChange = "2025-02-19 08:58:10 +0000";
layers = (
{
layerId = m01;
paths = (
{
closed = 1;
nodes = (
"179 366 OFFCURVE",
"202 388 OFFCURVE",
"218 414 CURVE",
"228 373 LINE",
"298 373 LINE",
"298 600 LINE SMOOTH",
"298 702 OFFCURVE",
"266 737 OFFCURVE",
"174 737 CURVE SMOOTH",
"91 737 OFFCURVE",
"44 691 OFFCURVE",
"47 611 CURVE",
"127 611 LINE",
"127 661 OFFCURVE",
"138 677 OFFCURVE",
"172 677 CURVE SMOOTH",
"204 677 OFFCURVE",
"218 662 OFFCURVE",
"218 623 CURVE SMOOTH",
"218 604 LINE",
"186 604 LINE SMOOTH",
"98 604 OFFCURVE",
"40 554 OFFCURVE",
"40 478 CURVE SMOOTH",
"40 409 OFFCURVE",
"78 366 OFFCURVE",
"138 366 CURVE SMOOTH"
);
},
{
closed = 1;
nodes = (
"298 236 LINE",
"298 307 LINE",
"40 307 LINE",
"40 236 LINE"
);
},
{
closed = 1;
nodes = (
"120 520 OFFCURVE",
"145 543 OFFCURVE",
"188 543 CURVE SMOOTH",
"218 543 LINE",
"216 461 OFFCURVE",
"198 431 OFFCURVE",
"156 431 CURVE SMOOTH",
"134 431 OFFCURVE",
"120 449 OFFCURVE",
"120 479 CURVE SMOOTH"
);
}
);
width = 338;
}
);
note = a;
unicode = 00AA;
},
{
glyphname = ordmasculine;
lastChange = "2025-02-18 09:04:57 +0000";
layers = (
{
layerId = m01;
paths = (
{
closed = 1;
nodes = (
"259 366 OFFCURVE",
"308 419 OFFCURVE",
"308 512 CURVE SMOOTH",
"308 590 LINE SMOOTH",
"308 683 OFFCURVE",
"259 737 OFFCURVE",
"173 737 CURVE SMOOTH",
"88 737 OFFCURVE",
"40 684 OFFCURVE",
"40 590 CURVE SMOOTH",
"40 512 LINE SMOOTH",
"40 418 OFFCURVE",
"87 366 OFFCURVE",
"173 366 CURVE SMOOTH"
);
},
{
closed = 1;
nodes = (
"138 427 OFFCURVE",
"120 455 OFFCURVE",
"120 511 CURVE SMOOTH",
"120 590 LINE SMOOTH",
"120 647 OFFCURVE",
"139 677 OFFCURVE",
"173 677 CURVE SMOOTH",
"207 677 OFFCURVE",
"228 646 OFFCURVE",
"228 590 CURVE SMOOTH",
"228 511 LINE SMOOTH",
"228 456 OFFCURVE",
"208 427 OFFCURVE",
"173 427 CURVE SMOOTH"
);
},
{
closed = 1;
nodes = (
"40 236 LINE",
"308 236 LINE",
"308 307 LINE",
"40 307 LINE"
);
}
);
width = 348;
}
);
note = o;
unicode = 00BA;
},
{
glyphname = zero;
lastChange = "2025-02-16 20:33:43 +0000";
layers = (
{
layerId = m01;
paths = (
{
closed = 1;
nodes = (
"388 -10 OFFCURVE",
"462 86 OFFCURVE",
"462 268 CURVE SMOOTH",
"462 458 LINE SMOOTH",
"462 643 OFFCURVE",
"390 737 OFFCURVE",
"246 737 CURVE SMOOTH",
"104 737 OFFCURVE",
"38 647 OFFCURVE",
"38 458 CURVE SMOOTH",
"38 268 LINE SMOOTH",
"38 83 OFFCURVE",
"106 -10 OFFCURVE",
"246 -10 CURVE SMOOTH"
);
},
{
closed = 1;
nodes = (
"191 81 OFFCURVE",
"164 139 OFFCURVE",
"164 266 CURVE SMOOTH",
"164 460 LINE SMOOTH",
"164 587 OFFCURVE",
"192 646 OFFCURVE",
"246 646 CURVE SMOOTH",
"304 646 OFFCURVE",
"336 583 OFFCURVE",
"336 460 CURVE SMOOTH",
"336 266 LINE SMOOTH",
"336 147 OFFCURVE",
"303 81 OFFCURVE",
"246 81 CURVE SMOOTH"
);
}
);
vertWidth = 1200;
width = 500;
}
);
note = zero;
unicode = 0030;
},
{
glyphname = one;
lastChange = "2025-02-16 20:34:24 +0000";
layers = (
{
layerId = m01;
paths = (
{
closed = 1;
nodes = (
"350 0 LINE",
"350 727 LINE",
"235 727 LINE",
"65 637 LINE",
"65 518 LINE",
"224 600 LINE",
"224 0 LINE"
);
}
);
vertWidth = 1200;
width = 500;
}
);
note = one;
unicode = 0031;
},
{
glyphname = two;
lastChange = "2025-02-16 20:41:33 +0000";
layers = (
{
layerId = m01;
paths = (
{
closed = 1;
nodes = (
"460 0 LINE",
"460 94 LINE",
"180 94 LINE",
"430 382 OFFCURVE",
"446 454 OFFCURVE",
"446 544 CURVE SMOOTH",
"446 674 OFFCURVE",
"373 737 OFFCURVE",
"247 737 CURVE SMOOTH",
"100 737 OFFCURVE",
"32 663 OFFCURVE",
"42 516 CURVE",
"169 516 LINE",
"167 613 OFFCURVE",
"187 646 OFFCURVE",
"240 646 CURVE SMOOTH",
"285 646 OFFCURVE",
"320 633 OFFCURVE",
"320 558 CURVE SMOOTH",
"320 483 OFFCURVE",
"307 419 OFFCURVE",
"36 88 CURVE",
"36 0 LINE"
);
}
);
vertWidth = 1200;
width = 500;
}
);
note = two;
unicode = 0032;
},
{
glyphname = three;
lastChange = "2025-02-16 20:35:35 +0000";
layers = (
{
background = {
paths = (
{
closed = 1;
nodes = (
"363 -10 OFFCURVE",
"431 66 OFFCURVE",
"431 202 CURVE SMOOTH",
"431 312 OFFCURVE",
"385 367 OFFCURVE",
"281 386 CURVE",
"373 404 OFFCURVE",
"416 456 OFFCURVE",
"416 552 CURVE SMOOTH",
"416 669 OFFCURVE",
"353 737 OFFCURVE",
"233 737 CURVE SMOOTH",
"124 737 OFFCURVE",
"55 678 OFFCURVE",
"55 529 CURVE",
"131 529 LINE",
"135 632 OFFCURVE",
"162 670 OFFCURVE",
"233 670 CURVE SMOOTH",
"307 670 OFFCURVE",
"340 624 OFFCURVE",
"340 563 CURVE SMOOTH",
"340 462 OFFCURVE",
"295 417 OFFCURVE",
"191 416 CURVE",
"191 346 LINE",
"314 346 OFFCURVE",
"355 311 OFFCURVE",
"355 205 CURVE SMOOTH",
"355 105 OFFCURVE",
"315 57 OFFCURVE",
"237 57 CURVE SMOOTH",
"160 57 OFFCURVE",
"131 89 OFFCURVE",
"124 199 CURVE",
"48 199 LINE",
"50 53 OFFCURVE",
"107 -10 OFFCURVE",
"234 -10 CURVE SMOOTH"
);
},
{
closed = 1;
nodes = (
"274 370 LINE",
"297 370 LINE",
"297 398 LINE",
"274 398 LINE"
);
}
);
};
layerId = m01;
paths = (
{
closed = 1;
nodes = (
"380 -10 OFFCURVE",
"460 66 OFFCURVE",
"460 210 CURVE SMOOTH",
"460 308 OFFCURVE",
"419 358 OFFCURVE",
"326 387 CURVE",
"407 413 OFFCURVE",
"445 461 OFFCURVE",
"445 546 CURVE SMOOTH",
"445 671 OFFCURVE",
"369 737 OFFCURVE",
"237 737 CURVE SMOOTH",
"100 737 OFFCURVE",
"30 658 OFFCURVE",
"34 505 CURVE",
"160 505 LINE",
"162 612 OFFCURVE",
"186 646 OFFCURVE",
"240 646 CURVE SMOOTH",
"294 646 OFFCURVE",
"319 618 OFFCURVE",
"319 557 CURVE SMOOTH",
"319 452 OFFCURVE",
"276 423 OFFCURVE",
"170 429 CURVE",
"170 334 LINE",
"299 338 OFFCURVE",
"334 322 OFFCURVE",
"334 213 CURVE SMOOTH",
"334 121 OFFCURVE",
"304 81 OFFCURVE",
"241 81 CURVE SMOOTH",
"178 81 OFFCURVE",
"158 110 OFFCURVE",
"152 223 CURVE",
"27 223 LINE",
"26 63 OFFCURVE",
"91 -10 OFFCURVE",
"238 -10 CURVE SMOOTH"
);
}
);
vertWidth = 1200;
width = 500;
}
);
note = three;
unicode = 0033;
},
{
glyphname = four;
lastChange = "2025-02-16 20:36:01 +0000";
layers = (
{
background = {
paths = (
{
closed = 1;
nodes = (
"380 0 LINE",
"380 177 LINE",
"449 177 LINE",
"449 245 LINE",
"380 245 LINE",
"380 727 LINE",
"258 727 LINE",
"29 252 LINE",
"29 177 LINE",
"304 177 LINE",
"304 0 LINE"
);
},
{
closed = 1;
nodes = (
"304 670 LINE",
"304 245 LINE",
"100 245 LINE"
);
},
{
closed = 1;
nodes = (
"284 659 LINE",
"315 659 LINE",
"315 685 LINE",
"284 685 LINE"
);
},
{
closed = 1;
nodes = (
"84 230 LINE",
"104 230 LINE",
"104 267 LINE",
"84 267 LINE"
);
}
);
};
layerId = m01;
paths = (
{
closed = 1;
nodes = (
"405 0 LINE",
"405 177 LINE",
"474 177 LINE",
"474 269 LINE",
"405 269 LINE",
"405 727 LINE",
"239 727 LINE",
"24 264 LINE",
"24 177 LINE",
"279 177 LINE",
"279 0 LINE"
);
},
{
closed = 1;
nodes = (
"279 570 LINE",
"279 269 LINE",
"151 269 LINE"
);
}
);
vertWidth = 1200;
width = 500;
}
);
note = four;
unicode = 0034;
},
{
glyphname = five;
lastChange = "2025-02-16 20:36:26 +0000";
layers = (
{
background = {
paths = (
{
closed = 1;
nodes = (
"77 44 OFFCURVE",
"128 -10 OFFCURVE",
"251 -10 CURVE SMOOTH",
"371 -10 OFFCURVE",
"429 66 OFFCURVE",
"429 243 CURVE SMOOTH",
"429 404 OFFCURVE",
"384 472 OFFCURVE",
"287 472 CURVE SMOOTH",
"256 472 OFFCURVE",
"201 466 OFFCURVE",
"154 413 CURVE",
"160 657 LINE",
"402 657 LINE",
"402 727 LINE",
"86 727 LINE",
"74 305 LINE",
"150 305 LINE",
"162 374 OFFCURVE",
"198 409 OFFCURVE",
"255 409 CURVE SMOOTH",
"325 409 OFFCURVE",
"353 363 OFFCURVE",
"353 232 CURVE SMOOTH",
"353 101 OFFCURVE",
"320 57 OFFCURVE",
"249 57 CURVE SMOOTH",
"180 57 OFFCURVE",
"152 88 OFFCURVE",
"148 163 CURVE",
"71 163 LINE"
);
},
{
closed = 1;
nodes = (
"146 406 LINE",
"176 406 LINE",
"176 420 LINE",
"146 420 LINE"
);
}
);
};
layerId = m01;
paths = (
{
closed = 1;
nodes = (
"45 52 OFFCURVE",
"108 -10 OFFCURVE",
"248 -10 CURVE SMOOTH",
"391 -10 OFFCURVE",
"461 81 OFFCURVE",
"461 249 CURVE SMOOTH",
"461 399 OFFCURVE",
"398 484 OFFCURVE",
"284 484 CURVE SMOOTH",
"235 484 OFFCURVE",
"189 464 OFFCURVE",
"160 428 CURVE",
"176 432 LINE",
"182 633 LINE",
"434 633 LINE",
"434 727 LINE",
"58 727 LINE",
"46 293 LINE",
"170 293 LINE",
"180 365 OFFCURVE",
"207 397 OFFCURVE",
"252 397 CURVE SMOOTH",
"304 397 OFFCURVE",
"335 340 OFFCURVE",
"335 238 CURVE SMOOTH",
"335 132 OFFCURVE",
"306 81 OFFCURVE",
"246 81 CURVE SMOOTH",
"191 81 OFFCURVE",
"172 106 OFFCURVE",
"170 187 CURVE",
"43 187 LINE"
);
}
);
vertWidth = 1200;
width = 500;
}
);
note = five;
unicode = 0035;
},
{
glyphname = six;
lastChange = "2025-02-16 20:42:38 +0000";
layers = (
{
background = {
paths = (
{
closed = 1;
nodes = (
"178 57 OFFCURVE",
"141 119 OFFCURVE",
"141 232 CURVE SMOOTH",
"141 342 OFFCURVE",
"177 393 OFFCURVE",
"251 393 CURVE SMOOTH",
"326 393 OFFCURVE",
"364 342 OFFCURVE",
"364 232 CURVE SMOOTH",
"364 119 OFFCURVE",
"322 57 OFFCURVE",
"248 57 CURVE SMOOTH"
);
},
{
closed = 1;
nodes = (
"419 681 OFFCURVE",
"369 737 OFFCURVE",
"258 737 CURVE SMOOTH",
"83 737 OFFCURVE",
"64 588 OFFCURVE",
"64 353 CURVE SMOOTH",
"64 131 OFFCURVE",
"70 -10 OFFCURVE",
"248 -10 CURVE SMOOTH",
"373 -10 OFFCURVE",
"440 75 OFFCURVE",
"440 232 CURVE SMOOTH",
"440 377 OFFCURVE",
"377 460 OFFCURVE",
"267 460 CURVE SMOOTH",
"226 460 OFFCURVE",
"179 445 OFFCURVE",
"141 386 CURVE",
"141 451 LINE SMOOTH",
"141 610 OFFCURVE",
"171 670 OFFCURVE",
"253 670 CURVE SMOOTH",
"315 670 OFFCURVE",
"344 635 OFFCURVE",
"346 557 CURVE",
"426 557 LINE"
);
},
{
closed = 1;
nodes = (
"123 374 LINE",
"171 374 LINE",
"171 394 LINE",
"123 394 LINE"
);
}
);
};
layerId = m01;
paths = (
{
closed = 1;
nodes = (
"195 81 OFFCURVE",
"164 140 OFFCURVE",
"164 232 CURVE SMOOTH",
"164 335 OFFCURVE",
"193 381 OFFCURVE",
"249 381 CURVE SMOOTH",
"307 381 OFFCURVE",
"337 336 OFFCURVE",
"337 238 CURVE SMOOTH",
"337 143 OFFCURVE",
"303 81 OFFCURVE",
"246 81 CURVE SMOOTH"
);
},
{
closed = 1;
nodes = (
"37 143 OFFCURVE",
"54 -10 OFFCURVE",
"256 -10 CURVE SMOOTH",
"391 -10 OFFCURVE",
"463 82 OFFCURVE",
"463 238 CURVE SMOOTH",
"463 387 OFFCURVE",
"390 472 OFFCURVE",
"275 472 CURVE SMOOTH",
"219 472 OFFCURVE",
"179 446 OFFCURVE",
"154 401 CURVE",
"164 406 LINE",
"164 451 LINE SMOOTH",
"164 590 OFFCURVE",
"190 646 OFFCURVE",
"251 646 CURVE SMOOTH",
"298 646 OFFCURVE",
"319 614 OFFCURVE",
"319 533 CURVE",
"450 533 LINE",
"445 672 OFFCURVE",
"385 737 OFFCURVE",
"256 737 CURVE SMOOTH",
"58 737 OFFCURVE",
"37 581 OFFCURVE",
"37 353 CURVE SMOOTH"
);
}
);
vertWidth = 1200;
width = 500;
}
);
note = six;
unicode = 0036;
},
{
glyphname = seven;
lastChange = "2025-02-16 20:37:45 +0000";
layers = (
{
layerId = m01;
paths = (
{
closed = 1;
nodes = (
"226 0 LINE",
"460 646 LINE",
"460 727 LINE",
"32 727 LINE",
"32 629 LINE",
"330 629 LINE",
"95 0 LINE"
);
}
);
vertWidth = 1200;
width = 500;
}
);
note = seven;
unicode = 0037;
},
{
glyphname = eight;
lastChange = "2025-02-16 20:42:05 +0000";
layers = (
{
background = {
paths = (
{
closed = 1;
nodes = (
"362 -10 OFFCURVE",
"430 66 OFFCURVE",
"430 202 CURVE SMOOTH",
"430 306 OFFCURVE",
"389 361 OFFCURVE",
"296 383 CURVE",
"296 390 LINE",
"377 410 OFFCURVE",
"415 462 OFFCURVE",
"415 552 CURVE SMOOTH",
"415 669 OFFCURVE",
"352 737 OFFCURVE",
"232 737 CURVE SMOOTH",
"123 737 OFFCURVE",
"54 678 OFFCURVE",
"54 529 CURVE",
"130 529 LINE",
"134 632 OFFCURVE",
"161 670 OFFCURVE",
"232 670 CURVE SMOOTH",
"306 670 OFFCURVE",
"339 624 OFFCURVE",
"339 563 CURVE SMOOTH",
"339 462 OFFCURVE",
"294 417 OFFCURVE",
"190 416 CURVE",
"190 346 LINE",
"313 346 OFFCURVE",
"354 311 OFFCURVE",
"354 205 CURVE SMOOTH",
"354 105 OFFCURVE",
"314 57 OFFCURVE",
"236 57 CURVE SMOOTH",
"159 57 OFFCURVE",
"130 89 OFFCURVE",
"123 199 CURVE",
"47 199 LINE",
"49 53 OFFCURVE",
"106 -10 OFFCURVE",
"233 -10 CURVE SMOOTH"
);
}
);
};
layerId = m01;
paths = (
{
closed = 1;
nodes = (
"391 -11 OFFCURVE",
"459 60 OFFCURVE",
"459 194 CURVE SMOOTH",
"459 325 OFFCURVE",
"382 395 OFFCURVE",
"250 395 CURVE SMOOTH",
"119 395 OFFCURVE",
"40 323 OFFCURVE",
"40 194 CURVE SMOOTH",
"40 61 OFFCURVE",
"109 -11 OFFCURVE",
"250 -11 CURVE SMOOTH"
);
},
{
closed = 1;
nodes = (
"191 80 OFFCURVE",
"166 115 OFFCURVE",
"166 196 CURVE SMOOTH",
"166 284 OFFCURVE",
"195 329 OFFCURVE",
"250 329 CURVE SMOOTH",
"305 329 OFFCURVE",
"333 289 OFFCURVE",
"333 196 CURVE SMOOTH",
"333 115 OFFCURVE",
"309 80 OFFCURVE",
"250 80 CURVE SMOOTH"
);
},
{
closed = 1;
nodes = (
"121 736 OFFCURVE",
"46 665 OFFCURVE",
"46 544 CURVE SMOOTH",
"46 426 OFFCURVE",
"125 351 OFFCURVE",
"250 351 CURVE SMOOTH",
"375 351 OFFCURVE",
"453 425 OFFCURVE",
"453 544 CURVE SMOOTH",
"453 666 OFFCURVE",
"379 736 OFFCURVE",
"250 736 CURVE SMOOTH"
);
},
{
closed = 1;
nodes = (
"303 645 OFFCURVE",
"327 611 OFFCURVE",
"327 532 CURVE SMOOTH",
"327 469 OFFCURVE",
"293 417 OFFCURVE",
"250 417 CURVE SMOOTH",
"204 417 OFFCURVE",
"172 465 OFFCURVE",
"172 532 CURVE SMOOTH",
"172 609 OFFCURVE",
"198 645 OFFCURVE",
"250 645 CURVE SMOOTH"
);
},
{
closed = 1;
nodes = (
"149 358 LINE",
"218 358 LINE",
"218 392 LINE",
"149 392 LINE"
);
},
{
closed = 1;
nodes = (
"285 358 LINE",
"352 358 LINE",
"352 391 LINE",
"285 391 LINE"
);
}
);
vertWidth = 1200;
width = 500;
}
);
note = eight;
unicode = 0038;
},
{
glyphname = zero.dnom;
lastChange = "2025-02-19 08:46:37 +0000";
layers = (
{
layerId = m01;
paths = (
{
closed = 1;
nodes = (
"261 -7 OFFCURVE",
"313 59 OFFCURVE",
"313 182 CURVE SMOOTH",
"313 307 LINE SMOOTH",
"313 432 OFFCURVE",
"262 496 OFFCURVE",
"162 496 CURVE SMOOTH",
"64 496 OFFCURVE",
"17 435 OFFCURVE",
"17 307 CURVE SMOOTH",
"17 182 LINE SMOOTH",
"17 56 OFFCURVE",
"65 -7 OFFCURVE",
"162 -7 CURVE SMOOTH"
);
},
{
closed = 1;
nodes = (
"132 63 OFFCURVE",
"116 102 OFFCURVE",
"116 181 CURVE SMOOTH",
"116 309 LINE SMOOTH",
"116 386 OFFCURVE",
"133 426 OFFCURVE",
"162 426 CURVE SMOOTH",
"195 426 OFFCURVE",
"214 385 OFFCURVE",
"214 309 CURVE SMOOTH",
"214 181 LINE SMOOTH",
"214 107 OFFCURVE",
"194 63 OFFCURVE",
"162 63 CURVE SMOOTH"
);
}
);
width = 330;
}
);
note = zero;
},
{
glyphname = one.dnom;
lastChange = "2025-02-19 08:46:37 +0000";
layers = (
{
layerId = m01;
paths = (
{
closed = 1;
nodes = (
"239 0 LINE",
"239 490 LINE",
"152 490 LINE",
"35 427 LINE",
"35 337 LINE",
"140 391 LINE",
"140 0 LINE"
);
}
);
width = 330;
}
);
note = one;
},
{
glyphname = two.dnom;
lastChange = "2025-02-19 08:46:37 +0000";
layers = (
{
layerId = m01;
paths = (
{
closed = 1;
nodes = (
"312 0 LINE",
"312 72 LINE",
"132 72 LINE",
"292 257 OFFCURVE",
"302 306 OFFCURVE",
"302 364 CURVE SMOOTH",
"302 450 OFFCURVE",
"253 496 OFFCURVE",
"163 496 CURVE SMOOTH",
"59 496 OFFCURVE",
"11 444 OFFCURVE",
"20 341 CURVE",
"120 341 LINE",
"118 405 OFFCURVE",
"128 426 OFFCURVE",
"158 426 CURVE SMOOTH",
"191 426 OFFCURVE",
"203 413 OFFCURVE",
"203 373 CURVE SMOOTH",
"203 324 OFFCURVE",
"195 283 OFFCURVE",
"16 64 CURVE",
"16 0 LINE"
);
}
);
width = 330;
}
);
note = two;
},
{
glyphname = three.dnom;
lastChange = "2025-02-19 08:46:37 +0000";
layers = (
{
background = {
paths = (
{
closed = 1;
nodes = (
"363 -10 OFFCURVE",
"431 66 OFFCURVE",
"431 202 CURVE SMOOTH",
"431 312 OFFCURVE",
"385 367 OFFCURVE",
"281 386 CURVE",
"373 404 OFFCURVE",
"416 456 OFFCURVE",
"416 552 CURVE SMOOTH",
"416 669 OFFCURVE",
"353 737 OFFCURVE",
"233 737 CURVE SMOOTH",
"124 737 OFFCURVE",
"55 678 OFFCURVE",
"55 529 CURVE",
"131 529 LINE",
"135 632 OFFCURVE",
"162 670 OFFCURVE",
"233 670 CURVE SMOOTH",
"307 670 OFFCURVE",
"340 624 OFFCURVE",
"340 563 CURVE SMOOTH",
"340 462 OFFCURVE",
"295 417 OFFCURVE",
"191 416 CURVE",
"191 346 LINE",
"314 346 OFFCURVE",
"355 311 OFFCURVE",
"355 205 CURVE SMOOTH",
"355 105 OFFCURVE",
"315 57 OFFCURVE",
"237 57 CURVE SMOOTH",
"160 57 OFFCURVE",
"131 89 OFFCURVE",
"124 199 CURVE",
"48 199 LINE",
"50 53 OFFCURVE",
"107 -10 OFFCURVE",
"234 -10 CURVE SMOOTH"
);
},
{
closed = 1;
nodes = (
"274 370 LINE",
"297 370 LINE",
"297 398 LINE",
"274 398 LINE"
);
}
);
};
layerId = m01;
paths = (
{
closed = 1;
nodes = (
"256 -7 OFFCURVE",
"312 47 OFFCURVE",
"312 144 CURVE SMOOTH",
"312 204 OFFCURVE",
"288 239 OFFCURVE",
"231 260 CURVE",
"280 280 OFFCURVE",
"302 313 OFFCURVE",
"302 365 CURVE SMOOTH",
"302 449 OFFCURVE",
"250 496 OFFCURVE",
"156 496 CURVE SMOOTH",
"59 496 OFFCURVE",
"10 440 OFFCURVE",
"14 333 CURVE",
"114 333 LINE",
"114 402 OFFCURVE",
"127 426 OFFCURVE",
"158 426 CURVE SMOOTH",
"189 426 OFFCURVE",
"203 410 OFFCURVE",
"203 373 CURVE SMOOTH",
"203 306 OFFCURVE",
"179 288 OFFCURVE",
"104 294 CURVE",
"104 220 LINE",
"196 224 OFFCURVE",
"212 214 OFFCURVE",
"212 146 CURVE SMOOTH",
"212 88 OFFCURVE",
"196 63 OFFCURVE",
"159 63 CURVE SMOOTH",
"122 63 OFFCURVE",
"111 82 OFFCURVE",
"108 157 CURVE",
"10 157 LINE",
"8 45 OFFCURVE",
"54 -7 OFFCURVE",
"157 -7 CURVE SMOOTH"
);
}
);
width = 330;
}
);
note = three;
},
{
glyphname = four.dnom;
lastChange = "2025-02-19 08:47:58 +0000";
layers = (
{
background = {
paths = (
{
closed = 1;
nodes = (
"380 0 LINE",
"380 177 LINE",
"449 177 LINE",
"449 245 LINE",
"380 245 LINE",
"380 727 LINE",
"258 727 LINE",
"29 252 LINE",
"29 177 LINE",
"304 177 LINE",
"304 0 LINE"
);
},
{
closed = 1;
nodes = (
"304 670 LINE",
"304 245 LINE",
"100 245 LINE"
);
},
{
closed = 1;
nodes = (
"284 659 LINE",
"315 659 LINE",
"315 685 LINE",
"284 685 LINE"
);
},
{
closed = 1;
nodes = (
"84 230 LINE",
"104 230 LINE",
"104 267 LINE",
"84 267 LINE"
);
}
);
};
layerId = m01;
paths = (
{
closed = 1;
nodes = (
"275 0 LINE",
"275 117 LINE",
"321 117 LINE",
"321 188 LINE",
"275 188 LINE",
"275 490 LINE",
"152 490 LINE",
"8 180 LINE",
"8 117 LINE",
"176 117 LINE",
"176 0 LINE"
);
},
{
closed = 1;
nodes = (
"176 374 LINE",
"176 188 LINE",
"90 188 LINE"
);
}
);
width = 330;
}
);
note = four;
},
{
glyphname = five.dnom;
lastChange = "2025-02-19 08:46:37 +0000";
layers = (
{
background = {
paths = (
{
closed = 1;
nodes = (
"77 44 OFFCURVE",
"128 -10 OFFCURVE",
"251 -10 CURVE SMOOTH",
"371 -10 OFFCURVE",
"429 66 OFFCURVE",
"429 243 CURVE SMOOTH",
"429 404 OFFCURVE",
"384 472 OFFCURVE",
"287 472 CURVE SMOOTH",
"256 472 OFFCURVE",
"201 466 OFFCURVE",
"154 413 CURVE",
"160 657 LINE",
"402 657 LINE",
"402 727 LINE",
"86 727 LINE",
"74 305 LINE",
"150 305 LINE",
"162 374 OFFCURVE",
"198 409 OFFCURVE",
"255 409 CURVE SMOOTH",
"325 409 OFFCURVE",
"353 363 OFFCURVE",
"353 232 CURVE SMOOTH",
"353 101 OFFCURVE",
"320 57 OFFCURVE",
"249 57 CURVE SMOOTH",
"180 57 OFFCURVE",
"152 88 OFFCURVE",
"148 163 CURVE",
"71 163 LINE"
);
},
{
closed = 1;
nodes = (
"146 406 LINE",
"176 406 LINE",
"176 420 LINE",
"146 420 LINE"
);
}
);
};
layerId = m01;
paths = (
{
closed = 1;
nodes = (
"20 37 OFFCURVE",
"66 -7 OFFCURVE",
"164 -7 CURVE SMOOTH",
"261 -7 OFFCURVE",
"312 53 OFFCURVE",
"312 169 CURVE SMOOTH",
"312 272 OFFCURVE",
"267 329 OFFCURVE",
"187 329 CURVE SMOOTH",
"152 329 OFFCURVE",
"119 314 OFFCURVE",
"100 290 CURVE",
"108 282 LINE",
"124 287 LINE",
"128 418 LINE",
"294 418 LINE",
"294 490 LINE",
"30 490 LINE",
"22 193 LINE",
"119 193 LINE",
"125 240 OFFCURVE",
"141 262 OFFCURVE",
"166 262 CURVE SMOOTH",
"195 262 OFFCURVE",
"213 225 OFFCURVE",
"213 162 CURVE SMOOTH",
"213 95 OFFCURVE",
"196 63 OFFCURVE",
"162 63 CURVE SMOOTH",
"131 63 OFFCURVE",
"121 78 OFFCURVE",
"120 133 CURVE",
"20 133 LINE"
);
}
);
width = 330;
}
);
note = five;
},
{
glyphname = six.dnom;
lastChange = "2025-02-19 08:46:37 +0000";
layers = (
{
background = {
paths = (
{
closed = 1;
nodes = (
"178 57 OFFCURVE",
"141 119 OFFCURVE",
"141 232 CURVE SMOOTH",
"141 342 OFFCURVE",
"177 393 OFFCURVE",
"251 393 CURVE SMOOTH",
"326 393 OFFCURVE",
"364 342 OFFCURVE",
"364 232 CURVE SMOOTH",
"364 119 OFFCURVE",
"322 57 OFFCURVE",
"248 57 CURVE SMOOTH"
);
},
{
closed = 1;
nodes = (
"419 681 OFFCURVE",
"369 737 OFFCURVE",
"258 737 CURVE SMOOTH",
"83 737 OFFCURVE",
"64 588 OFFCURVE",
"64 353 CURVE SMOOTH",
"64 131 OFFCURVE",
"70 -10 OFFCURVE",
"248 -10 CURVE SMOOTH",
"373 -10 OFFCURVE",
"440 75 OFFCURVE",
"440 232 CURVE SMOOTH",
"440 377 OFFCURVE",
"377 460 OFFCURVE",
"267 460 CURVE SMOOTH",
"226 460 OFFCURVE",
"179 445 OFFCURVE",
"141 386 CURVE",
"141 451 LINE SMOOTH",
"141 610 OFFCURVE",
"171 670 OFFCURVE",
"253 670 CURVE SMOOTH",
"315 670 OFFCURVE",
"344 635 OFFCURVE",
"346 557 CURVE",
"426 557 LINE"
);
},
{
closed = 1;
nodes = (
"123 374 LINE",
"171 374 LINE",
"171 394 LINE",
"123 394 LINE"
);
}
);
};
layerId = m01;
paths = (
{
closed = 1;
nodes = (
"135 63 OFFCURVE",
"116 101 OFFCURVE",
"116 158 CURVE SMOOTH",
"116 222 OFFCURVE",
"132 251 OFFCURVE",
"164 251 CURVE SMOOTH",
"198 251 OFFCURVE",
"214 224 OFFCURVE",
"214 162 CURVE SMOOTH",
"214 101 OFFCURVE",
"193 63 OFFCURVE",
"162 63 CURVE SMOOTH"
);
},
{
closed = 1;
nodes = (
"16 99 OFFCURVE",
"29 -7 OFFCURVE",
"169 -7 CURVE SMOOTH",
"261 -7 OFFCURVE",
"314 54 OFFCURVE",
"314 162 CURVE SMOOTH",
"314 261 OFFCURVE",
"264 322 OFFCURVE",
"182 322 CURVE SMOOTH",
"144 322 OFFCURVE",
"113 304 OFFCURVE",
"95 272 CURVE",
"106 266 LINE",
"116 271 LINE",
"116 303 LINE SMOOTH",
"116 390 OFFCURVE",
"131 426 OFFCURVE",
"166 426 CURVE SMOOTH",
"192 426 OFFCURVE",
"204 405 OFFCURVE",
"203 352 CURVE",
"305 352 LINE",
"303 450 OFFCURVE",
"260 496 OFFCURVE",
"169 496 CURVE SMOOTH",
"31 496 OFFCURVE",
"16 388 OFFCURVE",
"16 238 CURVE SMOOTH"
);
}
);
width = 330;
}
);
note = six;
},
{
glyphname = seven.dnom;
lastChange = "2025-02-19 08:46:37 +0000";
layers = (
{
layerId = m01;
paths = (
{
closed = 1;
nodes = (
"155 0 LINE",
"312 431 LINE",
"312 490 LINE",
"13 490 LINE",
"13 415 LINE",
"208 415 LINE",
"53 0 LINE"
);
}
);
width = 330;
}
);
note = seven;
},
{
glyphname = eight.dnom;
lastChange = "2025-02-19 08:46:37 +0000";
layers = (
{
background = {
paths = (
{
closed = 1;
nodes = (
"362 -10 OFFCURVE",
"430 66 OFFCURVE",
"430 202 CURVE SMOOTH",
"430 306 OFFCURVE",
"389 361 OFFCURVE",
"296 383 CURVE",
"296 390 LINE",
"377 410 OFFCURVE",
"415 462 OFFCURVE",
"415 552 CURVE SMOOTH",
"415 669 OFFCURVE",
"352 737 OFFCURVE",
"232 737 CURVE SMOOTH",
"123 737 OFFCURVE",
"54 678 OFFCURVE",
"54 529 CURVE",
"130 529 LINE",
"134 632 OFFCURVE",
"161 670 OFFCURVE",
"232 670 CURVE SMOOTH",
"306 670 OFFCURVE",
"339 624 OFFCURVE",
"339 563 CURVE SMOOTH",
"339 462 OFFCURVE",
"294 417 OFFCURVE",
"190 416 CURVE",
"190 346 LINE",
"313 346 OFFCURVE",
"354 311 OFFCURVE",
"354 205 CURVE SMOOTH",
"354 105 OFFCURVE",
"314 57 OFFCURVE",
"236 57 CURVE SMOOTH",
"159 57 OFFCURVE",
"130 89 OFFCURVE",
"123 199 CURVE",
"47 199 LINE",
"49 53 OFFCURVE",
"106 -10 OFFCURVE",
"233 -10 CURVE SMOOTH"
);
}
);
};
layerId = m01;
paths = (
{
closed = 1;
nodes = (
"261 -7 OFFCURVE",
"311 41 OFFCURVE",
"311 133 CURVE SMOOTH",
"311 221 OFFCURVE",
"258 271 OFFCURVE",
"165 271 CURVE SMOOTH",
"73 271 OFFCURVE",
"18 219 OFFCURVE",
"18 133 CURVE SMOOTH",
"18 41 OFFCURVE",
"69 -7 OFFCURVE",
"165 -7 CURVE SMOOTH"
);
},
{
closed = 1;
nodes = (
"132 63 OFFCURVE",
"118 83 OFFCURVE",
"118 134 CURVE SMOOTH",
"118 189 OFFCURVE",
"134 217 OFFCURVE",
"165 217 CURVE SMOOTH",
"197 217 OFFCURVE",
"212 191 OFFCURVE",
"212 134 CURVE SMOOTH",
"212 83 OFFCURVE",
"198 63 OFFCURVE",
"165 63 CURVE SMOOTH"
);
},
{
closed = 1;
nodes = (
"75 496 OFFCURVE",
"22 447 OFFCURVE",
"22 364 CURVE SMOOTH",
"22 284 OFFCURVE",
"78 232 OFFCURVE",
"165 232 CURVE SMOOTH",
"252 232 OFFCURVE",
"307 283 OFFCURVE",
"307 364 CURVE SMOOTH",
"307 448 OFFCURVE",
"255 496 OFFCURVE",
"165 496 CURVE SMOOTH"
);
},
{
closed = 1;
nodes = (
"195 426 OFFCURVE",
"208 405 OFFCURVE",
"208 356 CURVE SMOOTH",
"208 318 OFFCURVE",
"187 285 OFFCURVE",
"165 285 CURVE SMOOTH",
"140 285 OFFCURVE",
"122 315 OFFCURVE",
"122 356 CURVE SMOOTH",
"122 404 OFFCURVE",
"136 426 OFFCURVE",
"165 426 CURVE SMOOTH"
);
},
{
closed = 1;
nodes = (
"90 236 LINE",
"152 236 LINE",
"152 269 LINE",
"90 269 LINE"
);
},
{
closed = 1;
nodes = (
"180 236 LINE",
"240 236 LINE",
"240 268 LINE",
"180 268 LINE"
);
}
);
width = 330;
}
);
note = eight;
},
{
glyphname = zero.numr;
lastChange = "2025-02-19 08:46:44 +0000";
layers = (
{
layerId = m01;
paths = (
{
closed = 1;
nodes = (
"261 231 OFFCURVE",
"313 296 OFFCURVE",
"313 419 CURVE SMOOTH",
"313 544 LINE SMOOTH",
"313 670 OFFCURVE",
"262 734 OFFCURVE",
"162 734 CURVE SMOOTH",
"64 734 OFFCURVE",
"17 672 OFFCURVE",
"17 544 CURVE SMOOTH",
"17 419 LINE SMOOTH",
"17 294 OFFCURVE",
"65 231 OFFCURVE",
"162 231 CURVE SMOOTH"
);
},
{
closed = 1;
nodes = (
"132 301 OFFCURVE",
"116 339 OFFCURVE",
"116 418 CURVE SMOOTH",
"116 546 LINE SMOOTH",
"116 624 OFFCURVE",
"132 664 OFFCURVE",
"162 664 CURVE SMOOTH",
"195 664 OFFCURVE",
"214 623 OFFCURVE",
"214 546 CURVE SMOOTH",
"214 418 LINE SMOOTH",
"214 344 OFFCURVE",
"194 301 OFFCURVE",
"162 301 CURVE SMOOTH"
);
}
);
width = 330;
}
);
note = zero;
},
{
glyphname = one.numr;
lastChange = "2025-02-19 08:46:44 +0000";
layers = (
{
layerId = m01;
paths = (
{
closed = 1;
nodes = (
"239 237 LINE",
"239 727 LINE",
"152 727 LINE",
"35 665 LINE",
"35 574 LINE",
"140 628 LINE",
"140 237 LINE"
);
}
);
width = 330;
}
);
note = one;
},
{
glyphname = two.numr;
lastChange = "2025-02-19 08:46:44 +0000";
layers = (
{
layerId = m01;
paths = (
{
closed = 1;
nodes = (
"312 237 LINE",
"312 309 LINE",
"132 309 LINE",
"292 494 OFFCURVE",
"302 543 OFFCURVE",
"302 601 CURVE SMOOTH",
"302 687 OFFCURVE",
"253 734 OFFCURVE",
"163 734 CURVE SMOOTH",
"60 734 OFFCURVE",
"11 681 OFFCURVE",
"20 578 CURVE",
"120 578 LINE",
"118 642 OFFCURVE",
"128 664 OFFCURVE",
"158 664 CURVE SMOOTH",
"191 664 OFFCURVE",
"203 650 OFFCURVE",
"203 610 CURVE SMOOTH",
"203 561 OFFCURVE",
"195 520 OFFCURVE",
"16 301 CURVE",
"16 237 LINE"
);
}
);
width = 330;
}
);
note = two;
},
{
glyphname = three.numr;
lastChange = "2025-02-19 08:46:44 +0000";
layers = (
{
background = {
paths = (
{
closed = 1;
nodes = (
"363 -10 OFFCURVE",
"431 66 OFFCURVE",
"431 202 CURVE SMOOTH",
"431 312 OFFCURVE",
"385 367 OFFCURVE",
"281 386 CURVE",
"373 404 OFFCURVE",
"416 456 OFFCURVE",
"416 552 CURVE SMOOTH",
"416 669 OFFCURVE",
"353 737 OFFCURVE",
"233 737 CURVE SMOOTH",
"124 737 OFFCURVE",
"55 678 OFFCURVE",
"55 529 CURVE",
"131 529 LINE",
"135 632 OFFCURVE",
"162 670 OFFCURVE",
"233 670 CURVE SMOOTH",
"307 670 OFFCURVE",
"340 624 OFFCURVE",
"340 563 CURVE SMOOTH",
"340 462 OFFCURVE",
"295 417 OFFCURVE",
"191 416 CURVE",
"191 346 LINE",
"314 346 OFFCURVE",
"355 311 OFFCURVE",
"355 205 CURVE SMOOTH",
"355 105 OFFCURVE",
"315 57 OFFCURVE",
"237 57 CURVE SMOOTH",
"160 57 OFFCURVE",
"131 89 OFFCURVE",
"124 199 CURVE",
"48 199 LINE",
"50 53 OFFCURVE",
"107 -10 OFFCURVE",
"234 -10 CURVE SMOOTH"
);
},
{
closed = 1;
nodes = (
"274 370 LINE",
"297 370 LINE",
"297 398 LINE",
"274 398 LINE"
);
}
);
};
layerId = m01;
paths = (
{
closed = 1;
nodes = (
"257 231 OFFCURVE",
"312 284 OFFCURVE",
"312 381 CURVE SMOOTH",
"312 441 OFFCURVE",
"288 476 OFFCURVE",
"231 498 CURVE",
"280 517 OFFCURVE",
"302 550 OFFCURVE",
"302 603 CURVE SMOOTH",
"302 687 OFFCURVE",
"249 734 OFFCURVE",
"156 734 CURVE SMOOTH",
"60 734 OFFCURVE",
"10 677 OFFCURVE",
"14 570 CURVE",
"114 570 LINE",
"114 639 OFFCURVE",
"127 664 OFFCURVE",
"158 664 CURVE SMOOTH",
"189 664 OFFCURVE",
"203 647 OFFCURVE",
"203 610 CURVE SMOOTH",
"203 543 OFFCURVE",
"179 525 OFFCURVE",
"104 531 CURVE",
"104 458 LINE",
"196 461 OFFCURVE",
"212 451 OFFCURVE",
"212 383 CURVE SMOOTH",
"212 325 OFFCURVE",
"196 301 OFFCURVE",
"159 301 CURVE SMOOTH",
"122 301 OFFCURVE",
"111 319 OFFCURVE",
"108 394 CURVE",
"10 394 LINE",
"8 283 OFFCURVE",
"54 231 OFFCURVE",
"157 231 CURVE SMOOTH"
);
}
);
width = 330;
}
);
note = three;
},
{
glyphname = four.numr;
lastChange = "2025-02-19 08:48:05 +0000";
layers = (
{
background = {
paths = (
{
closed = 1;
nodes = (
"380 0 LINE",
"380 177 LINE",
"449 177 LINE",
"449 245 LINE",
"380 245 LINE",
"380 727 LINE",
"258 727 LINE",
"29 252 LINE",
"29 177 LINE",
"304 177 LINE",
"304 0 LINE"
);
},
{
closed = 1;
nodes = (
"304 670 LINE",
"304 245 LINE",
"100 245 LINE"
);
},
{
closed = 1;
nodes = (
"284 659 LINE",
"315 659 LINE",
"315 685 LINE",
"284 685 LINE"
);
},
{
closed = 1;
nodes = (
"84 230 LINE",
"104 230 LINE",
"104 267 LINE",
"84 267 LINE"
);
}
);
};
layerId = m01;
paths = (
{
closed = 1;
nodes = (
"275 237 LINE",
"275 354 LINE",
"321 354 LINE",
"321 425 LINE",
"275 425 LINE",
"275 727 LINE",
"152 727 LINE",
"8 417 LINE",
"8 354 LINE",
"176 354 LINE",
"176 237 LINE"
);
},
{
closed = 1;
nodes = (
"176 611 LINE",
"176 425 LINE",
"90 425 LINE"
);
}
);
width = 330;
}
);
note = four;
},
{
glyphname = five.numr;
lastChange = "2025-02-19 08:46:44 +0000";
layers = (
{
background = {
paths = (
{
closed = 1;
nodes = (
"77 44 OFFCURVE",
"128 -10 OFFCURVE",
"251 -10 CURVE SMOOTH",
"371 -10 OFFCURVE",
"429 66 OFFCURVE",
"429 243 CURVE SMOOTH",
"429 404 OFFCURVE",
"384 472 OFFCURVE",
"287 472 CURVE SMOOTH",
"256 472 OFFCURVE",
"201 466 OFFCURVE",
"154 413 CURVE",
"160 657 LINE",
"402 657 LINE",
"402 727 LINE",
"86 727 LINE",
"74 305 LINE",
"150 305 LINE",
"162 374 OFFCURVE",
"198 409 OFFCURVE",
"255 409 CURVE SMOOTH",
"325 409 OFFCURVE",
"353 363 OFFCURVE",
"353 232 CURVE SMOOTH",
"353 101 OFFCURVE",
"320 57 OFFCURVE",
"249 57 CURVE SMOOTH",
"180 57 OFFCURVE",
"152 88 OFFCURVE",
"148 163 CURVE",
"71 163 LINE"
);
},
{
closed = 1;
nodes = (
"146 406 LINE",
"176 406 LINE",
"176 420 LINE",
"146 420 LINE"
);
}
);
};
layerId = m01;
paths = (
{
closed = 1;
nodes = (
"20 274 OFFCURVE",
"65 231 OFFCURVE",
"164 231 CURVE SMOOTH",
"261 231 OFFCURVE",
"312 291 OFFCURVE",
"312 407 CURVE SMOOTH",
"312 510 OFFCURVE",
"267 567 OFFCURVE",
"187 567 CURVE SMOOTH",
"153 567 OFFCURVE",
"119 552 OFFCURVE",
"100 528 CURVE",
"108 520 LINE",
"124 523 LINE",
"128 655 LINE",
"294 655 LINE",
"294 727 LINE",
"30 727 LINE",
"22 431 LINE",
"119 431 LINE",
"125 478 OFFCURVE",
"141 499 OFFCURVE",
"166 499 CURVE SMOOTH",
"195 499 OFFCURVE",
"213 463 OFFCURVE",
"213 399 CURVE SMOOTH",
"213 332 OFFCURVE",
"196 301 OFFCURVE",
"162 301 CURVE SMOOTH",
"130 301 OFFCURVE",
"121 316 OFFCURVE",
"120 371 CURVE",
"20 371 LINE"
);
}
);
width = 330;
}
);
note = five;
},
{
glyphname = six.numr;
lastChange = "2025-02-19 08:46:44 +0000";
layers = (
{
background = {
paths = (
{
closed = 1;
nodes = (
"178 57 OFFCURVE",
"141 119 OFFCURVE",
"141 232 CURVE SMOOTH",
"141 342 OFFCURVE",
"177 393 OFFCURVE",
"251 393 CURVE SMOOTH",
"326 393 OFFCURVE",
"364 342 OFFCURVE",
"364 232 CURVE SMOOTH",
"364 119 OFFCURVE",
"322 57 OFFCURVE",
"248 57 CURVE SMOOTH"
);
},
{
closed = 1;
nodes = (
"419 681 OFFCURVE",
"369 737 OFFCURVE",
"258 737 CURVE SMOOTH",
"83 737 OFFCURVE",
"64 588 OFFCURVE",
"64 353 CURVE SMOOTH",
"64 131 OFFCURVE",
"70 -10 OFFCURVE",
"248 -10 CURVE SMOOTH",
"373 -10 OFFCURVE",
"440 75 OFFCURVE",
"440 232 CURVE SMOOTH",
"440 377 OFFCURVE",
"377 460 OFFCURVE",
"267 460 CURVE SMOOTH",
"226 460 OFFCURVE",
"179 445 OFFCURVE",
"141 386 CURVE",
"141 451 LINE SMOOTH",
"141 610 OFFCURVE",
"171 670 OFFCURVE",
"253 670 CURVE SMOOTH",
"315 670 OFFCURVE",
"344 635 OFFCURVE",
"346 557 CURVE",
"426 557 LINE"
);
},
{
closed = 1;
nodes = (
"123 374 LINE",
"171 374 LINE",
"171 394 LINE",
"123 394 LINE"
);
}
);
};
layerId = m01;
paths = (
{
closed = 1;
nodes = (
"135 301 OFFCURVE",
"116 339 OFFCURVE",
"116 395 CURVE SMOOTH",
"116 459 OFFCURVE",
"132 489 OFFCURVE",
"164 489 CURVE SMOOTH",
"197 489 OFFCURVE",
"214 461 OFFCURVE",
"214 399 CURVE SMOOTH",
"214 338 OFFCURVE",
"193 301 OFFCURVE",
"162 301 CURVE SMOOTH"
);
},
{
closed = 1;
nodes = (
"16 337 OFFCURVE",
"29 231 OFFCURVE",
"169 231 CURVE SMOOTH",
"262 231 OFFCURVE",
"314 292 OFFCURVE",
"314 399 CURVE SMOOTH",
"314 498 OFFCURVE",
"264 559 OFFCURVE",
"182 559 CURVE SMOOTH",
"143 559 OFFCURVE",
"112 541 OFFCURVE",
"95 509 CURVE",
"106 503 LINE",
"116 508 LINE",
"116 540 LINE SMOOTH",
"116 628 OFFCURVE",
"131 664 OFFCURVE",
"166 664 CURVE SMOOTH",
"192 664 OFFCURVE",
"204 642 OFFCURVE",
"203 589 CURVE",
"305 589 LINE",
"303 688 OFFCURVE",
"260 734 OFFCURVE",
"169 734 CURVE SMOOTH",
"31 734 OFFCURVE",
"16 626 OFFCURVE",
"16 475 CURVE SMOOTH"
);
}
);
width = 330;
}
);
note = six;
},
{
glyphname = seven.numr;
lastChange = "2025-02-19 08:46:44 +0000";
layers = (
{
layerId = m01;
paths = (
{
closed = 1;
nodes = (
"155 237 LINE",
"312 669 LINE",
"312 727 LINE",
"13 727 LINE",
"13 652 LINE",
"208 652 LINE",
"53 237 LINE"
);
}
);
width = 330;
}
);
note = seven;
},
{
glyphname = eight.numr;
lastChange = "2025-02-19 08:46:44 +0000";
layers = (
{
background = {
paths = (
{
closed = 1;
nodes = (
"362 -10 OFFCURVE",
"430 66 OFFCURVE",
"430 202 CURVE SMOOTH",
"430 306 OFFCURVE",
"389 361 OFFCURVE",
"296 383 CURVE",
"296 390 LINE",
"377 410 OFFCURVE",
"415 462 OFFCURVE",
"415 552 CURVE SMOOTH",
"415 669 OFFCURVE",
"352 737 OFFCURVE",
"232 737 CURVE SMOOTH",
"123 737 OFFCURVE",
"54 678 OFFCURVE",
"54 529 CURVE",
"130 529 LINE",
"134 632 OFFCURVE",
"161 670 OFFCURVE",
"232 670 CURVE SMOOTH",
"306 670 OFFCURVE",
"339 624 OFFCURVE",
"339 563 CURVE SMOOTH",
"339 462 OFFCURVE",
"294 417 OFFCURVE",
"190 416 CURVE",
"190 346 LINE",
"313 346 OFFCURVE",
"354 311 OFFCURVE",
"354 205 CURVE SMOOTH",
"354 105 OFFCURVE",
"314 57 OFFCURVE",
"236 57 CURVE SMOOTH",
"159 57 OFFCURVE",
"130 89 OFFCURVE",
"123 199 CURVE",
"47 199 LINE",
"49 53 OFFCURVE",
"106 -10 OFFCURVE",
"233 -10 CURVE SMOOTH"
);
}
);
};
layerId = m01;
paths = (
{
closed = 1;
nodes = (
"261 230 OFFCURVE",
"311 278 OFFCURVE",
"311 370 CURVE SMOOTH",
"311 458 OFFCURVE",
"258 508 OFFCURVE",
"165 508 CURVE SMOOTH",
"73 508 OFFCURVE",
"18 456 OFFCURVE",
"18 370 CURVE SMOOTH",
"18 278 OFFCURVE",
"69 230 OFFCURVE",
"165 230 CURVE SMOOTH"
);
},
{
closed = 1;
nodes = (
"132 300 OFFCURVE",
"118 320 OFFCURVE",
"118 372 CURVE SMOOTH",
"118 426 OFFCURVE",
"134 454 OFFCURVE",
"165 454 CURVE SMOOTH",
"196 454 OFFCURVE",
"212 428 OFFCURVE",
"212 372 CURVE SMOOTH",
"212 320 OFFCURVE",
"198 300 OFFCURVE",
"165 300 CURVE SMOOTH"
);
},
{
closed = 1;
nodes = (
"75 733 OFFCURVE",
"22 684 OFFCURVE",
"22 601 CURVE SMOOTH",
"22 521 OFFCURVE",
"78 469 OFFCURVE",
"165 469 CURVE SMOOTH",
"252 469 OFFCURVE",
"307 520 OFFCURVE",
"307 601 CURVE SMOOTH",
"307 685 OFFCURVE",
"255 733 OFFCURVE",
"165 733 CURVE SMOOTH"
);
},
{
closed = 1;
nodes = (
"195 663 OFFCURVE",
"208 642 OFFCURVE",
"208 593 CURVE SMOOTH",
"208 555 OFFCURVE",
"187 522 OFFCURVE",
"165 522 CURVE SMOOTH",
"140 522 OFFCURVE",
"122 552 OFFCURVE",
"122 593 CURVE SMOOTH",
"122 641 OFFCURVE",
"136 663 OFFCURVE",
"165 663 CURVE SMOOTH"
);
},
{
closed = 1;
nodes = (
"90 473 LINE",
"152 473 LINE",
"152 506 LINE",
"90 506 LINE"
);
},
{
closed = 1;
nodes = (
"180 473 LINE",
"240 473 LINE",
"240 505 LINE",
"180 505 LINE"
);
}
);
width = 330;
}
);
note = eight;
},
{
glyphname = fraction;
lastChange = "2025-02-19 08:47:27 +0000";
layers = (
{
layerId = m01;
paths = (
{
closed = 1;
nodes = (
"6 0 LINE",
"356 727 LINE",
"271 727 LINE",
"-80 0 LINE"
);
}
);
vertWidth = 1200;
width = 276;
}
);
note = uni2215;
unicode = 2044;
},
{
glyphname = "One-roman";
lastChange = "2025-02-18 09:08:28 +0000";
layers = (
{
layerId = m01;
paths = (
{
closed = 1;
nodes = (
"110 0 LINE",
"226 0 LINE",
"226 727 LINE",
"110 727 LINE"
);
},
{
closed = 1;
nodes = (
"40 643 LINE",
"296 643 LINE",
"296 727 LINE",
"40 727 LINE"
);
},
{
closed = 1;
nodes = (
"40 0 LINE",
"296 0 LINE",
"296 84 LINE",
"40 84 LINE"
);
}
);
width = 336;
}
);
unicode = 2160;
},
{
glyphname = "Five-roman";
lastChange = "2025-02-18 09:07:18 +0000";
layers = (
{
layerId = m01;
paths = (
{
closed = 1;
nodes = (
"40 643 LINE",
"307 643 LINE",
"307 727 LINE",
"40 727 LINE"
);
},
{
closed = 1;
nodes = (
"413 643 LINE",
"680 643 LINE",
"680 727 LINE",
"413 727 LINE"
);
},
{
closed = 1;
nodes = (
"440 0 LINE",
"628 727 LINE",
"498 727 LINE",
"342 42 LINE",
"382 42 LINE",
"223 727 LINE",
"93 727 LINE",
"281 0 LINE"
);
}
);
width = 720;
}
);
leftMetricsKey = "One-roman";
rightKerningGroup = V;
rightMetricsKey = "One-roman";
unicode = 2164;
},
{
glyphname = "Ten-roman";
lastChange = "2025-02-18 09:07:49 +0000";
layers = (
{
layerId = m01;
paths = (
{
closed = 1;
nodes = (
"40 643 LINE",
"307 643 LINE",
"307 727 LINE",
"40 727 LINE"
);
},
{
closed = 1;
nodes = (
"369 643 LINE",
"636 643 LINE",
"636 727 LINE",
"369 727 LINE"
);
},
{
closed = 1;
nodes = (
"40 0 LINE",
"307 0 LINE",
"307 84 LINE",
"40 84 LINE"
);
},
{
closed = 1;
nodes = (
"369 0 LINE",
"636 0 LINE",
"636 84 LINE",
"369 84 LINE"
);
},
{
closed = 1;
nodes = (
"211 0 LINE",
"354 297 LINE",
"322 297 LINE",
"464 0 LINE",
"598 0 LINE",
"405 364 LINE",
"598 727 LINE",
"464 727 LINE",
"322 430 LINE",
"354 430 LINE",
"211 727 LINE",
"78 727 LINE",
"271 364 LINE",
"78 0 LINE"
);
}
);
width = 676;
}
);
leftMetricsKey = "One-roman";
rightMetricsKey = "One-roman";
unicode = 2169;
},
{
glyphname = period;
lastChange = "2025-02-16 20:14:01 +0000";
layers = (
{
layerId = m01;
paths = (
{
closed = 1;
nodes = (
"176 0 LINE",
"176 130 LINE",
"50 130 LINE",
"50 0 LINE"
);
}
);
vertWidth = 1200;
width = 226;
}
);
leftKerningGroup = comma;
note = period;
rightKerningGroup = comma;
unicode = 002E;
},
{
glyphname = comma;
lastChange = "2025-02-17 08:56:04 +0000";
layers = (
{
anchors = (
{
name = _vicentino;
position = "{117, 163}";
}
);
layerId = m01;
paths = (
{
closed = 1;
nodes = (
"121 -86 LINE",
"210 130 LINE",
"70 130 LINE",
"17 -86 LINE"
);
}
);
vertWidth = 1200;
width = 260;
}
);
leftKerningGroup = comma;
leftMetricsKey = "=period/3";
note = comma;
rightKerningGroup = comma;
rightMetricsKey = period;
unicode = 002C;
},
{
glyphname = colon;
lastChange = "2025-02-18 15:56:31 +0000";
layers = (
{
background = {
paths = (
{
closed = 1;
nodes = (
"152 413 LINE",
"152 505 LINE",
"60 505 LINE",
"60 413 LINE"
);
},
{
closed = 1;
nodes = (
"152 0 LINE",
"152 92 LINE",
"60 92 LINE",
"60 0 LINE"
);
}
);
};
components = (
{
name = period;
},
{
name = period;
transform = "{1, 0, 0, 1, 0, 413}";
}
);
layerId = m01;
vertWidth = 1200;
width = 226;
}
);
leftMetricsKey = period;
note = colon;
rightMetricsKey = period;
unicode = 003A;
},
{
glyphname = semicolon;
lastChange = "2025-02-18 15:56:31 +0000";
layers = (
{
background = {
paths = (
{
closed = 1;
nodes = (
"71 -76 LINE",
"154 116 LINE",
"61 116 LINE",
"16 -76 LINE"
);
},
{
closed = 1;
nodes = (
"132 413 LINE",
"132 505 LINE",
"40 505 LINE",
"40 413 LINE"
);
}
);
};
components = (
{
name = period;
transform = "{1, 0, 0, 1, 10, 413}";
},
{
name = comma;
}
);
layerId = m01;
vertWidth = 1200;
width = 260;
}
);
leftMetricsKey = comma;
note = semicolon;
rightMetricsKey = comma;
unicode = 003B;
},
{
glyphname = ellipsis;
lastChange = "2025-02-17 08:56:17 +0000";
layers = (
{
background = {
paths = (
{
closed = 1;
nodes = (
"592 0 LINE",
"592 92 LINE",
"500 92 LINE",
"500 0 LINE"
);
},
{
closed = 1;
nodes = (
"152 0 LINE",
"152 92 LINE",
"60 92 LINE",
"60 0 LINE"
);
},
{
closed = 1;
nodes = (
"372 0 LINE",
"372 92 LINE",
"280 92 LINE",
"280 0 LINE"
);
}
);
};
components = (
{
name = period;
},
{
name = period;
transform = "{1, 0, 0, 1, 230, 0}";
},
{
name = period;
transform = "{1, 0, 0, 1, 460, 0}";
}
);
layerId = m01;
vertWidth = 1200;
width = 686;
}
);
leftKerningGroup = comma;
leftMetricsKey = period;
note = ellipsis;
rightKerningGroup = comma;
rightMetricsKey = period;
unicode = 2026;
},
{
glyphname = exclam;
lastChange = "2025-02-17 09:02:05 +0000";
layers = (
{
background = {
paths = (
{
closed = 1;
nodes = (
"173 0 LINE",
"173 93 LINE",
"85 93 LINE",
"85 0 LINE"
);
}
);
};
components = (
{
name = period;
transform = "{1, 0, 0, 1, 16, 0}";
}
);
layerId = m01;
paths = (
{
closed = 1;
nodes = (
"181 198 LINE",
"193 727 LINE",
"60 727 LINE",
"76 198 LINE"
);
}
);
vertWidth = 1200;
width = 253;
}
);
leftMetricsKey = "=period+10";
note = exclam;
rightMetricsKey = "=period+10";
unicode = 0021;
},
{
glyphname = question;
lastChange = "2025-02-17 09:04:34 +0000";
layers = (
{
background = {
paths = (
{
closed = 1;
nodes = (
"256 198 LINE",
"268 727 LINE",
"135 727 LINE",
"151 198 LINE"
);
}
);
};
components = (
{
name = period;
transform = "{1, 0, 0, 1, 91, 0}";
}
);
layerId = m01;
paths = (
{
closed = 1;
nodes = (
"267 198 LINE",
"267 236 LINE SMOOTH",
"267 389 OFFCURVE",
"400 363 OFFCURVE",
"400 548 CURVE SMOOTH",
"400 673 OFFCURVE",
"337 737 OFFCURVE",
"217 737 CURVE SMOOTH",
"39 737 OFFCURVE",
"34 604 OFFCURVE",
"35 510 CURVE",
"161 510 LINE",
"160 618 OFFCURVE",
"175 650 OFFCURVE",
"213 650 CURVE SMOOTH",
"255 650 OFFCURVE",
"274 623 OFFCURVE",
"274 554 CURVE SMOOTH",
"274 408 OFFCURVE",
"141 443 OFFCURVE",
"141 259 CURVE SMOOTH",
"141 198 LINE"
);
}
);
vertWidth = 1200;
width = 435;
}
);
note = question;
unicode = 003F;
},
{
glyphname = periodcentered;
lastChange = "2025-02-18 15:56:31 +0000";
layers = (
{
background = {
paths = (
{
closed = 1;
nodes = (
"162 235 LINE",
"162 327 LINE",
"70 327 LINE",
"70 235 LINE"
);
}
);
};
components = (
{
name = period;
transform = "{1, 0, 0, 1, 10, 235}";
}
);
layerId = m01;
vertWidth = 1200;
width = 246;
}
);
leftMetricsKey = exclam;
note = periodcentered;
rightMetricsKey = exclam;
unicode = 00B7;
},
{
glyphname = bullet;
lastChange = "2025-02-17 09:03:58 +0000";
layers = (
{
layerId = m01;
paths = (
{
closed = 1;
nodes = (
"239 285 OFFCURVE",
"290 336 OFFCURVE",
"290 400 CURVE SMOOTH",
"290 464 OFFCURVE",
"239 515 OFFCURVE",
"175 515 CURVE SMOOTH",
"111 515 OFFCURVE",
"60 464 OFFCURVE",
"60 400 CURVE SMOOTH",
"60 336 OFFCURVE",
"111 285 OFFCURVE",
"175 285 CURVE SMOOTH"
);
}
);
vertWidth = 1200;
width = 350;
}
);
leftMetricsKey = exclam;
note = bullet;
rightMetricsKey = exclam;
unicode = 2022;
},
{
glyphname = asterisk;
lastChange = "2025-02-17 09:29:14 +0000";
layers = (
{
layerId = m01;
paths = (
{
closed = 1;
nodes = (
"155 561 LINE",
"134 395 LINE",
"232 395 LINE",
"211 561 LINE",
"232 727 LINE",
"134 727 LINE"
);
},
{
closed = 1;
nodes = (
"169 537 LINE",
"302 436 LINE",
"351 520 LINE",
"197 585 LINE",
"64 686 LINE",
"15 602 LINE"
);
},
{
closed = 1;
nodes = (
"197 537 LINE",
"351 602 LINE",
"302 686 LINE",
"169 585 LINE",
"15 520 LINE",
"64 436 LINE"
);
}
);
vertWidth = 1200;
width = 366;
}
);
note = asterisk;
unicode = 002A;
},
{
glyphname = numbersign;
lastChange = "2025-02-17 09:07:26 +0000";
layers = (
{
layerId = m01;
paths = (
{
closed = 1;
nodes = (
"70 0 LINE",
"182 0 LINE",
"359 727 LINE",
"247 727 LINE"
);
},
{
closed = 1;
nodes = (
"279 0 LINE",
"391 0 LINE",
"568 727 LINE",
"456 727 LINE"
);
},
{
closed = 1;
nodes = (
"98 448 LINE",
"602 448 LINE",
"602 538 LINE",
"98 538 LINE"
);
},
{
closed = 1;
nodes = (
"35 200 LINE",
"539 200 LINE",
"539 290 LINE",
"35 290 LINE"
);
}
);
vertWidth = 1200;
width = 637;
}
);
note = numbersign;
unicode = 0023;
},
{
glyphname = slash;
lastChange = "2025-02-17 09:05:04 +0000";
layers = (
{
layerId = m01;
paths = (
{
closed = 1;
nodes = (
"140 -40 LINE",
"351 767 LINE",
"237 767 LINE",
"25 -40 LINE"
);
}
);
vertWidth = 1200;
width = 376;
}
);
note = slash;
unicode = 002F;
},
{
glyphname = parenleft;
lastChange = "2025-02-17 09:10:01 +0000";
layers = (
{
layerId = m01;
paths = (
{
closed = 1;
nodes = (
"241 -132 LINE",
"196 60 OFFCURVE",
"176 194 OFFCURVE",
"176 312 CURVE SMOOTH",
"176 449 OFFCURVE",
"194 571 OFFCURVE",
"241 757 CURVE",
"134 757 LINE",
"78 562 OFFCURVE",
"50 416 OFFCURVE",
"50 312 CURVE SMOOTH",
"50 204 OFFCURVE",
"78 58 OFFCURVE",
"134 -132 CURVE"
);
}
);
vertWidth = 1200;
width = 271;
}
);
note = parenleft;
unicode = 0028;
},
{
glyphname = braceleft;
lastChange = "2025-02-17 09:11:38 +0000";
layers = (
{
layerId = m01;
paths = (
{
closed = 1;
nodes = (
"353 -61 LINE",
"246 -58 OFFCURVE",
"233 -54 OFFCURVE",
"233 59 CURVE SMOOTH",
"233 109 LINE SMOOTH",
"233 224 OFFCURVE",
"207 278 OFFCURVE",
"119 333 CURVE",
"204 387 OFFCURVE",
"233 443 OFFCURVE",
"233 547 CURVE SMOOTH",
"233 600 LINE SMOOTH",
"233 713 OFFCURVE",
"256 730 OFFCURVE",
"353 725 CURVE",
"353 807 LINE",
"177 813 OFFCURVE",
"112 755 OFFCURVE",
"112 594 CURVE SMOOTH",
"112 546 LINE SMOOTH",
"112 422 OFFCURVE",
"92 392 OFFCURVE",
"15 373 CURVE",
"15 293 LINE",
"93 270 OFFCURVE",
"112 241 OFFCURVE",
"112 111 CURVE SMOOTH",
"112 64 LINE SMOOTH",
"112 -71 OFFCURVE",
"156 -148 OFFCURVE",
"353 -141 CURVE"
);
}
);
vertWidth = 1200;
width = 368;
}
);
note = braceleft;
unicode = 007B;
},
{
glyphname = bracketleft;
lastChange = "2025-02-17 09:12:13 +0000";
layers = (
{
layerId = m01;
paths = (
{
closed = 1;
nodes = (
"247 -142 LINE",
"247 -49 LINE",
"176 -49 LINE",
"176 726 LINE",
"247 726 LINE",
"247 818 LINE",
"50 818 LINE",
"50 -142 LINE"
);
}
);
vertWidth = 1200;
width = 267;
}
);
note = bracketleft;
unicode = 005B;
},
{
glyphname = hyphen;
lastChange = "2025-02-17 09:13:12 +0000";
layers = (
{
layerId = m01;
paths = (
{
closed = 1;
nodes = (
"333 238 LINE",
"333 339 LINE",
"60 339 LINE",
"60 238 LINE"
);
}
);
vertWidth = 1200;
width = 393;
}
);
note = hyphen;
unicode = 002D;
},
{
glyphname = endash;
lastChange = "2025-02-17 09:13:20 +0000";
layers = (
{
layerId = m01;
paths = (
{
closed = 1;
nodes = (
"545 238 LINE",
"545 339 LINE",
"60 339 LINE",
"60 238 LINE"
);
}
);
vertWidth = 1200;
width = 605;
}
);
leftMetricsKey = hyphen;
note = endash;
rightMetricsKey = hyphen;
unicode = 2013;
},
{
glyphname = emdash;
lastChange = "2025-02-17 09:13:20 +0000";
layers = (
{
layerId = m01;
paths = (
{
closed = 1;
nodes = (
"717 238 LINE",
"717 339 LINE",
"60 339 LINE",
"60 238 LINE"
);
}
);
vertWidth = 1200;
width = 777;
}
);
leftMetricsKey = hyphen;
note = emdash;
rightMetricsKey = hyphen;
unicode = 2014;
},
{
glyphname = underscore;
lastChange = "2025-02-17 09:13:39 +0000";
layers = (
{
layerId = m01;
paths = (
{
closed = 1;
nodes = (
"589 -101 LINE",
"589 0 LINE",
"10 0 LINE",
"10 -101 LINE"
);
}
);
vertWidth = 1200;
width = 599;
}
);
note = underscore;
unicode = 005F;
},
{
glyphname = quotedblbase;
lastChange = "2025-02-17 09:19:23 +0000";
layers = (
{
background = {
paths = (
{
closed = 1;
nodes = (
"90 -77 LINE",
"185 105 LINE",
"87 105 LINE",
"30 -77 LINE"
);
},
{
closed = 1;
nodes = (
"240 -77 LINE",
"335 105 LINE",
"237 105 LINE",
"180 -77 LINE"
);
}
);
};
components = (
{
name = quotesinglbase;
transform = "{1, 0, 0, 1, 0, -24}";
},
{
name = quotesinglbase;
transform = "{1, 0, 0, 1, 190, -24}";
}
);
layerId = m01;
vertWidth = 1200;
width = 446;
}
);
leftMetricsKey = quoteright;
note = quotedblbase;
rightKerningGroup = comma;
rightMetricsKey = quoteright;
unicode = 201E;
},
{
glyphname = quoteright;
lastChange = "2025-02-18 08:32:42 +0000";
layers = (
{
layerId = m01;
paths = (
{
closed = 1;
nodes = (
"128 540 LINE",
"226 727 LINE",
"85 727 LINE",
"20 540 LINE"
);
}
);
vertWidth = 1200;
width = 256;
}
);
leftKerningGroup = quote;
note = quoteright;
rightKerningGroup = quote;
unicode = 2019;
},
{
glyphname = guillemetleft;
lastChange = "2025-02-17 09:22:14 +0000";
layers = (
{
background = {
paths = (
{
closed = 1;
nodes = (
"123 266 LINE",
"201 430 LINE",
"140 430 LINE",
"45 266 LINE"
);
},
{
closed = 1;
nodes = (
"140 102 LINE",
"201 102 LINE",
"123 266 LINE",
"45 266 LINE"
);
},
{
closed = 1;
nodes = (
"302 266 LINE",
"380 430 LINE",
"319 430 LINE",
"224 266 LINE"
);
},
{
closed = 1;
nodes = (
"319 102 LINE",
"380 102 LINE",
"302 266 LINE",
"224 266 LINE"
);
}
);
};
components = (
{
name = guilsinglleft;
},
{
name = guilsinglleft;
transform = "{1, 0, 0, 1, 180, 0}";
}
);
layerId = m01;
vertWidth = 1200;
width = 469;
}
);
leftMetricsKey = o;
note = guillemotleft;
rightMetricsKey = o;
unicode = 00AB;
},
{
glyphname = guilsinglleft;
lastChange = "2025-02-17 09:21:29 +0000";
layers = (
{
layerId = m01;
paths = (
{
closed = 1;
nodes = (
"157 266 LINE",
"254 442 LINE",
"144 442 LINE",
"35 266 LINE"
);
},
{
closed = 1;
nodes = (
"144 90 LINE",
"254 90 LINE",
"157 266 LINE",
"35 266 LINE"
);
}
);
width = 289;
}
);
leftMetricsKey = o;
rightMetricsKey = o;
unicode = 2039;
},
{
glyphname = quotesingle;
lastChange = "2025-02-18 08:31:17 +0000";
layers = (
{
background = {
paths = (
{
closed = 1;
nodes = (
"125 451 LINE",
"142 727 LINE",
"56 727 LINE",
"73 451 LINE"
);
}
);
};
layerId = m01;
paths = (
{
closed = 1;
nodes = (
"123 533 LINE",
"163 727 LINE",
"35 727 LINE",
"35 533 LINE"
);
}
);
vertWidth = 1200;
width = 198;
}
);
leftKerningGroup = quote;
leftMetricsKey = o;
note = quotesingle;
rightKerningGroup = quote;
rightMetricsKey = o;
unicode = 0027;
},
{
glyphname = asterisk_S.liga;
lastChange = "2025-02-15 08:54:04 +0000";
layers = (
{
anchors = (
{
name = arrowDown;
position = "{222, 371}";
},
{
name = arrowUp;
position = "{222, 371}";
}
);
layerId = m01;
paths = (
{
closed = 1;
nodes = (
"384 518 LINE",
"280 518 LINE",
"280 513 LINE SMOOTH",
"280 470 OFFCURVE",
"260 428 OFFCURVE",
"222 390 CURVE",
"184 428 OFFCURVE",
"164 470 OFFCURVE",
"164 513 CURVE SMOOTH",
"164 518 LINE",
"60 518 LINE",
"60 413 LINE",
"66 413 LINE SMOOTH",
"105 413 OFFCURVE",
"156 395 OFFCURVE",
"193 371 CURVE",
"151 341 OFFCURVE",
"109 327 OFFCURVE",
"66 327 CURVE SMOOTH",
"60 327 LINE",
"60 222 LINE",
"164 222 LINE",
"164 227 LINE SMOOTH",
"164 270 OFFCURVE",
"184 312 OFFCURVE",
"222 350 CURVE",
"260 312 OFFCURVE",
"280 270 OFFCURVE",
"280 227 CURVE SMOOTH",
"280 222 LINE",
"384 222 LINE",
"384 327 LINE",
"378 327 LINE SMOOTH",
"330 327 OFFCURVE",
"288 344 OFFCURVE",
"251 371 CURVE",
"292 399 OFFCURVE",
"331 413 OFFCURVE",
"368 413 CURVE SMOOTH",
"384 413 LINE"
);
}
);
width = 444;
}
);
unicode = E263;
},
{
glyphname = asterisk_f.liga;
lastChange = "2025-02-15 08:54:04 +0000";
layers = (
{
anchors = (
{
name = arrowDown;
position = "{71, 371}";
},
{
name = arrowUp;
position = "{71, 371}";
}
);
layerId = m01;
paths = (
{
closed = 1;
nodes = (
"92 329 LINE SMOOTH",
"92 393 OFFCURVE",
"143 432 OFFCURVE",
"187 432 CURVE SMOOTH",
"224 432 OFFCURVE",
"246 407 OFFCURVE",
"246 370 CURVE SMOOTH",
"246 317 OFFCURVE",
"202 242 OFFCURVE",
"92 174 CURVE"
);
},
{
closed = 1;
nodes = (
"50 107 LINE",
"61 107 LINE",
"279 242 OFFCURVE",
"342 276 OFFCURVE",
"342 376 CURVE SMOOTH",
"342 447 OFFCURVE",
"285 487 OFFCURVE",
"220 487 CURVE SMOOTH",
"176 487 OFFCURVE",
"128 468 OFFCURVE",
"92 428 CURVE",
"92 742 LINE",
"50 742 LINE"
);
}
);
width = 392;
}
);
unicode = E260;
},
{
glyphname = asterisk_n.liga;
lastChange = "2025-02-15 08:54:04 +0000";
layers = (
{
anchors = (
{
name = arrowDown;
position = "{257, 371}";
},
{
name = arrowUp;
position = "{71, 371}";
}
);
layerId = m01;
paths = (
{
closed = 1;
nodes = (
"92 430 LINE",
"236 477 LINE",
"236 312 LINE",
"92 265 LINE"
);
},
{
closed = 1;
nodes = (
"278 585 LINE",
"92 529 LINE",
"92 742 LINE",
"50 742 LINE",
"50 157 LINE",
"236 213 LINE",
"236 0 LINE",
"278 0 LINE"
);
}
);
width = 328;
}
);
unicode = E261;
},
{
glyphname = asterisk_o_one_one.liga;
lastChange = "2025-02-15 08:54:04 +0000";
layers = (
{
anchors = (
{
name = arrowUp;
position = "{185, 371}";
}
);
layerId = m01;
paths = (
{
closed = 1;
nodes = (
"322 387 LINE",
"322 496 LINE",
"50 355 LINE",
"50 246 LINE"
);
},
{
closed = 1;
nodes = (
"206 15 LINE",
"206 727 LINE",
"164 727 LINE",
"164 15 LINE"
);
}
);
width = 372;
}
);
unicode = E2E3;
},
{
glyphname = asterisk_o_one_three.liga;
lastChange = "2025-02-15 08:54:04 +0000";
layers = (
{
layerId = m01;
paths = (
{
closed = 1;
nodes = (
"365 107 LINE",
"365 697 LINE",
"323 697 LINE",
"323 428 LINE",
"285 478 OFFCURVE",
"231 487 OFFCURVE",
"187 487 CURVE SMOOTH",
"122 487 OFFCURVE",
"50 447 OFFCURVE",
"50 376 CURVE SMOOTH",
"50 276 OFFCURVE",
"136 242 OFFCURVE",
"354 107 CURVE"
);
},
{
closed = 1;
nodes = (
"213 242 OFFCURVE",
"141 317 OFFCURVE",
"141 370 CURVE SMOOTH",
"141 412 OFFCURVE",
"183 433 OFFCURVE",
"219 433 CURVE SMOOTH",
"271 433 OFFCURVE",
"323 403 OFFCURVE",
"323 329 CURVE SMOOTH",
"323 174 LINE"
);
},
{
closed = 1;
nodes = (
"221 207 LINE",
"263 207 LINE",
"263 742 LINE",
"221 742 LINE"
);
}
);
width = 415;
}
);
unicode = E2E4;
},
{
glyphname = asterisk_o_two_three.liga;
lastChange = "2025-02-15 08:54:04 +0000";
layers = (
{
components = (
{
name = _part.arrowUpOne;
transform = "{1, 0, 0, 1, 0, -92}";
}
);
layerId = m01;
paths = (
{
closed = 1;
nodes = (
"129 265 LINE",
"171 265 LINE",
"171 530 LINE",
"129 530 LINE"
);
}
);
width = 300;
}
);
unicode = E2EA;
},
{
glyphname = asterisk_o_two_nine.liga;
lastChange = "2025-02-15 08:54:04 +0000";
layers = (
{
layerId = m01;
paths = (
{
closed = 1;
nodes = (
"410 509 LINE",
"230 742 LINE",
"50 509 LINE"
);
},
{
closed = 1;
nodes = (
"189 229 LINE",
"189 581 LINE",
"147 581 LINE",
"147 229 LINE"
);
},
{
closed = 1;
nodes = (
"310 229 LINE",
"310 581 LINE",
"268 581 LINE",
"268 229 LINE"
);
}
);
width = 460;
}
);
unicode = EE51;
},
{
glyphname = asterisk_o_three_one.liga;
lastChange = "2025-02-15 08:54:04 +0000";
layers = (
{
background = {
paths = (
{
closed = 1;
nodes = (
"332 350 LINE SMOOTH",
"332 286 OFFCURVE",
"281 247 OFFCURVE",
"237 247 CURVE SMOOTH",
"200 247 OFFCURVE",
"178 272 OFFCURVE",
"178 309 CURVE SMOOTH",
"178 362 OFFCURVE",
"222 437 OFFCURVE",
"332 505 CURVE"
);
},
{
closed = 1;
nodes = (
"374 572 LINE",
"363 572 LINE",
"145 437 OFFCURVE",
"82 403 OFFCURVE",
"82 303 CURVE SMOOTH",
"82 232 OFFCURVE",
"139 192 OFFCURVE",
"204 192 CURVE SMOOTH",
"248 192 OFFCURVE",
"296 211 OFFCURVE",
"332 251 CURVE",
"332 -63 LINE",
"374 -63 LINE"
);
}
);
};
components = (
{
name = _part.thirtyOne;
transform = "{-1, 0, 0, 1, 424, 0}";
}
);
layerId = m01;
paths = (
{
closed = 1;
nodes = (
"332 -131 LINE",
"374 -131 LINE",
"374 529 LINE",
"332 529 LINE"
);
}
);
width = 424;
}
);
unicode = E2EC;
},
{
glyphname = asterisk_o_four_one.liga;
lastChange = "2025-02-15 08:54:04 +0000";
layers = (
{
layerId = m01;
paths = (
{
closed = 1;
nodes = (
"207 466 LINE",
"207 572 LINE",
"157 572 LINE",
"157 466 LINE",
"50 466 LINE",
"50 416 LINE",
"157 416 LINE",
"157 310 LINE",
"207 310 LINE",
"207 416 LINE",
"314 416 LINE",
"314 466 LINE"
);
}
);
width = 364;
}
);
unicode = EE55;
},
{
glyphname = asterisk_o_four_three.liga;
lastChange = "2025-02-15 08:54:04 +0000";
layers = (
{
layerId = m01;
paths = (
{
closed = 1;
nodes = (
"210 334 LINE",
"360 254 LINE",
"210 487 LINE",
"60 254 LINE"
);
}
);
width = 420;
}
);
unicode = EE57;
},
{
glyphname = asterisk_o_four_seven.liga;
lastChange = "2025-02-15 08:54:04 +0000";
layers = (
{
layerId = m01;
paths = (
{
closed = 1;
nodes = (
"50 227 LINE",
"240 227 LINE",
"240 327 LINE",
"50 327 LINE"
);
},
{
closed = 1;
nodes = (
"198 314 LINE",
"240 314 LINE",
"240 737 LINE",
"198 737 LINE"
);
}
);
width = 290;
}
);
unicode = EE58;
},
{
glyphname = asterisk_o_seven.liga;
lastChange = "2025-02-15 08:54:04 +0000";
layers = (
{
layerId = m01;
paths = (
{
closed = 1;
nodes = (
"50 237 LINE",
"290 326 LINE",
"290 473 LINE",
"50 384 LINE"
);
},
{
closed = 1;
nodes = (
"50 324 LINE",
"92 324 LINE",
"92 737 LINE",
"50 737 LINE"
);
}
);
width = 340;
}
);
unicode = E2DE;
},
{
glyphname = asterisk_q_f.liga;
lastChange = "2025-02-15 08:54:04 +0000";
layers = (
{
background = {
paths = (
{
closed = 1;
nodes = (
"214 613 LINE",
"214 695 LINE",
"10 589 LINE",
"10 507 LINE"
);
},
{
closed = 1;
nodes = (
"127 334 LINE",
"127 868 LINE",
"95 868 LINE",
"95 334 LINE"
);
}
);
};
components = (
{
name = asterisk_f.liga;
}
);
layerId = m01;
paths = (
{
closed = 1;
nodes = (
"184 613 LINE",
"184 695 LINE",
"-20 589 LINE",
"-20 507 LINE"
);
}
);
width = 392;
}
);
unicode = E442;
},
{
glyphname = asterisk_q_s.liga;
lastChange = "2025-02-15 08:54:04 +0000";
layers = (
{
layerId = m01;
paths = (
{
closed = 1;
nodes = (
"292 497 LINE",
"292 596 LINE",
"50 524 LINE",
"50 425 LINE"
);
},
{
closed = 1;
nodes = (
"292 217 LINE",
"292 316 LINE",
"50 244 LINE",
"50 145 LINE"
);
},
{
closed = 1;
nodes = (
"192 15 LINE",
"192 727 LINE",
"150 727 LINE",
"150 15 LINE"
);
}
);
width = 342;
}
);
unicode = E444;
},
{
glyphname = asterisk_s.liga;
lastChange = "2025-02-15 08:54:04 +0000";
layers = (
{
anchors = (
{
name = arrowUp;
position = "{131, 371}";
},
{
name = vicentino;
position = "{215, -83}";
}
);
components = (
{
locked = 1;
name = _part.sharpOtonal;
}
);
layerId = m01;
paths = (
{
closed = 1;
nodes = (
"110 1 LINE",
"152 1 LINE",
"152 95 LINE",
"110 95 LINE"
);
}
);
width = 410;
}
);
unicode = E262;
},
{
glyphname = asterisk_u_one_three.liga;
lastChange = "2025-02-15 08:54:04 +0000";
layers = (
{
layerId = m01;
paths = (
{
closed = 1;
nodes = (
"322 387 LINE",
"322 496 LINE",
"50 355 LINE",
"50 246 LINE"
);
},
{
closed = 1;
nodes = (
"152 0 LINE",
"152 697 LINE",
"110 697 LINE",
"110 0 LINE"
);
},
{
closed = 1;
nodes = (
"262 45 LINE",
"262 742 LINE",
"220 742 LINE",
"220 45 LINE"
);
}
);
width = 372;
}
);
unicode = E2E5;
},
{
glyphname = asterisk_u_one_nine.liga;
lastChange = "2025-02-15 08:54:04 +0000";
layers = (
{
layerId = m01;
paths = (
{
closed = 1;
nodes = (
"290 249 LINE",
"290 319 LINE",
"50 493 LINE",
"50 423 LINE"
);
}
);
width = 340;
}
);
unicode = E2E8;
},
{
glyphname = asterisk_u_three_one.liga;
lastChange = "2025-02-15 08:54:04 +0000";
layers = (
{
components = (
{
name = _part.thirtyOne;
}
);
layerId = m01;
paths = (
{
closed = 1;
nodes = (
"186 15 LINE",
"186 727 LINE",
"144 727 LINE",
"144 15 LINE"
);
}
);
width = 424;
}
);
unicode = E2ED;
},
{
glyphname = asterisk_u_three_seven.liga;
lastChange = "2025-02-15 08:54:04 +0000";
layers = (
{
background = {
paths = (
{
closed = 1;
nodes = (
"74 292 CURVE SMOOTH",
"112 238 OFFCURVE",
"181 210 OFFCURVE",
"181 174 CURVE SMOOTH",
"181 157 OFFCURVE",
"165 146 OFFCURVE",
"142 146 CURVE SMOOTH",
"113 146 OFFCURVE",
"97 167 OFFCURVE",
"75 167 CURVE SMOOTH",
"59 167 OFFCURVE",
"48 150 OFFCURVE",
"48 123 CURVE SMOOTH",
"48 87 OFFCURVE",
"63 75 OFFCURVE",
"107 75 CURVE SMOOTH",
"172 75 OFFCURVE",
"225 123 OFFCURVE",
"225 182 CURVE SMOOTH",
"225 259 OFFCURVE",
"146 286 OFFCURVE",
"146 370 CURVE SMOOTH",
"146 407 OFFCURVE",
"168 432 OFFCURVE",
"205 432 CURVE SMOOTH",
"249 432 OFFCURVE",
"300 393 OFFCURVE",
"300 329 CURVE SMOOTH",
"300 0 LINE",
"342 0 LINE",
"342 742 LINE",
"300 742 LINE",
"300 428 LINE",
"264 468 OFFCURVE",
"216 487 OFFCURVE",
"172 487 CURVE SMOOTH",
"107 487 OFFCURVE",
"50 447 OFFCURVE",
"50 376 CURVE SMOOTH",
"50 341 OFFCURVE",
"57 318 OFFCURVE"
);
}
);
};
layerId = m01;
paths = (
{
closed = 1;
nodes = (
"342 0 LINE",
"342 742 LINE",
"300 742 LINE",
"300 428 LINE",
"264 468 OFFCURVE",
"216 487 OFFCURVE",
"172 487 CURVE SMOOTH",
"107 487 OFFCURVE",
"50 447 OFFCURVE",
"50 376 CURVE SMOOTH",
"50 341 OFFCURVE",
"57 318 OFFCURVE",
"74 292 CURVE SMOOTH",
"112 238 OFFCURVE",
"181 210 OFFCURVE",
"181 174 CURVE SMOOTH",
"181 157 OFFCURVE",
"165 146 OFFCURVE",
"142 146 CURVE SMOOTH",
"113 146 OFFCURVE",
"89 157 OFFCURVE",
"67 166 CURVE",
"67 82 LINE",
"88 76 OFFCURVE",
"106 73 OFFCURVE",
"122 73 CURVE SMOOTH",
"197 73 OFFCURVE",
"225 133 OFFCURVE",
"225 182 CURVE SMOOTH",
"225 259 OFFCURVE",
"146 286 OFFCURVE",
"146 370 CURVE SMOOTH",
"146 407 OFFCURVE",
"168 432 OFFCURVE",
"205 432 CURVE SMOOTH",
"249 432 OFFCURVE",
"300 393 OFFCURVE",
"300 329 CURVE SMOOTH",
"300 0 LINE"
);
}
);
width = 392;
}
);
unicode = EE52;
},
{
glyphname = asterisk_u_four_one.liga;
lastChange = "2025-02-15 08:54:04 +0000";
layers = (
{
layerId = m01;
paths = (
{
closed = 1;
nodes = (
"50 326 LINE",
"50 276 LINE",
"314 276 LINE",
"314 326 LINE"
);
}
);
width = 364;
}
);
unicode = EE54;
},
{
glyphname = .notdef;
lastChange = "2025-02-15 08:54:04 +0000";
layers = (
{
layerId = m01;
paths = (
{
closed = 1;
nodes = (
"225 0 LINE",
"225 727 LINE",
"40 727 LINE",
"40 0 LINE"
);
},
{
closed = 1;
nodes = (
"80 687 LINE",
"185 687 LINE",
"185 40 LINE",
"80 40 LINE"
);
}
);
vertWidth = 1200;
width = 265;
}
);
note = .notdef;
unicode = "0309,0313,0314,2015,2016,2017,201B,201F,2023,2024,2025,2031,2213,2214,2262,2263";
},
{
glyphname = at;
lastChange = "2025-02-18 15:56:31 +0000";
layers = (
{
background = {
paths = (
{
closed = 1;
nodes = (
"467 -119 OFFCURVE",
"504 -110 OFFCURVE",
"543 -98 CURVE",
"543 -30 LINE",
"511 -47 OFFCURVE",
"475 -62 OFFCURVE",
"401 -62 CURVE SMOOTH",
"242 -62 OFFCURVE",
"137 58 OFFCURVE",
"137 308 CURVE SMOOTH",
"137 558 OFFCURVE",
"242 679 OFFCURVE",
"401 679 CURVE SMOOTH",
"578 679 OFFCURVE",
"664 581 OFFCURVE",
"664 327 CURVE SMOOTH",
"664 205 OFFCURVE",
"636 129 OFFCURVE",
"590 129 CURVE SMOOTH",
"564 129 OFFCURVE",
"537 142 OFFCURVE",
"537 204 CURVE SMOOTH",
"537 514 LINE",
"464 514 LINE",
"464 469 LINE",
"446 498 OFFCURVE",
"416 521 OFFCURVE",
"370 521 CURVE SMOOTH",
"292 521 OFFCURVE",
"254 469 OFFCURVE",
"254 364 CURVE SMOOTH",
"254 220 LINE SMOOTH",
"254 117 OFFCURVE",
"292 70 OFFCURVE",
"370 70 CURVE SMOOTH",
"434 70 OFFCURVE",
"469 97 OFFCURVE",
"485 157 CURVE",
"492 96 OFFCURVE",
"526 71 OFFCURVE",
"584 71 CURVE SMOOTH",
"685 71 OFFCURVE",
"731 156 OFFCURVE",
"731 330 CURVE SMOOTH",
"731 613 OFFCURVE",
"632 736 OFFCURVE",
"401 736 CURVE SMOOTH",
"199 736 OFFCURVE",
"70 601 OFFCURVE",
"70 309 CURVE SMOOTH",
"70 17 OFFCURVE",
"199 -119 OFFCURVE",
"401 -119 CURVE SMOOTH"
);
},
{
closed = 1;
nodes = (
"349 134 OFFCURVE",
"327 163 OFFCURVE",
"327 220 CURVE SMOOTH",
"327 371 LINE SMOOTH",
"327 428 OFFCURVE",
"349 457 OFFCURVE",
"395 457 CURVE SMOOTH",
"433 457 OFFCURVE",
"459 424 OFFCURVE",
"459 371 CURVE SMOOTH",
"459 220 LINE SMOOTH",
"459 167 OFFCURVE",
"433 134 OFFCURVE",
"395 134 CURVE SMOOTH"
);
}
);
};
layerId = m01;
paths = (
{
closed = 1;
nodes = (
"483 -131 OFFCURVE",
"527 -117 OFFCURVE",
"568 -104 CURVE",
"568 0 LINE",
"510 -30 OFFCURVE",
"488 -50 OFFCURVE",
"401 -50 CURVE SMOOTH",
"249 -50 OFFCURVE",
"162 79 OFFCURVE",
"162 308 CURVE SMOOTH",
"162 537 OFFCURVE",
"249 667 OFFCURVE",
"401 667 CURVE SMOOTH",
"567 667 OFFCURVE",
"639 566 OFFCURVE",
"639 327 CURVE SMOOTH",
"639 223 OFFCURVE",
"612 141 OFFCURVE",
"590 141 CURVE SMOOTH",
"573 141 OFFCURVE",
"562 160 OFFCURVE",
"562 204 CURVE SMOOTH",
"562 526 LINE",
"439 526 LINE",
"439 517 LINE",
"419 527 OFFCURVE",
"395 533 OFFCURVE",
"370 533 CURVE SMOOTH",
"276 533 OFFCURVE",
"229 476 OFFCURVE",
"229 364 CURVE SMOOTH",
"229 220 LINE SMOOTH",
"229 112 OFFCURVE",
"274 58 OFFCURVE",
"370 58 CURVE SMOOTH",
"419 58 OFFCURVE",
"457 72 OFFCURVE",
"481 100 CURVE",
"502 73 OFFCURVE",
"537 59 OFFCURVE",
"584 59 CURVE SMOOTH",
"702 59 OFFCURVE",
"756 145 OFFCURVE",
"756 330 CURVE SMOOTH",
"756 620 OFFCURVE",
"649 748 OFFCURVE",
"401 748 CURVE SMOOTH",
"171 748 OFFCURVE",
"45 593 OFFCURVE",
"45 309 CURVE SMOOTH",
"45 25 OFFCURVE",
"171 -131 OFFCURVE",
"401 -131 CURVE SMOOTH"
);
},
{
closed = 1;
nodes = (
"366 146 OFFCURVE",
"352 169 OFFCURVE",
"352 220 CURVE SMOOTH",
"352 371 LINE SMOOTH",
"352 422 OFFCURVE",
"366 445 OFFCURVE",
"395 445 CURVE SMOOTH",
"417 445 OFFCURVE",
"434 415 OFFCURVE",
"434 371 CURVE SMOOTH",
"434 220 LINE SMOOTH",
"434 176 OFFCURVE",
"417 146 OFFCURVE",
"395 146 CURVE SMOOTH"
);
}
);
vertWidth = 1200;
width = 801;
}
);
leftMetricsKey = O;
note = at;
rightMetricsKey = O;
unicode = 0040;
},
{
glyphname = ampersand;
lastChange = "2025-02-18 08:59:45 +0000";
layers = (
{
background = {
paths = (
{
closed = 1;
nodes = (
"211 414 LINE SMOOTH",
"151 500 OFFCURVE",
"129 544 OFFCURVE",
"129 594 CURVE SMOOTH",
"129 677 OFFCURVE",
"192 737 OFFCURVE",
"284 737 CURVE SMOOTH",
"379 737 OFFCURVE",
"437 682 OFFCURVE",
"437 594 CURVE SMOOTH",
"437 392 OFFCURVE",
"146 380 OFFCURVE",
"146 214 CURVE SMOOTH",
"146 134 OFFCURVE",
"194 57 OFFCURVE",
"280 57 CURVE SMOOTH",
"419 57 OFFCURVE",
"483 219 OFFCURVE",
"465 377 CURVE",
"530 377 LINE",
"553 181 OFFCURVE",
"461 -10 OFFCURVE",
"282 -10 CURVE SMOOTH",
"132 -10 OFFCURVE",
"70 92 OFFCURVE",
"70 196 CURVE SMOOTH",
"70 426 OFFCURVE",
"361 431 OFFCURVE",
"361 595 CURVE SMOOTH",
"361 633 OFFCURVE",
"339 670 OFFCURVE",
"284 670 CURVE SMOOTH",
"229 670 OFFCURVE",
"205 633 OFFCURVE",
"205 597 CURVE SMOOTH",
"205 531 OFFCURVE",
"262 470 OFFCURVE",
"277 448 CURVE SMOOTH",
"584 0 LINE",
"498 0 LINE"
);
}
);
};
layerId = m01;
paths = (
{
closed = 1;
nodes = (
"485 -10 OFFCURVE",
"597 158 OFFCURVE",
"563 389 CURVE",
"458 389 LINE",
"486 215 OFFCURVE",
"419 81 OFFCURVE",
"290 81 CURVE SMOOTH",
"210 81 OFFCURVE",
"171 143 OFFCURVE",
"171 214 CURVE SMOOTH",
"171 366 OFFCURVE",
"462 373 OFFCURVE",
"462 582 CURVE SMOOTH",
"462 677 OFFCURVE",
"392 737 OFFCURVE",
"284 737 CURVE SMOOTH",
"179 737 OFFCURVE",
"104 672 OFFCURVE",
"104 582 CURVE SMOOTH",
"104 533 OFFCURVE",
"122 502 OFFCURVE",
"190 407 CURVE SMOOTH",
"481 0 LINE",
"617 0 LINE",
"298 455 LINE",
"298 455 OFFCURVE",
"294 459 OFFCURVE",
"286 469 CURVE SMOOTH",
"248 519 OFFCURVE",
"230 546 OFFCURVE",
"230 585 CURVE SMOOTH",
"230 623 OFFCURVE",
"250 646 OFFCURVE",
"284 646 CURVE SMOOTH",
"318 646 OFFCURVE",
"336 623 OFFCURVE",
"336 583 CURVE SMOOTH",
"336 422 OFFCURVE",
"45 424 OFFCURVE",
"45 196 CURVE SMOOTH",
"45 76 OFFCURVE",
"143 -10 OFFCURVE",
"292 -10 CURVE SMOOTH"
);
}
);
vertWidth = 1200;
width = 662;
}
);
leftMetricsKey = O;
note = ampersand;
rightMetricsKey = O;
unicode = 0026;
},
{
glyphname = paragraph;
lastChange = "2025-02-18 08:56:40 +0000";
layers = (
{
background = {
paths = (
{
closed = 1;
nodes = (
"294 0 LINE",
"294 656 LINE",
"367 656 LINE",
"367 0 LINE",
"443 0 LINE",
"443 727 LINE",
"261 727 LINE SMOOTH",
"135 727 OFFCURVE",
"60 659 OFFCURVE",
"60 523 CURVE SMOOTH",
"60 401 OFFCURVE",
"122 336 OFFCURVE",
"218 325 CURVE",
"218 0 LINE"
);
}
);
};
layerId = m01;
paths = (
{
closed = 1;
nodes = (
"304 0 LINE",
"304 632 LINE",
"360 632 LINE",
"360 0 LINE",
"471 0 LINE",
"471 727 LINE",
"261 727 LINE SMOOTH",
"116 727 OFFCURVE",
"35 649 OFFCURVE",
"35 511 CURVE SMOOTH",
"35 397 OFFCURVE",
"91 324 OFFCURVE",
"193 304 CURVE",
"193 0 LINE"
);
}
);
vertWidth = 1000;
width = 526;
}
);
leftMetricsKey = o;
note = paragraph;
rightMetricsKey = N;
unicode = 00B6;
},
{
glyphname = section;
lastChange = "2025-02-18 15:56:31 +0000";
layers = (
{
background = {
paths = (
{
closed = 1;
nodes = (
"251 495 LINE",
"160 495 OFFCURVE",
"92 465 OFFCURVE",
"92 384 CURVE SMOOTH",
"92 218 OFFCURVE",
"340 254 OFFCURVE",
"340 113 CURVE SMOOTH",
"340 68 OFFCURVE",
"296 45 OFFCURVE",
"252 45 CURVE SMOOTH",
"190 45 OFFCURVE",
"157 76 OFFCURVE",
"159 156 CURVE",
"80 156 LINE",
"80 135 LINE SMOOTH",
"80 40 OFFCURVE",
"147 -10 OFFCURVE",
"251 -10 CURVE SMOOTH",
"344 -10 OFFCURVE",
"416 42 OFFCURVE",
"416 126 CURVE SMOOTH",
"416 314 OFFCURVE",
"168 274 OFFCURVE",
"168 397 CURVE SMOOTH",
"168 436 OFFCURVE",
"212 460 OFFCURVE",
"251 460 CURVE SMOOTH",
"259 460 OFFCURVE",
"266 459 OFFCURVE",
"273 458 CURVE"
);
},
{
closed = 1;
nodes = (
"384 261 OFFCURVE",
"416 292 OFFCURVE",
"416 348 CURVE SMOOTH",
"416 536 OFFCURVE",
"168 496 OFFCURVE",
"168 619 CURVE SMOOTH",
"168 658 OFFCURVE",
"212 682 OFFCURVE",
"251 682 CURVE SMOOTH",
"311 682 OFFCURVE",
"343 652 OFFCURVE",
"340 578 CURVE",
"413 578 LINE",
"414 590 OFFCURVE",
"415 600 OFFCURVE",
"415 609 CURVE SMOOTH",
"415 691 OFFCURVE",
"350 737 OFFCURVE",
"251 737 CURVE SMOOTH",
"160 737 OFFCURVE",
"92 687 OFFCURVE",
"92 606 CURVE SMOOTH",
"92 440 OFFCURVE",
"340 476 OFFCURVE",
"340 335 CURVE SMOOTH",
"340 304 OFFCURVE",
"319 283 OFFCURVE",
"291 273 CURVE",
"336 249 LINE"
);
},
{
closed = 1;
nodes = (
"162 480 LINE",
"176 480 LINE",
"176 491 LINE",
"162 491 LINE"
);
},
{
closed = 1;
nodes = (
"345 246 LINE",
"359 246 LINE",
"359 257 LINE",
"345 257 LINE"
);
}
);
};
layerId = m01;
paths = (
{
closed = 1;
nodes = (
"249 515 LINE",
"135 519 OFFCURVE",
"67 475 OFFCURVE",
"67 396 CURVE SMOOTH",
"67 212 OFFCURVE",
"315 262 OFFCURVE",
"315 125 CURVE SMOOTH",
"315 90 OFFCURVE",
"291 69 OFFCURVE",
"252 69 CURVE SMOOTH",
"206 69 OFFCURVE",
"184 94 OFFCURVE",
"184 158 CURVE SMOOTH",
"184 165 OFFCURVE",
"185 172 OFFCURVE",
"185 180 CURVE",
"55 180 LINE",
"55 147 LINE SMOOTH",
"55 49 OFFCURVE",
"130 -10 OFFCURVE",
"251 -10 CURVE SMOOTH",
"361 -10 OFFCURVE",
"441 52 OFFCURVE",
"441 138 CURVE SMOOTH",
"441 327 OFFCURVE",
"173 292 OFFCURVE",
"173 409 CURVE SMOOTH",
"173 439 OFFCURVE",
"207 460 OFFCURVE",
"251 460 CURVE SMOOTH",
"259 460 OFFCURVE",
"262 459 OFFCURVE",
"308 453 CURVE"
);
},
{
closed = 1;
nodes = (
"403 238 OFFCURVE",
"441 276 OFFCURVE",
"441 336 CURVE SMOOTH",
"441 535 OFFCURVE",
"193 490 OFFCURVE",
"193 607 CURVE SMOOTH",
"193 637 OFFCURVE",
"218 658 OFFCURVE",
"251 658 CURVE SMOOTH",
"294 658 OFFCURVE",
"315 634 OFFCURVE",
"315 578 CURVE SMOOTH",
"315 570 OFFCURVE",
"315 562 OFFCURVE",
"314 554 CURVE",
"437 554 LINE",
"437 562 OFFCURVE",
"438 569 OFFCURVE",
"438 576 CURVE SMOOTH",
"438 686 OFFCURVE",
"380 737 OFFCURVE",
"251 737 CURVE SMOOTH",
"143 737 OFFCURVE",
"67 678 OFFCURVE",
"67 594 CURVE SMOOTH",
"67 410 OFFCURVE",
"335 460 OFFCURVE",
"335 323 CURVE SMOOTH",
"335 299 OFFCURVE",
"316 279 OFFCURVE",
"283 272 CURVE",
"279 250 LINE",
"331 223 LINE"
);
}
);
vertWidth = 1200;
width = 496;
}
);
leftMetricsKey = H;
note = section;
rightMetricsKey = H;
unicode = 00A7;
},
{
glyphname = copyright;
lastChange = "2025-02-18 15:56:31 +0000";
layers = (
{
layerId = m01;
paths = (
{
closed = 1;
nodes = (
"624 -10 OFFCURVE",
"792 157 OFFCURVE",
"792 363 CURVE SMOOTH",
"792 569 OFFCURVE",
"624 737 OFFCURVE",
"418 737 CURVE SMOOTH",
"212 737 OFFCURVE",
"45 569 OFFCURVE",
"45 363 CURVE SMOOTH",
"45 157 OFFCURVE",
"212 -10 OFFCURVE",
"418 -10 CURVE SMOOTH"
);
},
{
closed = 1;
nodes = (
"252 63 OFFCURVE",
"118 197 OFFCURVE",
"118 363 CURVE SMOOTH",
"118 530 OFFCURVE",
"252 664 OFFCURVE",
"418 664 CURVE SMOOTH",
"584 664 OFFCURVE",
"719 529 OFFCURVE",
"719 363 CURVE SMOOTH",
"719 197 OFFCURVE",
"584 63 OFFCURVE",
"418 63 CURVE SMOOTH"
);
},
{
closed = 1;
nodes = (
"487 235 OFFCURVE",
"462 205 OFFCURVE",
"416 205 CURVE SMOOTH",
"365 205 OFFCURVE",
"340 243 OFFCURVE",
"340 320 CURVE SMOOTH",
"340 421 LINE SMOOTH",
"340 499 OFFCURVE",
"367 540 OFFCURVE",
"418 540 CURVE SMOOTH",
"459 540 OFFCURVE",
"477 515 OFFCURVE",
"484 447 CURVE",
"564 447 LINE",
"555 553 OFFCURVE",
"509 603 OFFCURVE",
"418 603 CURVE SMOOTH",
"316 603 OFFCURVE",
"260 539 OFFCURVE",
"260 421 CURVE SMOOTH",
"260 321 LINE SMOOTH",
"260 203 OFFCURVE",
"313 142 OFFCURVE",
"416 142 CURVE SMOOTH",
"512 142 OFFCURVE",
"566 195 OFFCURVE",
"572 297 CURVE",
"492 297 LINE"
);
}
);
vertWidth = 1200;
width = 837;
}
);
leftMetricsKey = O;
note = copyright;
rightMetricsKey = O;
unicode = 00A9;
},
{
glyphname = registered;
lastChange = "2025-02-18 15:56:31 +0000";
layers = (
{
layerId = m01;
paths = (
{
closed = 1;
nodes = (
"624 -10 OFFCURVE",
"792 157 OFFCURVE",
"792 363 CURVE SMOOTH",
"792 569 OFFCURVE",
"624 737 OFFCURVE",
"418 737 CURVE SMOOTH",
"212 737 OFFCURVE",
"45 569 OFFCURVE",
"45 363 CURVE SMOOTH",
"45 157 OFFCURVE",
"212 -10 OFFCURVE",
"418 -10 CURVE SMOOTH"
);
},
{
closed = 1;
nodes = (
"252 63 OFFCURVE",
"118 197 OFFCURVE",
"118 363 CURVE SMOOTH",
"118 530 OFFCURVE",
"252 664 OFFCURVE",
"418 664 CURVE SMOOTH",
"584 664 OFFCURVE",
"719 529 OFFCURVE",
"719 363 CURVE SMOOTH",
"719 197 OFFCURVE",
"584 63 OFFCURVE",
"418 63 CURVE SMOOTH"
);
},
{
closed = 1;
nodes = (
"387 350 LINE",
"390 334 LINE",
"438 334 OFFCURVE",
"458 327 OFFCURVE",
"464 308 CURVE",
"468 292 OFFCURVE",
"471 275 OFFCURVE",
"474 229 CURVE SMOOTH",
"477 171 OFFCURVE",
"480 157 OFFCURVE",
"489 141 CURVE",
"575 141 LINE",
"560 170 OFFCURVE",
"556 184 OFFCURVE",
"555 218 CURVE SMOOTH",
"552 329 OFFCURVE",
"533 361 OFFCURVE",
"462 375 CURVE"
);
},
{
closed = 1;
nodes = (
"357 141 LINE",
"357 357 LINE",
"419 357 LINE SMOOTH",
"487 357 OFFCURVE",
"562 369 OFFCURVE",
"562 457 CURVE SMOOTH",
"562 536 OFFCURVE",
"508 584 OFFCURVE",
"420 584 CURVE SMOOTH",
"277 584 LINE",
"277 141 LINE"
);
},
{
closed = 1;
nodes = (
"357 521 LINE",
"406 521 LINE SMOOTH",
"463 521 OFFCURVE",
"482 506 OFFCURVE",
"482 460 CURVE SMOOTH",
"482 412 OFFCURVE",
"464 397 OFFCURVE",
"406 397 CURVE SMOOTH",
"357 397 LINE"
);
},
{
closed = 1;
nodes = (
"337 334 LINE",
"477 334 LINE",
"477 379 LINE",
"337 379 LINE"
);
}
);
vertWidth = 1200;
width = 837;
}
);
leftMetricsKey = O;
note = registered;
rightMetricsKey = O;
unicode = 00AE;
},
{
glyphname = degree;
lastChange = "2025-02-18 08:51:32 +0000";
layers = (
{
background = {
paths = (
{
closed = 1;
nodes = (
"300 435 OFFCURVE",
"369 505 OFFCURVE",
"369 593 CURVE SMOOTH",
"369 678 OFFCURVE",
"301 748 OFFCURVE",
"217 748 CURVE SMOOTH",
"129 748 OFFCURVE",
"60 680 OFFCURVE",
"60 594 CURVE SMOOTH",
"60 504 OFFCURVE",
"127 435 OFFCURVE",
"214 435 CURVE SMOOTH"
);
},
{
closed = 1;
nodes = (
"162 499 OFFCURVE",
"123 539 OFFCURVE",
"123 593 CURVE SMOOTH",
"123 645 OFFCURVE",
"163 685 OFFCURVE",
"216 685 CURVE SMOOTH",
"264 685 OFFCURVE",
"306 641 OFFCURVE",
"306 591 CURVE SMOOTH",
"306 538 OFFCURVE",
"266 499 OFFCURVE",
"214 499 CURVE SMOOTH"
);
}
);
};
layerId = m01;
paths = (
{
closed = 1;
nodes = (
"314 400 OFFCURVE",
"384 475 OFFCURVE",
"384 570 CURVE SMOOTH",
"384 662 OFFCURVE",
"314 737 OFFCURVE",
"217 737 CURVE SMOOTH",
"115 737 OFFCURVE",
"45 664 OFFCURVE",
"45 571 CURVE SMOOTH",
"45 474 OFFCURVE",
"113 400 OFFCURVE",
"214 400 CURVE SMOOTH"
);
},
{
closed = 1;
nodes = (
"168 478 OFFCURVE",
"134 516 OFFCURVE",
"134 570 CURVE SMOOTH",
"134 622 OFFCURVE",
"169 660 OFFCURVE",
"216 660 CURVE SMOOTH",
"257 660 OFFCURVE",
"296 617 OFFCURVE",
"296 568 CURVE SMOOTH",
"296 516 OFFCURVE",
"261 478 OFFCURVE",
"214 478 CURVE SMOOTH"
);
}
);
vertWidth = 1200;
width = 429;
}
);
leftMetricsKey = O;
note = degree;
rightMetricsKey = O;
unicode = 00B0;
},
{
glyphname = bar;
lastChange = "2025-02-18 15:56:31 +0000";
layers = (
{
layerId = m01;
paths = (
{
closed = 1;
nodes = (
"166 -214 LINE",
"166 750 LINE",
"55 750 LINE",
"55 -214 LINE"
);
}
);
vertWidth = 1200;
width = 221;
}
);
leftMetricsKey = H;
note = bar;
rightMetricsKey = H;
unicode = 007C;
},
{
glyphname = brokenbar;
lastChange = "2025-02-18 15:56:31 +0000";
layers = (
{
layerId = m01;
paths = (
{
closed = 1;
nodes = (
"166 -213 LINE",
"166 229 LINE",
"55 229 LINE",
"55 -213 LINE"
);
},
{
closed = 1;
nodes = (
"166 308 LINE",
"166 750 LINE",
"55 750 LINE",
"55 308 LINE"
);
}
);
vertWidth = 1200;
width = 221;
}
);
leftMetricsKey = H;
note = brokenbar;
rightMetricsKey = H;
unicode = 00A6;
},
{
glyphname = dagger;
lastChange = "2025-02-18 15:56:31 +0000";
layers = (
{
layerId = m01;
paths = (
{
closed = 1;
nodes = (
"285 0 LINE",
"285 470 LINE",
"413 470 LINE",
"413 556 LINE",
"285 556 LINE",
"285 727 LINE",
"174 727 LINE",
"174 556 LINE",
"45 556 LINE",
"45 470 LINE",
"174 470 LINE",
"174 0 LINE"
);
}
);
vertWidth = 1200;
width = 458;
}
);
leftMetricsKey = O;
note = dagger;
rightMetricsKey = O;
unicode = 2020;
},
{
glyphname = daggerdbl;
lastChange = "2025-02-18 15:56:31 +0000";
layers = (
{
layerId = m01;
paths = (
{
closed = 1;
nodes = (
"285 0 LINE",
"285 169 LINE",
"413 169 LINE",
"413 255 LINE",
"285 255 LINE",
"285 470 LINE",
"413 470 LINE",
"413 556 LINE",
"285 556 LINE",
"285 727 LINE",
"174 727 LINE",
"174 556 LINE",
"45 556 LINE",
"45 470 LINE",
"174 470 LINE",
"174 255 LINE",
"45 255 LINE",
"45 169 LINE",
"174 169 LINE",
"174 0 LINE"
);
}
);
vertWidth = 1200;
width = 458;
}
);
leftMetricsKey = O;
note = daggerdbl;
rightMetricsKey = O;
unicode = 2021;
},
{
glyphname = cent;
lastChange = "2025-02-18 08:40:16 +0000";
layers = (
{
components = (
{
alignment = -1;
name = c;
transform = "{1, 0, 0, 1, 10, 110}";
}
);
layerId = m01;
paths = (
{
closed = 1;
nodes = (
"191 596 LINE",
"311 596 LINE",
"311 727 LINE",
"191 727 LINE"
);
},
{
closed = 1;
nodes = (
"191 0 LINE",
"311 0 LINE",
"311 131 LINE",
"191 131 LINE"
);
}
);
width = 500;
}
);
leftMetricsKey = O;
note = cent;
rightMetricsKey = O;
unicode = 00A2;
},
{
glyphname = dollar;
lastChange = "2025-02-18 08:35:42 +0000";
layers = (
{
components = (
{
alignment = -1;
name = s;
transform = "{1, 0, 0, 1, 10, 110}";
}
);
layerId = m01;
paths = (
{
closed = 1;
nodes = (
"179 596 LINE",
"299 596 LINE",
"299 727 LINE",
"179 727 LINE"
);
},
{
closed = 1;
nodes = (
"179 0 LINE",
"299 0 LINE",
"299 131 LINE",
"179 131 LINE"
);
}
);
width = 476;
}
);
leftMetricsKey = O;
note = dollar;
rightMetricsKey = O;
unicode = 0024;
},
{
glyphname = euro;
lastChange = "2025-02-18 08:40:02 +0000";
layers = (
{
background = {
paths = (
{
closed = 1;
nodes = (
"98 314 LINE",
"87 247 LINE",
"145 247 LINE",
"145 187 LINE SMOOTH",
"145 54 OFFCURVE",
"203 -18 OFFCURVE",
"328 -18 CURVE SMOOTH",
"447 -18 OFFCURVE",
"504 43 OFFCURVE",
"504 162 CURVE",
"417 162 LINE",
"417 90 OFFCURVE",
"393 61 OFFCURVE",
"333 61 CURVE SMOOTH",
"266 61 OFFCURVE",
"239 104 OFFCURVE",
"239 188 CURVE SMOOTH",
"239 247 LINE",
"365 247 LINE",
"376 314 LINE",
"238 314 LINE",
"238 380 LINE",
"388 380 LINE",
"399 447 LINE",
"239 447 LINE",
"239 506 LINE SMOOTH",
"239 583 OFFCURVE",
"265 629 OFFCURVE",
"328 629 CURVE SMOOTH",
"388 629 OFFCURVE",
"414 590 OFFCURVE",
"414 529 CURVE",
"503 529 LINE",
"503 653 OFFCURVE",
"437 710 OFFCURVE",
"328 710 CURVE SMOOTH",
"204 710 OFFCURVE",
"146 637 OFFCURVE",
"146 496 CURVE SMOOTH",
"146 447 LINE",
"98 447 LINE",
"87 380 LINE",
"144 380 LINE",
"144 314 LINE"
);
}
);
};
layerId = m01;
paths = (
{
closed = 1;
nodes = (
"58 320 LINE",
"45 242 LINE",
"392 242 LINE",
"405 320 LINE"
);
},
{
closed = 1;
nodes = (
"58 466 LINE",
"45 388 LINE",
"411 388 LINE",
"429 466 LINE"
);
},
{
closed = 1;
nodes = (
"400 116 OFFCURVE",
"376 81 OFFCURVE",
"326 81 CURVE SMOOTH",
"272 81 OFFCURVE",
"252 122 OFFCURVE",
"252 246 CURVE SMOOTH",
"252 480 LINE SMOOTH",
"252 603 OFFCURVE",
"273 646 OFFCURVE",
"326 646 CURVE SMOOTH",
"394 646 OFFCURVE",
"401 591 OFFCURVE",
"404 508 CURVE",
"530 508 LINE",
"526 631 OFFCURVE",
"501 737 OFFCURVE",
"326 737 CURVE SMOOTH",
"159 737 OFFCURVE",
"126 625 OFFCURVE",
"126 478 CURVE SMOOTH",
"126 248 LINE SMOOTH",
"126 71 OFFCURVE",
"188 -10 OFFCURVE",
"326 -10 CURVE SMOOTH",
"459 -10 OFFCURVE",
"523 59 OFFCURVE",
"530 202 CURVE",
"404 202 LINE"
);
}
);
width = 575;
}
);
leftMetricsKey = O;
note = Euro;
rightMetricsKey = O;
unicode = 20AC;
},
{
glyphname = sterling;
lastChange = "2025-02-18 15:56:31 +0000";
layers = (
{
layerId = m01;
paths = (
{
closed = 1;
nodes = (
"500 0 LINE",
"500 84 LINE",
"256 84 LINE",
"256 346 LINE",
"377 346 LINE",
"377 430 LINE",
"256 430 LINE",
"256 561 LINE SMOOTH",
"256 617 OFFCURVE",
"275 647 OFFCURVE",
"307 647 CURVE SMOOTH",
"347 647 OFFCURVE",
"357 622 OFFCURVE",
"353 517 CURVE",
"479 517 LINE",
"489 674 OFFCURVE",
"443 736 OFFCURVE",
"306 736 CURVE SMOOTH",
"194 736 OFFCURVE",
"130 678 OFFCURVE",
"130 575 CURVE SMOOTH",
"130 430 LINE",
"65 430 LINE",
"65 346 LINE",
"130 346 LINE",
"130 84 LINE",
"45 84 LINE",
"45 0 LINE"
);
}
);
vertWidth = 1200;
width = 545;
}
);
leftMetricsKey = O;
note = sterling;
rightMetricsKey = O;
unicode = 00A3;
},
{
glyphname = yen;
lastChange = "2025-02-18 08:36:35 +0000";
layers = (
{
components = (
{
name = Y;
transform = "{1, 0, 0, 1, 5, 0}";
}
);
layerId = m01;
paths = (
{
closed = 1;
nodes = (
"83 196 LINE",
"425 196 LINE",
"425 268 LINE",
"83 268 LINE"
);
},
{
closed = 1;
nodes = (
"83 66 LINE",
"425 66 LINE",
"425 138 LINE",
"83 138 LINE"
);
}
);
width = 508;
}
);
leftMetricsKey = V;
note = yen;
rightMetricsKey = V;
unicode = 00A5;
},
{
glyphname = dotmath;
lastChange = "2025-02-18 15:57:12 +0000";
layers = (
{
anchors = (
{
name = _vicentino;
position = "{262, 385}";
}
);
background = {
anchors = (
{
name = _vicentino;
position = "{252, 385}";
}
);
paths = (
{
closed = 1;
nodes = (
"296 289 OFFCURVE",
"332 325 OFFCURVE",
"332 371 CURVE SMOOTH",
"332 416 OFFCURVE",
"296 452 OFFCURVE",
"251 452 CURVE SMOOTH",
"205 452 OFFCURVE",
"169 416 OFFCURVE",
"169 371 CURVE SMOOTH",
"169 325 OFFCURVE",
"205 289 OFFCURVE",
"251 289 CURVE SMOOTH"
);
}
);
};
layerId = m01;
paths = (
{
closed = 1;
nodes = (
"321 262 OFFCURVE",
"369 310 OFFCURVE",
"369 371 CURVE SMOOTH",
"369 431 OFFCURVE",
"321 479 OFFCURVE",
"261 479 CURVE SMOOTH",
"200 479 OFFCURVE",
"152 431 OFFCURVE",
"152 371 CURVE SMOOTH",
"152 310 OFFCURVE",
"200 262 OFFCURVE",
"261 262 CURVE SMOOTH"
);
}
);
width = 520;
}
);
widthMetricsKey = plus;
unicode = 22C5;
},
{
glyphname = equivalence;
lastChange = "2025-02-18 15:57:17 +0000";
layers = (
{
background = {
paths = (
{
closed = 1;
nodes = (
"450 479 LINE",
"450 550 LINE",
"50 550 LINE",
"50 479 LINE"
);
},
{
closed = 1;
nodes = (
"450 197 LINE",
"450 268 LINE",
"50 268 LINE",
"50 197 LINE"
);
},
{
closed = 1;
nodes = (
"450 338 LINE",
"450 409 LINE",
"50 409 LINE",
"50 338 LINE"
);
}
);
};
layerId = m01;
paths = (
{
closed = 1;
nodes = (
"485 482 LINE",
"485 577 LINE",
"35 577 LINE",
"35 482 LINE"
);
},
{
closed = 1;
nodes = (
"485 170 LINE",
"485 265 LINE",
"35 265 LINE",
"35 170 LINE"
);
},
{
closed = 1;
nodes = (
"485 326 LINE",
"485 421 LINE",
"35 421 LINE",
"35 326 LINE"
);
}
);
vertWidth = 1200;
width = 520;
}
);
widthMetricsKey = plus;
note = equivalence;
unicode = 2261;
},
{
glyphname = plus;
lastChange = "2025-02-18 15:56:40 +0000";
layers = (
{
background = {
paths = (
{
closed = 1;
nodes = (
"285 176 LINE",
"285 336 LINE",
"450 336 LINE",
"450 407 LINE",
"285 407 LINE",
"285 566 LINE",
"215 566 LINE",
"215 407 LINE",
"50 407 LINE",
"50 336 LINE",
"215 336 LINE",
"215 176 LINE"
);
}
);
};
layerId = m01;
paths = (
{
closed = 1;
nodes = (
"320 164 LINE",
"320 324 LINE",
"485 324 LINE",
"485 419 LINE",
"320 419 LINE",
"320 578 LINE",
"200 578 LINE",
"200 419 LINE",
"35 419 LINE",
"35 324 LINE",
"200 324 LINE",
"200 164 LINE"
);
}
);
vertWidth = 1200;
width = 520;
}
);
note = plus;
unicode = 002B;
},
{
glyphname = minus;
lastChange = "2025-02-18 15:57:22 +0000";
layers = (
{
background = {
paths = (
{
closed = 1;
nodes = (
"450 336 LINE",
"450 406 LINE",
"50 406 LINE",
"50 336 LINE"
);
}
);
};
layerId = m01;
paths = (
{
closed = 1;
nodes = (
"485 324 LINE",
"485 418 LINE",
"35 418 LINE",
"35 324 LINE"
);
}
);
vertWidth = 1200;
width = 520;
}
);
widthMetricsKey = plus;
note = minus;
unicode = 2212;
},
{
glyphname = multiply;
lastChange = "2025-02-18 15:57:25 +0000";
layers = (
{
background = {
paths = (
{
closed = 1;
nodes = (
"249 318 LINE",
"387 179 LINE",
"440 232 LINE",
"301 371 LINE",
"440 508 LINE",
"387 561 LINE",
"249 422 LINE",
"111 561 LINE",
"59 508 LINE",
"197 371 LINE",
"59 232 LINE",
"111 179 LINE"
);
}
);
};
layerId = m01;
paths = (
{
closed = 1;
nodes = (
"259 292 LINE",
"397 153 LINE",
"476 232 LINE",
"337 371 LINE",
"476 508 LINE",
"397 587 LINE",
"259 448 LINE",
"121 587 LINE",
"43 508 LINE",
"181 371 LINE",
"43 232 LINE",
"121 153 LINE"
);
}
);
vertWidth = 1200;
width = 520;
}
);
widthMetricsKey = plus;
note = multiply;
unicode = 00D7;
},
{
glyphname = divide;
lastChange = "2025-02-18 15:57:29 +0000";
layers = (
{
background = {
paths = (
{
closed = 1;
nodes = (
"450 336 LINE",
"450 407 LINE",
"50 407 LINE",
"50 336 LINE"
);
},
{
closed = 1;
nodes = (
"292 165 LINE",
"292 253 LINE",
"209 253 LINE",
"209 165 LINE"
);
},
{
closed = 1;
nodes = (
"292 489 LINE",
"292 575 LINE",
"209 575 LINE",
"209 489 LINE"
);
}
);
};
layerId = m01;
paths = (
{
closed = 1;
nodes = (
"485 324 LINE",
"485 419 LINE",
"35 419 LINE",
"35 324 LINE"
);
},
{
closed = 1;
nodes = (
"327 143 LINE",
"327 255 LINE",
"194 255 LINE",
"194 143 LINE"
);
},
{
closed = 1;
nodes = (
"327 487 LINE",
"327 597 LINE",
"194 597 LINE",
"194 487 LINE"
);
}
);
vertWidth = 1200;
width = 520;
}
);
widthMetricsKey = plus;
note = divide;
unicode = 00F7;
},
{
glyphname = equal;
lastChange = "2025-02-18 15:57:33 +0000";
layers = (
{
background = {
paths = (
{
closed = 1;
nodes = (
"450 422 LINE",
"450 493 LINE",
"50 493 LINE",
"50 422 LINE"
);
},
{
closed = 1;
nodes = (
"450 251 LINE",
"450 322 LINE",
"50 322 LINE",
"50 251 LINE"
);
}
);
};
layerId = m01;
paths = (
{
closed = 1;
nodes = (
"485 410 LINE",
"485 505 LINE",
"35 505 LINE",
"35 410 LINE"
);
},
{
closed = 1;
nodes = (
"485 239 LINE",
"485 334 LINE",
"35 334 LINE",
"35 239 LINE"
);
}
);
vertWidth = 1200;
width = 520;
}
);
widthMetricsKey = plus;
note = equal;
unicode = 003D;
},
{
glyphname = notequal;
lastChange = "2025-02-18 15:57:39 +0000";
layers = (
{
background = {
components = (
{
name = equal;
}
);
paths = (
{
closed = 1;
nodes = (
"138 153 LINE",
"424 595 LINE",
"363 595 LINE",
"77 153 LINE"
);
}
);
};
components = (
{
name = equal;
}
);
layerId = m01;
paths = (
{
closed = 1;
nodes = (
"155 141 LINE",
"457 607 LINE",
"346 607 LINE",
"44 141 LINE"
);
}
);
vertWidth = 1200;
width = 520;
}
);
widthMetricsKey = plus;
note = notequal;
unicode = 2260;
},
{
glyphname = greater;
lastChange = "2025-02-18 15:58:05 +0000";
layers = (
{
background = {
paths = (
{
closed = 1;
nodes = (
"465 423 LINE",
"50 551 LINE",
"50 479 LINE",
"409 372 LINE",
"50 260 LINE",
"50 188 LINE",
"465 315 LINE"
);
}
);
};
hints = (
{
horizontal = 1;
place = "{-1, 21}";
target = up;
type = BottomGhost;
}
);
layerId = m01;
paths = (
{
closed = 1;
nodes = (
"500 429 LINE",
"35 572 LINE",
"35 473 LINE",
"374 372 LINE",
"35 266 LINE",
"35 167 LINE",
"500 309 LINE"
);
}
);
vertWidth = 1200;
width = 535;
}
);
note = greater;
unicode = 003E;
},
{
glyphname = greaterequal;
lastChange = "2025-02-18 15:58:42 +0000";
layers = (
{
background = {
components = (
{
name = greater;
}
);
paths = (
{
closed = 1;
nodes = (
"465 40 LINE",
"465 111 LINE",
"50 111 LINE",
"50 40 LINE"
);
}
);
};
components = (
{
name = greater;
}
);
layerId = m01;
paths = (
{
closed = 1;
nodes = (
"500 0 LINE",
"500 95 LINE",
"35 95 LINE",
"35 0 LINE"
);
}
);
vertWidth = 1200;
width = 535;
}
);
widthMetricsKey = greater;
note = greaterequal;
unicode = 2265;
},
{
glyphname = approxequal;
lastChange = "2025-02-19 08:38:27 +0000";
layers = (
{
background = {
paths = (
{
closed = 1;
nodes = (
"485 410 LINE",
"485 505 LINE",
"35 505 LINE",
"35 410 LINE"
);
},
{
closed = 1;
nodes = (
"485 239 LINE",
"485 334 LINE",
"35 334 LINE",
"35 239 LINE"
);
}
);
};
components = (
{
name = asciitilde;
transform = "{1, 0, 0, 1, 10, -196}";
},
{
name = asciitilde;
transform = "{1, 0, 0, 1, 10, -371}";
}
);
layerId = m01;
vertWidth = 1200;
width = 520;
}
);
widthMetricsKey = plus;
note = approxequal;
unicode = 2248;
},
{
glyphname = asciitilde;
lastChange = "2025-02-19 08:38:01 +0000";
layers = (
{
background = {
paths = (
{
closed = 1;
nodes = (
"107 603 LINE",
"111 628 OFFCURVE",
"137 648 OFFCURVE",
"167 648 CURVE SMOOTH",
"213 648 OFFCURVE",
"273 611 OFFCURVE",
"329 611 CURVE SMOOTH",
"404 611 OFFCURVE",
"441 657 OFFCURVE",
"448 719 CURVE",
"393 719 LINE",
"386 689 OFFCURVE",
"361 674 OFFCURVE",
"332 674 CURVE SMOOTH",
"282 674 OFFCURVE",
"238 711 OFFCURVE",
"174 711 CURVE SMOOTH",
"104 711 OFFCURVE",
"60 672 OFFCURVE",
"52 603 CURVE"
);
}
);
};
layerId = m01;
paths = (
{
closed = 1;
nodes = (
"131 586 LINE",
"131 614 OFFCURVE",
"146 631 OFFCURVE",
"167 631 CURVE SMOOTH",
"183 631 OFFCURVE",
"206 623 OFFCURVE",
"232 614 CURVE SMOOTH",
"277 599 OFFCURVE",
"302 594 OFFCURVE",
"329 594 CURVE SMOOTH",
"415 594 OFFCURVE",
"471 644 OFFCURVE",
"474 726 CURVE",
"371 726 LINE",
"365 694 OFFCURVE",
"354 681 OFFCURVE",
"332 681 CURVE SMOOTH",
"315 681 OFFCURVE",
"295 688 OFFCURVE",
"272 697 CURVE SMOOTH",
"230 712 OFFCURVE",
"204 718 OFFCURVE",
"174 718 CURVE SMOOTH",
"86 718 OFFCURVE",
"29 668 OFFCURVE",
"26 586 CURVE"
);
}
);
vertWidth = 1200;
width = 520;
}
);
widthMetricsKey = plus;
note = asciitilde;
unicode = 007E;
},
{
glyphname = logicalnot;
lastChange = "2025-02-18 15:56:31 +0000";
layers = (
{
background = {
paths = (
{
closed = 1;
nodes = (
"454 171 LINE",
"454 407 LINE",
"46 407 LINE",
"46 345 LINE",
"393 345 LINE",
"393 171 LINE"
);
}
);
};
layerId = m01;
paths = (
{
closed = 1;
nodes = (
"479 159 LINE",
"479 419 LINE",
"21 419 LINE",
"21 333 LINE",
"368 333 LINE",
"368 159 LINE"
);
}
);
vertWidth = 1200;
width = 520;
}
);
widthMetricsKey = plus;
note = logicalnot;
unicode = 00AC;
},
{
glyphname = asciicircum;
lastChange = "2025-02-18 15:56:31 +0000";
layers = (
{
background = {
paths = (
{
closed = 1;
nodes = (
"147 517 LINE",
"250 678 LINE",
"354 517 LINE",
"437 517 LINE",
"295 727 LINE",
"204 727 LINE",
"63 517 LINE"
);
}
);
};
layerId = m01;
paths = (
{
closed = 1;
nodes = (
"165 493 LINE",
"250 627 LINE",
"337 493 LINE",
"470 493 LINE",
"312 727 LINE",
"187 727 LINE",
"30 493 LINE"
);
}
);
vertWidth = 1200;
width = 520;
}
);
widthMetricsKey = plus;
note = asciicircum;
unicode = 005E;
},
{
glyphname = infinity;
lastChange = "2025-02-19 08:53:02 +0000";
layers = (
{
background = {
paths = (
{
closed = 1;
nodes = (
"412 367 LINE",
"407 367 LINE",
"382 435 OFFCURVE",
"328 483 OFFCURVE",
"241 483 CURVE SMOOTH",
"129 483 OFFCURVE",
"60 407 OFFCURVE",
"60 300 CURVE SMOOTH",
"60 187 OFFCURVE",
"127 125 OFFCURVE",
"241 125 CURVE SMOOTH",
"326 125 OFFCURVE",
"385 166 OFFCURVE",
"408 237 CURVE",
"413 237 LINE"
);
},
{
closed = 1;
nodes = (
"179 192 OFFCURVE",
"136 230 OFFCURVE",
"136 300 CURVE SMOOTH",
"136 366 OFFCURVE",
"178 416 OFFCURVE",
"251 416 CURVE SMOOTH",
"332 416 OFFCURVE",
"362 357 OFFCURVE",
"372 300 CURVE",
"362 244 OFFCURVE",
"330 192 OFFCURVE",
"251 192 CURVE SMOOTH"
);
},
{
closed = 1;
nodes = (
"401 237 LINE",
"424 166 OFFCURVE",
"483 125 OFFCURVE",
"568 125 CURVE SMOOTH",
"682 125 OFFCURVE",
"749 187 OFFCURVE",
"749 300 CURVE SMOOTH",
"749 407 OFFCURVE",
"680 483 OFFCURVE",
"568 483 CURVE SMOOTH",
"481 483 OFFCURVE",
"427 435 OFFCURVE",
"402 367 CURVE",
"397 367 LINE",
"396 237 LINE"
);
},
{
closed = 1;
nodes = (
"479 192 OFFCURVE",
"447 244 OFFCURVE",
"437 300 CURVE",
"447 357 OFFCURVE",
"477 416 OFFCURVE",
"558 416 CURVE SMOOTH",
"631 416 OFFCURVE",
"673 366 OFFCURVE",
"673 300 CURVE SMOOTH",
"673 230 OFFCURVE",
"630 192 OFFCURVE",
"558 192 CURVE SMOOTH"
);
}
);
};
layerId = m01;
paths = (
{
closed = 1;
nodes = (
"189 204 OFFCURVE",
"159 253 OFFCURVE",
"159 302 CURVE SMOOTH",
"159 353 OFFCURVE",
"191 404 OFFCURVE",
"251 404 CURVE SMOOTH",
"302 404 OFFCURVE",
"334 371 OFFCURVE",
"347 300 CURVE",
"335 235 OFFCURVE",
"304 204 OFFCURVE",
"251 204 CURVE SMOOTH"
);
},
{
closed = 1;
nodes = (
"43 397 OFFCURVE",
"43 301 CURVE SMOOTH",
"43 206 OFFCURVE",
"108 113 OFFCURVE",
"241 113 CURVE SMOOTH",
"311 113 OFFCURVE",
"370 146 OFFCURVE",
"404 202 CURVE",
"439 145 OFFCURVE",
"498 113 OFFCURVE",
"568 113 CURVE SMOOTH",
"701 113 OFFCURVE",
"766 207 OFFCURVE",
"766 302 CURVE SMOOTH",
"766 398 OFFCURVE",
"699 495 OFFCURVE",
"568 495 CURVE SMOOTH",
"499 495 OFFCURVE",
"441 460 OFFCURVE",
"404 399 CURVE",
"369 460 OFFCURVE",
"311 495 OFFCURVE",
"241 495 CURVE SMOOTH",
"111 495 OFFCURVE"
);
},
{
closed = 1;
nodes = (
"475 371 OFFCURVE",
"507 404 OFFCURVE",
"558 404 CURVE SMOOTH",
"618 404 OFFCURVE",
"650 352 OFFCURVE",
"650 301 CURVE SMOOTH",
"650 252 OFFCURVE",
"621 204 OFFCURVE",
"558 204 CURVE SMOOTH",
"505 204 OFFCURVE",
"474 235 OFFCURVE",
"462 300 CURVE"
);
}
);
vertWidth = 1200;
width = 809;
}
);
leftMetricsKey = O;
note = infinity;
rightMetricsKey = O;
unicode = 221E;
},
{
glyphname = percent;
lastChange = "2025-02-19 08:51:28 +0000";
layers = (
{
background = {
paths = (
{
closed = 1;
nodes = (
"289 352 OFFCURVE",
"336 414 OFFCURVE",
"336 525 CURVE SMOOTH",
"336 560 LINE SMOOTH",
"336 677 OFFCURVE",
"293 733 OFFCURVE",
"203 733 CURVE SMOOTH",
"115 733 OFFCURVE",
"75 678 OFFCURVE",
"75 560 CURVE SMOOTH",
"75 525 LINE SMOOTH",
"75 410 OFFCURVE",
"118 352 OFFCURVE",
"203 352 CURVE SMOOTH"
);
},
{
closed = 1;
nodes = (
"145 405 OFFCURVE",
"139 455 OFFCURVE",
"139 524 CURVE SMOOTH",
"139 561 LINE SMOOTH",
"139 648 OFFCURVE",
"155 681 OFFCURVE",
"203 681 CURVE SMOOTH",
"254 681 OFFCURVE",
"272 648 OFFCURVE",
"272 561 CURVE SMOOTH",
"272 524 LINE SMOOTH",
"272 455 OFFCURVE",
"260 405 OFFCURVE",
"203 405 CURVE SMOOTH"
);
},
{
closed = 1;
nodes = (
"698 -10 OFFCURVE",
"745 52 OFFCURVE",
"745 163 CURVE SMOOTH",
"745 198 LINE SMOOTH",
"745 315 OFFCURVE",
"702 371 OFFCURVE",
"612 371 CURVE SMOOTH",
"524 371 OFFCURVE",
"484 316 OFFCURVE",
"484 198 CURVE SMOOTH",
"484 163 LINE SMOOTH",
"484 48 OFFCURVE",
"527 -10 OFFCURVE",
"612 -10 CURVE SMOOTH"
);
},
{
closed = 1;
nodes = (
"554 43 OFFCURVE",
"548 93 OFFCURVE",
"548 162 CURVE SMOOTH",
"548 199 LINE SMOOTH",
"548 286 OFFCURVE",
"564 319 OFFCURVE",
"612 319 CURVE SMOOTH",
"663 319 OFFCURVE",
"681 286 OFFCURVE",
"681 199 CURVE SMOOTH",
"681 162 LINE SMOOTH",
"681 93 OFFCURVE",
"669 43 OFFCURVE",
"612 43 CURVE SMOOTH"
);
},
{
closed = 1;
nodes = (
"258 0 LINE",
"628 727 LINE",
"563 727 LINE",
"192 0 LINE"
);
}
);
};
layerId = m01;
paths = (
{
closed = 1;
nodes = (
"293 352 OFFCURVE",
"345 414 OFFCURVE",
"345 525 CURVE SMOOTH",
"345 560 LINE SMOOTH",
"345 677 OFFCURVE",
"297 733 OFFCURVE",
"198 733 CURVE SMOOTH",
"100 733 OFFCURVE",
"55 678 OFFCURVE",
"55 560 CURVE SMOOTH",
"55 525 LINE SMOOTH",
"55 410 OFFCURVE",
"103 352 OFFCURVE",
"198 352 CURVE SMOOTH"
);
},
{
closed = 1;
nodes = (
"149 421 OFFCURVE",
"144 464 OFFCURVE",
"144 524 CURVE SMOOTH",
"144 561 LINE SMOOTH",
"144 636 OFFCURVE",
"158 665 OFFCURVE",
"198 665 CURVE SMOOTH",
"242 665 OFFCURVE",
"257 636 OFFCURVE",
"257 561 CURVE SMOOTH",
"257 524 LINE SMOOTH",
"257 464 OFFCURVE",
"247 421 OFFCURVE",
"198 421 CURVE SMOOTH"
);
},
{
closed = 1;
nodes = (
"713 -10 OFFCURVE",
"765 52 OFFCURVE",
"765 163 CURVE SMOOTH",
"765 198 LINE SMOOTH",
"765 315 OFFCURVE",
"717 371 OFFCURVE",
"617 371 CURVE SMOOTH",
"519 371 OFFCURVE",
"474 316 OFFCURVE",
"474 198 CURVE SMOOTH",
"474 163 LINE SMOOTH",
"474 48 OFFCURVE",
"522 -10 OFFCURVE",
"617 -10 CURVE SMOOTH"
);
},
{
closed = 1;
nodes = (
"568 59 OFFCURVE",
"563 102 OFFCURVE",
"563 162 CURVE SMOOTH",
"563 199 LINE SMOOTH",
"563 274 OFFCURVE",
"577 303 OFFCURVE",
"617 303 CURVE SMOOTH",
"661 303 OFFCURVE",
"676 274 OFFCURVE",
"676 199 CURVE SMOOTH",
"676 162 LINE SMOOTH",
"676 102 OFFCURVE",
"666 59 OFFCURVE",
"617 59 CURVE SMOOTH"
);
},
{
closed = 1;
nodes = (
"279 0 LINE",
"629 727 LINE",
"544 727 LINE",
"193 0 LINE"
);
}
);
width = 820;
}
);
leftMetricsKey = H;
note = percent;
rightMetricsKey = H;
unicode = 0025;
},
{
glyphname = perthousand;
lastChange = "2025-02-19 08:52:06 +0000";
layers = (
{
background = {
paths = (
{
closed = 1;
nodes = (
"269 352 OFFCURVE",
"316 414 OFFCURVE",
"316 525 CURVE SMOOTH",
"316 560 LINE SMOOTH",
"316 677 OFFCURVE",
"273 733 OFFCURVE",
"183 733 CURVE SMOOTH",
"95 733 OFFCURVE",
"55 678 OFFCURVE",
"55 560 CURVE SMOOTH",
"55 525 LINE SMOOTH",
"55 410 OFFCURVE",
"98 352 OFFCURVE",
"183 352 CURVE SMOOTH"
);
},
{
closed = 1;
nodes = (
"125 405 OFFCURVE",
"119 455 OFFCURVE",
"119 524 CURVE SMOOTH",
"119 561 LINE SMOOTH",
"119 648 OFFCURVE",
"135 681 OFFCURVE",
"183 681 CURVE SMOOTH",
"234 681 OFFCURVE",
"252 648 OFFCURVE",
"252 561 CURVE SMOOTH",
"252 524 LINE SMOOTH",
"252 455 OFFCURVE",
"240 405 OFFCURVE",
"183 405 CURVE SMOOTH"
);
},
{
closed = 1;
nodes = (
"678 -10 OFFCURVE",
"725 52 OFFCURVE",
"725 163 CURVE SMOOTH",
"725 198 LINE SMOOTH",
"725 315 OFFCURVE",
"682 371 OFFCURVE",
"592 371 CURVE SMOOTH",
"504 371 OFFCURVE",
"464 316 OFFCURVE",
"464 198 CURVE SMOOTH",
"464 163 LINE SMOOTH",
"464 48 OFFCURVE",
"507 -10 OFFCURVE",
"592 -10 CURVE SMOOTH"
);
},
{
closed = 1;
nodes = (
"534 43 OFFCURVE",
"528 93 OFFCURVE",
"528 162 CURVE SMOOTH",
"528 199 LINE SMOOTH",
"528 286 OFFCURVE",
"544 319 OFFCURVE",
"592 319 CURVE SMOOTH",
"643 319 OFFCURVE",
"661 286 OFFCURVE",
"661 199 CURVE SMOOTH",
"661 162 LINE SMOOTH",
"661 93 OFFCURVE",
"649 43 OFFCURVE",
"592 43 CURVE SMOOTH"
);
},
{
closed = 1;
nodes = (
"238 0 LINE",
"608 727 LINE",
"543 727 LINE",
"172 0 LINE"
);
},
{
closed = 1;
nodes = (
"983 -10 OFFCURVE",
"1030 52 OFFCURVE",
"1030 163 CURVE SMOOTH",
"1030 198 LINE SMOOTH",
"1030 315 OFFCURVE",
"987 371 OFFCURVE",
"897 371 CURVE SMOOTH",
"809 371 OFFCURVE",
"769 316 OFFCURVE",
"769 198 CURVE SMOOTH",
"769 163 LINE SMOOTH",
"769 48 OFFCURVE",
"812 -10 OFFCURVE",
"897 -10 CURVE SMOOTH"
);
},
{
closed = 1;
nodes = (
"839 43 OFFCURVE",
"833 93 OFFCURVE",
"833 162 CURVE SMOOTH",
"833 199 LINE SMOOTH",
"833 286 OFFCURVE",
"849 319 OFFCURVE",
"897 319 CURVE SMOOTH",
"948 319 OFFCURVE",
"966 286 OFFCURVE",
"966 199 CURVE SMOOTH",
"966 162 LINE SMOOTH",
"966 93 OFFCURVE",
"954 43 OFFCURVE",
"897 43 CURVE SMOOTH"
);
}
);
};
layerId = m01;
paths = (
{
closed = 1;
nodes = (
"293 352 OFFCURVE",
"345 414 OFFCURVE",
"345 525 CURVE SMOOTH",
"345 560 LINE SMOOTH",
"345 677 OFFCURVE",
"297 733 OFFCURVE",
"198 733 CURVE SMOOTH",
"100 733 OFFCURVE",
"55 678 OFFCURVE",
"55 560 CURVE SMOOTH",
"55 525 LINE SMOOTH",
"55 410 OFFCURVE",
"103 352 OFFCURVE",
"198 352 CURVE SMOOTH"
);
},
{
closed = 1;
nodes = (
"149 421 OFFCURVE",
"144 464 OFFCURVE",
"144 524 CURVE SMOOTH",
"144 561 LINE SMOOTH",
"144 636 OFFCURVE",
"158 665 OFFCURVE",
"198 665 CURVE SMOOTH",
"242 665 OFFCURVE",
"257 636 OFFCURVE",
"257 561 CURVE SMOOTH",
"257 524 LINE SMOOTH",
"257 464 OFFCURVE",
"247 421 OFFCURVE",
"198 421 CURVE SMOOTH"
);
},
{
closed = 1;
nodes = (
"713 -10 OFFCURVE",
"765 52 OFFCURVE",
"765 163 CURVE SMOOTH",
"765 198 LINE SMOOTH",
"765 315 OFFCURVE",
"717 371 OFFCURVE",
"617 371 CURVE SMOOTH",
"519 371 OFFCURVE",
"474 316 OFFCURVE",
"474 198 CURVE SMOOTH",
"474 163 LINE SMOOTH",
"474 48 OFFCURVE",
"522 -10 OFFCURVE",
"617 -10 CURVE SMOOTH"
);
},
{
closed = 1;
nodes = (
"568 59 OFFCURVE",
"563 102 OFFCURVE",
"563 162 CURVE SMOOTH",
"563 199 LINE SMOOTH",
"563 274 OFFCURVE",
"577 303 OFFCURVE",
"617 303 CURVE SMOOTH",
"661 303 OFFCURVE",
"676 274 OFFCURVE",
"676 199 CURVE SMOOTH",
"676 162 LINE SMOOTH",
"676 102 OFFCURVE",
"666 59 OFFCURVE",
"617 59 CURVE SMOOTH"
);
},
{
closed = 1;
nodes = (
"279 0 LINE",
"629 727 LINE",
"544 727 LINE",
"193 0 LINE"
);
},
{
closed = 1;
nodes = (
"1044 -10 OFFCURVE",
"1096 52 OFFCURVE",
"1096 163 CURVE SMOOTH",
"1096 198 LINE SMOOTH",
"1096 315 OFFCURVE",
"1048 371 OFFCURVE",
"948 371 CURVE SMOOTH",
"850 371 OFFCURVE",
"805 316 OFFCURVE",
"805 198 CURVE SMOOTH",
"805 163 LINE SMOOTH",
"805 48 OFFCURVE",
"853 -10 OFFCURVE",
"948 -10 CURVE SMOOTH"
);
},
{
closed = 1;
nodes = (
"899 59 OFFCURVE",
"894 102 OFFCURVE",
"894 162 CURVE SMOOTH",
"894 199 LINE SMOOTH",
"894 274 OFFCURVE",
"908 303 OFFCURVE",
"948 303 CURVE SMOOTH",
"992 303 OFFCURVE",
"1007 274 OFFCURVE",
"1007 199 CURVE SMOOTH",
"1007 162 LINE SMOOTH",
"1007 102 OFFCURVE",
"997 59 OFFCURVE",
"948 59 CURVE SMOOTH"
);
}
);
vertWidth = 1200;
width = 1151;
}
);
leftMetricsKey = H;
note = perthousand;
rightMetricsKey = H;
unicode = 2030;
},
{
glyphname = caroncomb.alt;
lastChange = "2025-02-18 10:21:52 +0000";
layers = (
{
anchors = (
{
name = _topright;
position = "{172, 505}";
}
);
layerId = m01;
paths = (
{
closed = 1;
nodes = (
"265 537 LINE",
"329 727 LINE",
"207 727 LINE",
"164 537 LINE"
);
}
);
width = 500;
}
);
},
{
glyphname = commaturnedabovecomb;
lastChange = "2025-02-18 12:15:10 +0000";
layers = (
{
anchors = (
{
name = _top;
position = "{232, 505}";
},
{
name = top;
position = "{251, 727}";
}
);
layerId = m01;
paths = (
{
closed = 1;
nodes = (
"236 727 LINE",
"172 567 LINE",
"294 567 LINE",
"337 727 LINE"
);
}
);
width = 500;
}
);
unicode = 0312;
},
{
glyphname = commaaccentcomb;
lastChange = "2025-02-18 12:17:02 +0000";
layers = (
{
anchors = (
{
name = _bottom;
position = "{269, 0}";
},
{
name = bottom;
position = "{251, -231}";
}
);
layerId = m01;
paths = (
{
closed = 1;
nodes = (
"270 -233 LINE",
"334 -63 LINE",
"212 -63 LINE",
"169 -233 LINE"
);
}
);
vertWidth = 1200;
width = 500;
}
);
note = uni0326;
unicode = 0326;
},
{
glyphname = dieresis;
lastChange = "2025-02-18 10:13:54 +0000";
layers = (
{
layerId = m01;
paths = (
{
closed = 1;
nodes = (
"410 579 LINE",
"410 686 LINE",
"280 686 LINE",
"280 579 LINE"
);
},
{
closed = 1;
nodes = (
"220 579 LINE",
"220 686 LINE",
"90 686 LINE",
"90 579 LINE"
);
}
);
vertWidth = 1200;
width = 500;
}
);
note = dieresis;
unicode = 00A8;
},
{
glyphname = dotaccent;
lastChange = "2025-02-18 10:03:42 +0000";
layers = (
{
layerId = m01;
paths = (
{
closed = 1;
nodes = (
"315 579 LINE",
"315 686 LINE",
"185 686 LINE",
"185 579 LINE"
);
}
);
width = 500;
}
);
unicode = 02D9;
},
{
glyphname = grave;
lastChange = "2025-02-18 10:04:14 +0000";
layers = (
{
layerId = m01;
paths = (
{
closed = 1;
nodes = (
"382 574 LINE",
"278 727 LINE",
"125 727 LINE",
"267 574 LINE"
);
}
);
vertWidth = 1200;
width = 500;
}
);
note = grave;
unicode = 0060;
},
{
glyphname = acute;
lastChange = "2025-02-18 10:04:20 +0000";
layers = (
{
layerId = m01;
paths = (
{
closed = 1;
nodes = (
"233 574 LINE",
"375 727 LINE",
"222 727 LINE",
"118 574 LINE"
);
}
);
vertWidth = 1200;
width = 500;
}
);
note = acute;
unicode = 00B4;
},
{
glyphname = hungarumlaut;
lastChange = "2025-02-18 10:04:48 +0000";
layers = (
{
layerId = m01;
paths = (
{
closed = 1;
nodes = (
"347 574 LINE",
"489 727 LINE",
"336 727 LINE",
"232 574 LINE"
);
},
{
closed = 1;
nodes = (
"160 574 LINE",
"302 727 LINE",
"149 727 LINE",
"45 574 LINE"
);
}
);
width = 500;
}
);
unicode = 02DD;
},
{
glyphname = circumflex;
lastChange = "2025-02-18 10:15:15 +0000";
layers = (
{
background = {
paths = (
{
closed = 1;
nodes = (
"175 704 OFFCURVE",
"135 668 OFFCURVE",
"120 586 CURVE",
"183 586 LINE",
"190 623 OFFCURVE",
"212 641 OFFCURVE",
"250 641 CURVE SMOOTH",
"288 641 OFFCURVE",
"310 623 OFFCURVE",
"317 586 CURVE",
"380 586 LINE",
"366 663 OFFCURVE",
"324 704 OFFCURVE",
"249 704 CURVE SMOOTH"
);
}
);
};
layerId = m01;
paths = (
{
closed = 1;
nodes = (
"207 574 LINE",
"250 648 LINE",
"294 574 LINE",
"414 574 LINE",
"309 727 LINE",
"191 727 LINE",
"86 574 LINE"
);
}
);
width = 500;
}
);
unicode = 02C6;
},
{
glyphname = caron;
lastChange = "2025-02-18 10:15:23 +0000";
layers = (
{
layerId = m01;
paths = (
{
closed = 1;
nodes = (
"293 727 LINE",
"250 653 LINE",
"207 727 LINE",
"86 727 LINE",
"191 574 LINE",
"309 574 LINE",
"414 727 LINE"
);
}
);
width = 500;
}
);
unicode = 02C7;
},
{
glyphname = breve;
lastChange = "2025-02-18 10:15:36 +0000";
layers = (
{
background = {
paths = (
{
closed = 1;
nodes = (
"324 586 OFFCURVE",
"366 627 OFFCURVE",
"380 704 CURVE",
"317 704 LINE",
"310 667 OFFCURVE",
"288 649 OFFCURVE",
"250 649 CURVE SMOOTH",
"212 649 OFFCURVE",
"190 667 OFFCURVE",
"183 704 CURVE",
"120 704 LINE",
"135 622 OFFCURVE",
"175 586 OFFCURVE",
"249 586 CURVE SMOOTH"
);
}
);
};
layerId = m01;
paths = (
{
closed = 1;
nodes = (
"282 661 OFFCURVE",
"271 650 OFFCURVE",
"249 650 CURVE SMOOTH",
"233 650 OFFCURVE",
"219 661 OFFCURVE",
"219 716 CURVE",
"109 716 LINE",
"114 610 OFFCURVE",
"158 574 OFFCURVE",
"250 574 CURVE SMOOTH",
"342 574 OFFCURVE",
"386 610 OFFCURVE",
"390 716 CURVE",
"282 716 LINE"
);
}
);
width = 500;
}
);
unicode = 02D8;
},
{
glyphname = ring;
lastChange = "2025-02-18 10:06:31 +0000";
layers = (
{
layerId = m01;
paths = (
{
closed = 1;
nodes = (
"315 548 OFFCURVE",
"364 592 OFFCURVE",
"364 649 CURVE SMOOTH",
"362 704 OFFCURVE",
"311 750 OFFCURVE",
"252 750 CURVE SMOOTH",
"187 750 OFFCURVE",
"137 707 OFFCURVE",
"137 649 CURVE SMOOTH",
"137 592 OFFCURVE",
"188 546 OFFCURVE",
"251 546 CURVE SMOOTH"
);
},
{
closed = 1;
nodes = (
"231 609 OFFCURVE",
"215 626 OFFCURVE",
"215 649 CURVE SMOOTH",
"215 672 OFFCURVE",
"230 687 OFFCURVE",
"251 687 CURVE SMOOTH",
"270 687 OFFCURVE",
"286 671 OFFCURVE",
"286 649 CURVE SMOOTH",
"286 626 OFFCURVE",
"274 609 OFFCURVE",
"250 609 CURVE SMOOTH"
);
}
);
width = 500;
}
);
unicode = 02DA;
},
{
glyphname = tilde;
lastChange = "2025-02-18 10:09:46 +0000";
layers = (
{
background = {
paths = (
{
closed = 1;
nodes = (
"330 714 LINE",
"329 687 OFFCURVE",
"319 669 OFFCURVE",
"297 669 CURVE SMOOTH",
"267 669 OFFCURVE",
"234 707 OFFCURVE",
"188 707 CURVE SMOOTH",
"119 707 OFFCURVE",
"78 653 OFFCURVE",
"74 574 CURVE",
"170 574 LINE",
"172 611 OFFCURVE",
"187 619 OFFCURVE",
"209 619 CURVE SMOOTH",
"235 619 OFFCURVE",
"265 582 OFFCURVE",
"311 582 CURVE SMOOTH",
"387 582 OFFCURVE",
"422 629 OFFCURVE",
"426 714 CURVE"
);
}
);
};
layerId = m01;
paths = (
{
closed = 1;
nodes = (
"170 574 LINE",
"171 601 OFFCURVE",
"181 619 OFFCURVE",
"203 619 CURVE SMOOTH",
"233 619 OFFCURVE",
"267 581 OFFCURVE",
"313 581 CURVE SMOOTH",
"391 581 OFFCURVE",
"423 635 OFFCURVE",
"426 714 CURVE",
"330 714 LINE",
"328 677 OFFCURVE",
"315 669 OFFCURVE",
"293 669 CURVE SMOOTH",
"270 669 OFFCURVE",
"235 706 OFFCURVE",
"189 706 CURVE SMOOTH",
"113 706 OFFCURVE",
"78 659 OFFCURVE",
"74 574 CURVE"
);
}
);
width = 500;
}
);
unicode = 02DC;
},
{
glyphname = macron;
lastChange = "2025-02-18 10:03:42 +0000";
layers = (
{
hints = (
{
horizontal = 1;
place = "{608, 61}";
type = Stem;
},
{
place = "{136, 207}";
type = Stem;
}
);
layerId = m01;
paths = (
{
closed = 1;
nodes = (
"379 574 LINE",
"379 659 LINE",
"121 659 LINE",
"121 574 LINE"
);
}
);
vertWidth = 1200;
width = 500;
}
);
note = macron;
unicode = 00AF;
},
{
glyphname = cedilla;
lastChange = "2025-02-18 10:19:10 +0000";
layers = (
{
background = {
paths = (
{
closed = 1;
nodes = (
"177 -65 LINE",
"236 -65 LINE",
"278 20 LINE",
"219 20 LINE"
);
},
{
closed = 1;
nodes = (
"220 -79 OFFCURVE",
"231 -76 OFFCURVE",
"241 -76 CURVE SMOOTH",
"267 -76 OFFCURVE",
"290 -93 OFFCURVE",
"290 -125 CURVE SMOOTH",
"290 -153 OFFCURVE",
"270 -182 OFFCURVE",
"231 -182 CURVE SMOOTH",
"206 -182 OFFCURVE",
"180 -171 OFFCURVE",
"167 -155 CURVE",
"136 -185 LINE",
"160 -214 OFFCURVE",
"197 -227 OFFCURVE",
"233 -227 CURVE SMOOTH",
"290 -227 OFFCURVE",
"345 -193 OFFCURVE",
"345 -130 CURVE SMOOTH",
"345 -64 OFFCURVE",
"299 -35 OFFCURVE",
"249 -35 CURVE SMOOTH",
"224 -35 OFFCURVE",
"199 -44 OFFCURVE",
"177 -65 CURVE",
"211 -85 LINE"
);
}
);
};
hints = (
{
place = "{259, 76}";
type = Stem;
}
);
layerId = m01;
paths = (
{
closed = 1;
nodes = (
"154 -65 LINE",
"215 -101 LINE",
"225 -90 OFFCURVE",
"236 -85 OFFCURVE",
"247 -85 CURVE SMOOTH",
"272 -85 OFFCURVE",
"285 -106 OFFCURVE",
"285 -127 CURVE SMOOTH",
"285 -157 OFFCURVE",
"261 -171 OFFCURVE",
"234 -171 CURVE SMOOTH",
"207 -171 OFFCURVE",
"176 -158 OFFCURVE",
"161 -134 CURVE",
"111 -184 LINE",
"130 -216 OFFCURVE",
"182 -239 OFFCURVE",
"233 -239 CURVE SMOOTH",
"310 -239 OFFCURVE",
"370 -193 OFFCURVE",
"370 -130 CURVE SMOOTH",
"370 -81 OFFCURVE",
"341 -36 OFFCURVE",
"270 -36 CURVE",
"309 20 LINE",
"210 20 LINE"
);
}
);
vertWidth = 1200;
width = 500;
}
);
note = cedilla;
unicode = 00B8;
},
{
glyphname = ogonek;
lastChange = "2025-02-18 10:13:30 +0000";
layers = (
{
layerId = m01;
paths = (
{
closed = 1;
nodes = (
"157 -64 OFFCURVE",
"157 -98 CURVE SMOOTH",
"157 -152 OFFCURVE",
"203 -200 OFFCURVE",
"285 -200 CURVE SMOOTH",
"312 -200 OFFCURVE",
"345 -196 OFFCURVE",
"351 -192 CURVE",
"351 -102 LINE",
"330 -114 OFFCURVE",
"314 -117 OFFCURVE",
"300 -117 CURVE SMOOTH",
"273 -117 OFFCURVE",
"261 -104 OFFCURVE",
"261 -85 CURVE SMOOTH",
"261 -58 OFFCURVE",
"287 -21 OFFCURVE",
"332 0 CURVE",
"216 0 LINE",
"176 -27 OFFCURVE"
);
}
);
width = 500;
}
);
unicode = 02DB;
},
{
export = 0;
glyphname = _part.arrowDownOne;
lastChange = "2025-02-15 08:54:04 +0000";
layers = (
{
anchors = (
{
name = _arrowDown;
position = "{150, 371}";
}
);
layerId = m01;
paths = (
{
closed = 1;
nodes = (
"129 -4 LINE",
"50 31 LINE",
"150 -112 LINE",
"250 31 LINE",
"171 -4 LINE",
"171 176 LINE",
"129 176 LINE"
);
}
);
width = 300;
}
);
},
{
export = 0;
glyphname = _part.arrowDownThree;
lastChange = "2025-02-15 08:54:04 +0000";
layers = (
{
anchors = (
{
name = _arrowDown;
position = "{150, 371}";
}
);
layerId = m01;
paths = (
{
closed = 1;
nodes = (
"129 -89 LINE",
"50 -54 LINE",
"150 -197 LINE",
"250 -54 LINE",
"171 -89 LINE",
"171 89 LINE",
"129 89 LINE"
);
},
{
closed = 1;
nodes = (
"129 4 LINE",
"50 39 LINE",
"150 -104 LINE",
"250 39 LINE",
"171 4 LINE",
"171 86 LINE",
"129 86 LINE"
);
},
{
closed = 1;
nodes = (
"129 97 LINE",
"50 132 LINE",
"150 -11 LINE",
"250 132 LINE",
"171 97 LINE",
"171 176 LINE",
"129 176 LINE"
);
}
);
width = 300;
}
);
},
{
export = 0;
glyphname = _part.arrowDownTwo;
lastChange = "2025-02-15 08:54:04 +0000";
layers = (
{
anchors = (
{
name = _arrowDown;
position = "{150, 371}";
}
);
layerId = m01;
paths = (
{
closed = 1;
nodes = (
"129 -60 LINE",
"50 -25 LINE",
"150 -168 LINE",
"250 -25 LINE",
"171 -60 LINE",
"171 176 LINE",
"129 176 LINE"
);
},
{
closed = 1;
nodes = (
"129 33 LINE",
"50 68 LINE",
"150 -75 LINE",
"250 68 LINE",
"171 33 LINE",
"171 176 LINE",
"129 176 LINE"
);
}
);
width = 300;
}
);
},
{
export = 0;
glyphname = _part.arrowUpOne;
lastChange = "2025-02-15 08:54:04 +0000";
layers = (
{
anchors = (
{
name = _arrowUp;
position = "{150, 371}";
}
);
layerId = m01;
paths = (
{
closed = 1;
nodes = (
"171 566 LINE",
"171 746 LINE",
"250 711 LINE",
"150 854 LINE",
"50 711 LINE",
"129 746 LINE",
"129 566 LINE"
);
}
);
width = 300;
}
);
},
{
export = 0;
glyphname = _part.arrowUpThree;
lastChange = "2025-02-15 08:54:04 +0000";
layers = (
{
anchors = (
{
name = _arrowUp;
position = "{150, 371}";
}
);
background = {
paths = (
{
closed = 1;
nodes = (
"171 568 LINE",
"171 721 LINE",
"250 686 LINE",
"150 829 LINE",
"50 686 LINE",
"129 721 LINE",
"129 568 LINE"
);
},
{
closed = 1;
nodes = (
"171 568 LINE",
"171 639 LINE",
"250 604 LINE",
"150 747 LINE",
"50 604 LINE",
"129 639 LINE",
"129 568 LINE"
);
},
{
closed = 1;
nodes = (
"171 586 LINE",
"171 802 LINE",
"250 767 LINE",
"150 910 LINE",
"50 767 LINE",
"129 802 LINE",
"129 586 LINE"
);
}
);
};
layerId = m01;
paths = (
{
closed = 1;
nodes = (
"171 653 LINE",
"171 831 LINE",
"250 796 LINE",
"150 939 LINE",
"50 796 LINE",
"129 831 LINE",
"129 653 LINE"
);
},
{
closed = 1;
nodes = (
"171 656 LINE",
"171 738 LINE",
"250 703 LINE",
"150 846 LINE",
"50 703 LINE",
"129 738 LINE",
"129 656 LINE"
);
},
{
closed = 1;
nodes = (
"171 566 LINE",
"171 645 LINE",
"250 610 LINE",
"150 753 LINE",
"50 610 LINE",
"129 645 LINE",
"129 566 LINE"
);
}
);
width = 300;
}
);
},
{
export = 0;
glyphname = _part.arrowUpTwo;
lastChange = "2025-02-15 08:54:04 +0000";
layers = (
{
anchors = (
{
name = _arrowUp;
position = "{150, 371}";
}
);
layerId = m01;
paths = (
{
closed = 1;
nodes = (
"171 566 LINE",
"171 802 LINE",
"250 767 LINE",
"150 910 LINE",
"50 767 LINE",
"129 802 LINE",
"129 566 LINE"
);
},
{
closed = 1;
nodes = (
"171 566 LINE",
"171 709 LINE",
"250 674 LINE",
"150 817 LINE",
"50 674 LINE",
"129 709 LINE",
"129 566 LINE"
);
}
);
width = 300;
}
);
},
{
export = 0;
glyphname = _part.bowl;
lastChange = "2025-02-16 20:00:04 +0000";
layers = (
{
background = {
paths = (
{
closed = 1;
nodes = (
"112 455 LINE",
"111 262 LINE",
"138 262 LINE",
"138 288 LINE SMOOTH",
"138 381 OFFCURVE",
"156 436 OFFCURVE",
"210 436 CURVE SMOOTH",
"267 436 OFFCURVE",
"282 397 OFFCURVE",
"282 288 CURVE SMOOTH",
"282 0 LINE",
"408 0 LINE",
"408 298 LINE SMOOTH",
"408 450 OFFCURVE",
"365 515 OFFCURVE",
"267 515 CURVE SMOOTH",
"210 515 OFFCURVE",
"171 493 OFFCURVE",
"148 455 CURVE",
"138 455 LINE"
);
}
);
};
layerId = m01;
paths = (
{
closed = 1;
nodes = (
"373 -10 OFFCURVE",
"413 63 OFFCURVE",
"413 204 CURVE SMOOTH",
"413 298 LINE SMOOTH",
"413 440 OFFCURVE",
"373 515 OFFCURVE",
"270 515 CURVE SMOOTH",
"209 515 OFFCURVE",
"167 489 OFFCURVE",
"138 445 CURVE",
"105 445 LINE",
"105 60 LINE",
"137 60 LINE",
"166 16 OFFCURVE",
"208 -10 OFFCURVE",
"270 -10 CURVE SMOOTH"
);
},
{
closed = 1;
nodes = (
"138 278 LINE SMOOTH",
"138 371 OFFCURVE",
"156 436 OFFCURVE",
"210 436 CURVE SMOOTH",
"261 436 OFFCURVE",
"287 388 OFFCURVE",
"287 288 CURVE SMOOTH",
"287 213 LINE SMOOTH",
"287 114 OFFCURVE",
"262 69 OFFCURVE",
"210 69 CURVE SMOOTH",
"155 69 OFFCURVE",
"138 129 OFFCURVE",
"138 223 CURVE SMOOTH"
);
}
);
width = 431;
}
);
},
{
export = 0;
glyphname = _part.sharpOtonal;
lastChange = "2025-02-15 08:54:04 +0000";
layers = (
{
anchors = (
{
name = arrowDown;
position = "{279, 371}";
}
);
layerId = m01;
paths = (
{
closed = 1;
nodes = (
"360 503 LINE",
"360 612 LINE",
"50 519 LINE",
"50 410 LINE"
);
},
{
closed = 1;
nodes = (
"360 223 LINE",
"360 332 LINE",
"50 239 LINE",
"50 130 LINE"
);
},
{
closed = 1;
nodes = (
"152 63 LINE",
"152 697 LINE",
"110 697 LINE",
"110 63 LINE"
);
},
{
closed = 1;
nodes = (
"300 45 LINE",
"300 742 LINE",
"258 742 LINE",
"258 45 LINE"
);
}
);
width = 410;
}
);
},
{
export = 0;
glyphname = _part.sharpUtonal;
lastChange = "2025-02-15 08:54:04 +0000";
layers = (
{
anchors = (
{
name = arrowUp;
position = "{131, 371}";
}
);
layerId = m01;
paths = (
{
closed = 1;
nodes = (
"360 503 LINE",
"360 612 LINE",
"50 519 LINE",
"50 410 LINE"
);
},
{
closed = 1;
nodes = (
"360 223 LINE",
"360 332 LINE",
"50 239 LINE",
"50 130 LINE"
);
},
{
closed = 1;
nodes = (
"152 0 LINE",
"152 697 LINE",
"110 697 LINE",
"110 0 LINE"
);
},
{
closed = 1;
nodes = (
"300 45 LINE",
"300 679 LINE",
"258 679 LINE",
"258 45 LINE"
);
}
);
width = 410;
}
);
},
{
export = 0;
glyphname = _part.shoulder;
lastChange = "2025-02-16 20:00:35 +0000";
layers = (
{
background = {
paths = (
{
closed = 1;
nodes = (
"343 -10 OFFCURVE",
"383 63 OFFCURVE",
"383 204 CURVE SMOOTH",
"383 298 LINE SMOOTH",
"383 440 OFFCURVE",
"343 515 OFFCURVE",
"240 515 CURVE SMOOTH",
"179 515 OFFCURVE",
"137 489 OFFCURVE",
"108 445 CURVE",
"75 445 LINE",
"75 60 LINE",
"107 60 LINE",
"136 16 OFFCURVE",
"178 -10 OFFCURVE",
"240 -10 CURVE SMOOTH"
);
},
{
closed = 1;
nodes = (
"108 278 LINE SMOOTH",
"108 371 OFFCURVE",
"126 436 OFFCURVE",
"180 436 CURVE SMOOTH",
"231 436 OFFCURVE",
"257 388 OFFCURVE",
"257 288 CURVE SMOOTH",
"257 213 LINE SMOOTH",
"257 114 OFFCURVE",
"232 69 OFFCURVE",
"180 69 CURVE SMOOTH",
"125 69 OFFCURVE",
"108 129 OFFCURVE",
"108 223 CURVE SMOOTH"
);
}
);
};
layerId = m01;
paths = (
{
closed = 1;
nodes = (
"87 445 LINE",
"86 252 LINE",
"113 252 LINE",
"113 278 LINE SMOOTH",
"113 371 OFFCURVE",
"131 436 OFFCURVE",
"185 436 CURVE SMOOTH",
"242 436 OFFCURVE",
"257 397 OFFCURVE",
"257 288 CURVE SMOOTH",
"257 0 LINE",
"383 0 LINE",
"383 298 LINE SMOOTH",
"383 450 OFFCURVE",
"340 515 OFFCURVE",
"242 515 CURVE SMOOTH",
"180 515 OFFCURVE",
"138 489 OFFCURVE",
"113 445 CURVE"
);
}
);
width = 431;
}
);
},
{
export = 0;
glyphname = _part.tempered;
lastChange = "2025-02-15 08:54:04 +0000";
layers = (
{
anchors = (
{
name = _arrowUp;
position = "{150, 371}";
}
);
background = {
paths = (
{
closed = 1;
nodes = (
"171 566 LINE",
"171 746 LINE",
"250 711 LINE",
"150 854 LINE",
"50 711 LINE",
"129 746 LINE",
"129 566 LINE"
);
}
);
};
layerId = m01;
paths = (
{
closed = 1;
nodes = (
"129 566 LINE",
"171 566 LINE",
"171 731 LINE",
"129 731 LINE"
);
},
{
closed = 1;
nodes = (
"50 711 LINE",
"250 711 LINE",
"250 753 LINE",
"50 753 LINE"
);
}
);
width = 300;
}
);
},
{
export = 0;
glyphname = _part.thirtyOne;
lastChange = "2025-02-15 08:54:04 +0000";
layers = (
{
layerId = m01;
paths = (
{
closed = 1;
nodes = (
"50 505 LINE",
"301 340 LINE",
"374 357 LINE",
"374 388 LINE",
"50 601 LINE"
);
},
{
closed = 1;
nodes = (
"50 209 LINE",
"374 357 LINE",
"374 387 LINE",
"339 391 LINE",
"50 259 LINE"
);
}
);
width = 424;
}
);
},
